<svg width="120" height="120" viewBox="0 0 120 120" fill="none" xmlns="http://www.w3.org/2000/svg">
<path d="M49.5286 5.10621C48.9335 5.19987 48.3449 5.43237 47.8263 5.72798C46.5361 6.46332 45.7914 8.06468 46.3274 9.51309C46.5514 10.1182 47.0586 10.6272 47.5245 11.0538C47.9796 11.4704 48.4719 11.8556 48.9027 12.2972C49.2009 12.603 49.4467 12.9321 49.338 13.3767C49.1297 14.2286 48.161 14.4 47.4263 14.141C47.0998 14.026 46.8067 13.7826 46.4604 13.7297C46.0899 13.6733 45.5736 13.7234 45.3137 14.0285C44.869 14.5506 45.1055 15.6213 45.2433 16.2176C45.836 18.7806 49.0302 19.7534 51.3468 19.3165C52.7393 19.0539 53.9773 18.3363 54.7555 17.1171C56.0251 15.128 55.7197 12.2124 53.847 10.7268C52.8875 9.96565 51.7192 9.55474 50.6649 8.95332C50.3042 8.74752 49.7152 8.3957 49.7111 7.92218C49.7047 7.18175 50.7051 6.87874 51.2899 7.11063C52.2717 7.49988 52.3688 8.91235 53.5059 9.09684C54.9285 9.32758 54.8474 7.39904 54.5999 6.50173C54.5352 6.26744 54.4788 5.97904 54.3211 5.78808C53.9439 5.33116 53.3961 5.464 52.8809 5.41249C51.7476 5.29917 50.6898 4.92343 49.5286 5.10621ZM70.5513 9.68354C70.5513 8.69775 70.7473 7.70792 70.8451 6.729C70.882 6.35765 71.0831 5.90049 70.9115 5.53893C70.7286 5.1522 70.2632 5.27304 69.9263 5.3114C68.9871 5.41837 68.003 5.76452 67.2559 6.36051C66.8382 6.6935 66.3053 7.42687 66.7337 7.95224C66.9598 8.22911 67.3428 8.32746 67.5138 8.66167C67.6309 8.88888 67.6314 9.20542 67.6536 9.45627C67.6899 9.87292 67.7405 10.2865 67.7007 10.7063C67.5439 12.3531 67.4502 14.0069 67.232 15.6495C67.1274 16.4325 66.6274 17.1166 66.9229 17.9213C67.1223 18.4642 67.9763 18.5446 68.449 18.7205C70.0536 19.3173 71.7797 19.7513 73.449 19.118C76.5019 17.9597 76.5127 13.8671 75.5212 11.3313C75.2013 10.5135 74.8064 9.49127 74.0076 9.01962C73.2848 8.59303 72.5286 8.71479 71.8013 9.06883C71.3945 9.26701 70.9945 9.58218 70.5513 9.68354Z" fill="#6F9F77"/>
<path d="M17.8809 5.62619C16.0595 5.68896 14.2531 5.76288 12.4263 5.76288C11.558 5.76288 10.4849 5.77696 9.84218 6.46964C9.58224 6.74977 9.46906 7.27457 9.66031 7.62817C9.8569 7.99175 10.3276 8.09851 10.5048 8.49021C10.7677 9.07124 10.6938 9.69981 10.6672 10.3083C10.6316 11.1222 10.6176 11.9369 10.6079 12.7515C10.6012 13.319 10.5513 13.8852 10.5513 14.4561C10.5513 15.2986 10.5929 16.2074 10.2989 17.0129C9.9986 17.8359 8.83088 18.4416 9.14366 19.3992C9.28599 19.8352 9.63536 19.8829 10.04 19.9155C10.4974 19.9523 10.9437 19.9674 11.4036 19.9674C13.072 19.9674 14.7393 19.9522 16.4036 19.9115C17.1378 19.8935 18.024 20.0357 18.7331 19.8167C19.1985 19.6731 19.409 19.2382 19.5979 18.8311C20.0846 17.782 19.8638 16.3672 19.8149 15.2515C19.7915 14.7159 19.8974 13.8788 19.3411 13.5572C18.8506 13.2736 18.5625 14.0315 18.2196 14.2195C17.9805 14.3504 17.7381 14.2911 17.4831 14.3003C17.2337 14.3094 16.9966 14.401 16.7445 14.3962C15.5756 14.3737 14.4705 13.8295 14.2695 12.5811C14.2006 12.1536 14.1772 11.5277 14.5879 11.2596C15.3774 10.7445 15.6703 12.4823 16.4581 11.9707C16.9721 11.637 17.0958 10.5295 17.0506 9.96766C17.0336 9.75675 16.9255 9.56976 16.6874 9.59828C16.3407 9.63981 16.1568 9.98283 15.7786 9.95686C15.2159 9.91822 14.5826 9.61317 14.293 9.11493C14.1221 8.82067 14.1167 8.28959 14.4212 8.07777C14.6766 7.90004 15.0401 7.99578 15.3241 8.02618C15.85 8.08248 16.3598 8.13624 16.8013 8.46146C17.4502 8.93953 18.0648 10.2987 19.0732 9.59447C19.5319 9.27413 19.5758 8.60084 19.5374 8.09243C19.4624 7.09946 19.1643 5.58196 17.8809 5.62619Z" fill="#6F9F77"/>
<path d="M97.4831 6.0839C97.061 6.21194 96.8962 6.57977 96.7496 6.95612C96.5411 7.49149 96.3951 8.21629 95.982 8.63851C95.5144 9.11709 94.8138 8.69731 94.3087 9.0501C94.0383 9.23902 93.9985 9.72396 94.0422 10.0243C94.0587 10.1373 94.0809 10.2563 94.1189 10.3641C94.2922 10.856 94.8928 10.6173 95.2621 10.8291C95.5661 11.0034 95.6695 11.4589 95.653 11.7857C95.632 12.2045 95.5576 12.6222 95.49 13.0357C95.2718 14.3644 94.8076 15.8308 95.0354 17.1834C95.1388 17.7958 95.3241 18.4069 95.8354 18.805C96.1314 19.0352 96.4485 19.1562 96.8013 19.2663C97.1814 19.3849 97.5951 19.4557 97.9945 19.4557C98.5456 19.4557 99.1246 19.3325 99.6422 19.149C100.696 18.7756 101.655 17.7532 101.322 16.5587C101.177 16.0389 100.4 16.0982 100.065 15.7548C99.6348 15.314 99.4985 14.6319 99.349 14.0584C99.2661 13.7381 99.1388 13.4207 99.0911 13.0925C98.9945 12.4278 98.7508 11.432 99.2951 10.8959C99.836 10.3629 100.964 11.0443 101.201 10.1379C101.226 10.0457 101.232 9.94885 101.23 9.85385C101.227 9.7197 101.206 9.5839 101.164 9.4564C100.998 8.95629 100.611 9.15152 100.21 9.1047C99.8121 9.05817 99.4729 8.80277 99.3138 8.43339C98.9939 7.68879 99.5945 6.4345 98.5627 6.08697C98.4002 6.03232 98.2201 6.04709 98.0513 6.04703C97.865 6.04697 97.6638 6.02907 97.4831 6.0839ZM35.4945 6.84248C33.5421 6.84248 31.3379 7.80055 30.2913 9.52339C29.7717 10.3789 29.42 11.2449 29.2774 12.2402C29.245 12.4666 29.1295 13.0981 29.3356 13.2613C29.4647 13.3636 29.7165 13.3198 29.8695 13.3198C30.3251 13.3198 30.7837 13.3464 31.2331 13.2629C31.2331 11.3897 32.3258 9.85123 34.074 9.16788C34.4915 9.0047 34.9566 9.07044 35.3809 8.94476C35.419 9.51186 35.7892 9.54811 36.234 9.34589C36.683 9.1418 37.5496 8.64981 37.5675 8.09248C37.5771 7.79476 37.3362 7.53778 37.1394 7.3442C36.8442 7.05382 36.583 6.75143 36.2331 6.52218C35.8554 6.27467 35.5208 6.36769 35.4945 6.84248Z" fill="#6F9F77"/>
<path d="M39.1877 15.138C38.7471 14.9083 38.4479 15.09 38.4128 15.5925C38.3767 16.1111 38.4434 17.0462 38.8573 17.419C39.057 17.5989 39.3215 17.5051 39.5382 17.4195C39.9649 17.251 40.415 17.2127 40.8345 17.0167C41.0096 16.9349 41.2276 16.8236 41.2599 16.6099C41.2964 16.3697 41.0406 16.209 41.0815 15.974C41.1214 15.7452 41.2742 15.5277 41.3495 15.3084C41.4974 14.8781 41.6493 14.3952 41.7195 13.9448C41.849 13.114 41.698 12.3428 41.47 11.5576C41.2451 10.7828 40.967 10.0521 40.4541 9.40897C39.9957 8.83426 39.4547 8.38409 38.8467 7.97608C38.6554 7.84767 38.3221 7.60085 38.1186 7.83386C37.8674 8.1217 37.6692 8.59613 37.5167 8.94477C37.4602 9.07409 37.3714 9.23028 37.4242 9.37431C37.5225 9.64255 37.9285 9.76613 38.1269 9.95437C38.6288 10.4305 39.0855 10.9594 39.3396 11.6152C39.8166 12.8466 39.5319 13.9337 39.1877 15.138Z" fill="#6F9F77"/>
<path d="M59.074 8.57203C58.1507 8.71743 57.2085 9.06845 56.4775 9.66396C56.1168 9.95771 55.7676 10.4423 55.8751 10.9334C55.9731 11.3812 56.3981 11.4263 56.6463 11.7474C56.8955 12.0696 56.9828 12.7532 56.9533 13.1494C56.9136 13.6816 56.8047 14.209 56.7542 14.7403C56.7079 15.2258 56.7445 15.73 56.7445 16.2175C56.7445 16.935 56.7594 17.602 57.2138 18.2059C58.0627 19.334 59.8405 19.51 61.1195 19.1507C61.507 19.0419 61.9047 18.725 62.3127 18.7037C62.9428 18.6709 63.1803 19.5537 63.9036 19.3547C64.9968 19.0541 65.7792 17.7946 65.9729 16.7289C66.0206 16.4691 66.0956 16.1992 66.0479 15.9334C65.9593 15.4441 65.4456 15.1887 65.2667 14.7403C65.0951 14.3097 65.2149 13.7687 65.2576 13.3198C65.2809 13.0736 65.2587 12.8272 65.2911 12.5812C65.3968 11.7861 65.4735 10.9895 65.5678 10.1948C65.6297 9.66953 65.6201 9.05504 65.0917 8.75584C64.6848 8.52561 64.115 8.57305 63.6763 8.66731C62.686 8.87998 61.5223 9.41243 61.4661 10.5925C61.4428 11.0906 61.8053 11.3644 61.9809 11.7857C62.1144 12.1055 62.1087 12.5259 62.0757 12.8653C62.0059 13.589 61.5723 14.2448 60.7786 14.1661C60.1263 14.1015 59.7434 13.4098 59.7473 12.8084C59.7507 12.3 59.886 11.7746 59.9689 11.2744C60.0445 10.8217 60.0712 10.3653 60.1382 9.91072C60.1894 9.56316 60.3649 9.03106 60.1218 8.72595C59.9064 8.45595 59.378 8.52419 59.074 8.57203ZM89.0172 8.57345C88.5854 8.64976 88.1951 8.78254 87.8144 8.99953C86.4036 9.80402 86.353 11.5349 87.2178 12.7494C87.5968 13.2813 88.3843 13.8946 88.274 14.6266C88.2257 14.9507 87.9286 15.1926 87.5968 15.1502C87.1297 15.0906 86.5269 14.6146 86.2314 15.2525C86.0303 15.6863 86.1303 16.2214 86.211 16.6721C86.3036 17.1844 86.4337 17.6511 86.7417 18.0829C87.6627 19.3736 89.6456 19.4804 91.0627 19.1651C92.1121 18.9315 93.1678 17.9321 93.461 16.8994C93.5672 16.5261 93.5365 16.087 93.511 15.7062C93.4422 14.6743 93.1354 13.7058 92.3127 13.0038C91.7036 12.4844 90.9894 12.1201 90.3314 11.6719C90.0848 11.5038 89.7252 11.2036 89.7121 10.8766C89.6985 10.5424 90.1292 10.221 90.428 10.4075C90.928 10.7197 91.0422 11.4119 91.574 11.6812C92.2956 12.0465 93.3093 11.6021 93.0172 10.7062C92.4985 9.11396 90.5792 8.29748 89.0172 8.57345Z" fill="#6F9F77"/>
<path d="M81.0623 8.6848C80.7788 8.72201 80.4919 8.69429 80.21 8.73457C79.368 8.85491 78.4106 9.20627 77.8413 9.859C77.3998 10.3651 77.0464 11.8421 78.0515 11.977C78.56 12.0451 79.0606 11.8585 79.3635 11.4425C79.6572 11.0395 79.926 10.3342 80.4941 10.2712C81.1123 10.2028 81.2561 10.9531 81.2407 11.4207C81.2146 12.194 80.3635 12.1793 79.8123 12.3592C78.9089 12.654 78.0356 13.2433 77.4595 14.0017C76.2811 15.552 76.2231 18.4 78.4487 19.0827C79.2987 19.3434 80.0044 18.7937 80.835 18.8985C81.1714 18.9409 81.4771 19.1563 81.801 19.2568C82.2447 19.3946 82.6515 19.3929 83.1078 19.3255C83.4708 19.2718 83.8595 19.1762 84.1873 19.0115C84.464 18.8725 84.7305 18.7349 84.9566 18.5181C85.5708 17.9285 85.5135 17.2412 85.2828 16.5016C85.001 15.5972 84.4958 14.7092 84.3271 13.7743C84.2004 13.0691 84.1958 12.2738 84.1873 11.5584C84.1737 10.4143 84.0731 9.25838 82.8237 8.84281C82.5748 8.76014 82.3453 8.72798 82.085 8.71531C81.7373 8.69838 81.4123 8.63883 81.0623 8.6848ZM106.176 8.6848C105.892 8.72207 105.607 8.69713 105.324 8.73395C104.45 8.84781 103.452 9.22457 102.877 9.91292C102.455 10.4186 102.162 11.8141 103.108 11.9668C103.779 12.0752 104.242 11.7504 104.603 11.2175C104.85 10.8527 105.106 10.3005 105.608 10.2648C106.258 10.2186 106.301 10.9619 106.298 11.4207C106.293 12.2268 105.444 12.1654 104.869 12.3677C103.953 12.6903 103.077 13.2708 102.499 14.0584C101.494 15.4299 101.316 17.4524 102.71 18.6434C102.941 18.8403 103.218 18.9789 103.506 19.0727C104.37 19.355 105.099 18.7855 105.949 18.8987C106.283 18.9433 106.591 19.1647 106.915 19.266C107.353 19.4034 107.77 19.3912 108.221 19.3255C109.127 19.1935 110.241 18.715 110.515 17.7516C110.662 17.2347 110.454 16.803 110.288 16.3312C110.059 15.6766 109.768 15.011 109.587 14.3425C109.465 13.8946 109.338 13.4444 109.306 12.9789C109.267 12.4175 109.244 11.8366 109.244 11.2743C109.244 10.6376 109.256 9.93809 108.82 9.41576C108.583 9.13145 108.277 8.98275 107.937 8.85531C107.687 8.76139 107.463 8.72821 107.199 8.71531C106.851 8.69838 106.526 8.63883 106.176 8.6848Z" fill="#6F9F77"/>
<path d="M24.7559 9.25311C24.1819 9.33533 23.62 9.46078 23.1081 9.74209C20.731 11.0484 20.004 14.4569 20.7572 16.8992C21.4538 19.1582 23.7252 20.4307 26.0059 19.8194C27.3417 19.4613 28.463 18.33 28.6522 16.9561C28.7289 16.3996 28.7821 15.7711 28.2783 15.3933C27.3609 14.7053 26.7002 15.5515 25.7786 15.6395C25.0585 15.7083 24.5984 15.2403 24.2075 14.6996C24.0307 14.455 23.9262 14.1345 23.9097 13.8311C23.8737 13.1674 24.3281 12.2301 24.9834 11.9995C26.0835 11.6123 26.7657 13.5209 27.8142 12.8209C28.6232 12.2807 28.3712 10.8969 27.8514 10.2524C27.1683 9.40527 25.796 9.10413 24.7559 9.25311Z" fill="#6F9F77"/>
<path d="M31.574 18.2061C31.9917 18.3196 32.3284 18.6503 32.7155 18.8331C33.2514 19.0862 33.8282 19.1357 34.3822 19.3024C35.4278 19.6168 36.6059 19.2634 37.5968 18.9383C37.8615 18.8513 38.0468 18.749 38.2834 18.6054C38.3886 18.5416 38.5385 18.4949 38.5778 18.3638C38.6629 18.0804 38.2687 17.699 38.1478 17.4675C38.038 17.2571 37.9194 16.9647 37.7247 16.8159C37.5946 16.7166 37.4807 16.7934 37.3532 16.8524C37.1042 16.9678 36.8364 17.0901 36.574 17.1709C35.8671 17.3887 34.8268 17.3691 34.1309 17.1257C33.4707 16.8949 32.963 16.5455 32.4678 16.0617C32.2851 15.8832 32.074 15.7242 31.9717 15.4791C31.8807 15.2613 32.0698 15.158 32.1165 14.9624C32.1753 14.7163 31.9614 14.4866 31.7755 14.3537C31.3959 14.0827 30.8467 13.8729 30.3809 13.8364C30.178 13.8205 29.9448 13.822 29.7927 13.9773C29.578 14.1965 29.5768 14.5711 29.5166 14.8538C29.4332 15.2455 29.1759 15.7567 29.3435 16.1573C29.485 16.4956 29.8358 16.2745 30.0619 16.4628C30.195 16.5736 30.2616 16.7522 30.36 16.8904C30.5269 17.1249 30.7359 17.3425 30.9323 17.5521C31.1446 17.7787 31.4346 17.9244 31.574 18.2061Z" fill="#6F9F77"/>
<path d="M60.6082 31.4449C60.5758 31.779 60.2644 32.0362 60.0729 32.2974C59.6513 32.8717 59.2877 33.4873 58.8843 34.0748C58.0219 35.3295 57.2103 36.6857 56.5095 38.0366C56.2447 38.5471 56.0007 39.0727 55.738 39.5861C55.6238 39.8092 55.541 40.0598 55.3809 40.2517C55.3235 40.7287 54.988 41.1819 54.8084 41.625C54.3372 42.7879 53.8742 43.9952 53.4975 45.1949C53.4508 45.3435 53.4641 45.4993 53.4269 45.6494C53.2845 46.2253 53.1008 46.7689 52.9925 47.354C52.8062 48.3604 52.5141 49.3416 52.386 50.3653C52.332 50.7967 52.3725 51.2343 52.3084 51.6721C52.1569 52.7075 52.3126 53.7599 52.3127 54.7971C52.3127 55.1178 52.2187 55.7059 52.4832 55.9335C52.3621 56.6941 52.687 57.5289 52.8385 58.2631C53.3783 60.8795 54.7229 63.3108 56.3317 65.4244C56.7874 66.0233 57.3262 66.5278 57.8241 67.0937C58.0437 67.3437 58.2803 67.6937 58.6195 67.7517C58.7735 68.0256 59.0979 68.225 59.3337 68.4335C59.8445 68.8852 60.3826 69.2682 60.9491 69.6454C61.3047 69.8818 61.7383 70.1091 62.0286 70.4221C62.3451 70.4682 62.6059 70.6966 62.8809 70.8528C63.3491 71.1182 63.807 71.329 64.2962 71.55C64.507 71.6449 64.9008 71.7983 64.9979 72.0204C65.1025 72.2608 65.0076 72.5596 64.9985 72.8085C64.9826 73.2193 64.9883 73.6454 64.9832 74.0585C64.9775 74.5352 65.0422 75.0023 65.04 75.479C65.0343 76.6511 64.9832 77.8221 64.9832 79.0017C64.3957 79.0017 63.8047 79.0648 63.2218 78.9915C62.9638 78.9585 62.7354 78.8284 62.4832 78.7744C62.5797 77.5517 63.1934 76.1511 62.5655 74.9727C62.2121 74.3091 61.5991 73.5863 60.9491 73.2034C59.7701 72.5085 58.0462 72.479 56.7445 72.775C56.3448 72.8653 55.9511 72.8994 55.5513 73.0119C55.35 73.0687 55.1682 73.0886 55.04 73.2631L54.8695 73.2062C54.5522 73.4665 54.0428 73.5238 53.6763 73.7295C52.4352 74.4255 51.2047 75.2642 50.3908 76.4699C49.8997 77.1971 49.7507 78.125 49.5127 78.9449C49.4443 79.1807 49.4893 79.7062 49.2767 79.8523C49.1588 79.9335 48.9818 79.9102 48.8468 79.9108C48.5606 79.9119 48.2805 79.9471 47.9945 79.9409C46.9725 79.9187 45.9443 80.0273 44.9263 79.9108C44.6608 80.042 44.2558 79.9676 43.9604 79.9676H41.9718C40.2129 79.9625 38.4488 80.0727 36.6877 80.0812C35.9783 80.0846 35.2313 80.2483 34.5286 80.0812C34.2154 80.317 33.793 80.0733 33.4676 80.3846C32.7579 81.0648 33.0989 82.3579 34.1309 82.4085C34.9812 82.45 35.8397 82.3756 36.6877 82.3545C37.0327 82.3466 37.3677 82.4102 37.7104 82.4102C38.7502 82.4102 39.7945 82.354 40.8354 82.354C41.6338 82.354 42.4236 82.2381 43.2218 82.354V82.2403C43.8683 82.3943 44.5574 82.2579 45.2104 82.2506C45.626 82.2454 46.0448 82.3113 46.4604 82.2949C47.3284 82.2608 48.2051 82.1835 49.0741 82.1835C49.5151 82.1835 49.9424 82.1636 50.3809 82.1318C50.6805 82.1096 50.9274 82.1119 51.1476 81.8801C51.7537 81.2415 51.3907 80.2432 51.6769 79.4562C51.8421 79.0023 51.9699 78.4471 52.2205 78.0358C52.876 76.9596 53.9084 76.2801 54.9994 75.7346C55.5952 75.4369 56.2958 75.1483 56.9718 75.1381C57.2636 74.9085 57.698 74.9676 58.0513 74.9676C58.9741 74.9676 60.0076 75.0216 60.4002 76.0471C60.6349 76.6596 60.3053 77.4307 60.2002 78.0358C60.1638 78.2471 60.2047 78.4488 60.2099 78.6608C60.2184 79.017 60.2059 79.3869 60.3229 79.7307C60.4996 80.2483 61.1008 80.7108 61.5741 80.9432C62.4576 81.3773 63.2951 81.3221 64.2445 81.2801C64.844 81.254 65.4599 81.2898 66.0627 81.275C69.265 81.1966 72.4621 81.0523 75.665 81.0471C76.3161 81.046 77.0025 81.0301 77.6536 80.9852C78.507 80.9267 79.5371 80.8227 80.1888 81.5187C80.486 81.8358 80.603 82.2886 80.7229 82.6949C81.0962 83.9602 80.0604 85.3335 78.7332 85.3011C77.2729 85.2659 75.8178 85.1738 74.3582 85.1545C73.9962 85.15 73.6388 85.0903 73.2786 85.0818C73.1462 85.079 72.9678 85.0591 72.853 85.1398C72.6877 85.2557 72.6332 85.5801 72.5826 85.7631C72.4326 86.3 72.2479 86.8534 72.1991 87.4108C73.4718 87.4142 74.7343 87.5096 76.0059 87.5176C76.6707 87.5216 77.4809 87.4454 78.103 87.725C78.4309 87.8721 78.953 88.3716 79.0496 88.7176C79.1235 88.9846 79.0763 89.2966 79.0741 89.5699C79.0729 89.7909 79.1224 90.0596 79.0343 90.2682C78.8099 90.8 78.2741 91.2591 77.765 91.5119C76.9121 91.9363 75.8496 91.8886 74.9263 91.8994C73.7161 91.9142 72.5047 91.9562 71.29 91.9562C71.2763 92.2682 71.182 92.5585 71.1366 92.8653C71.0644 93.354 71.0638 93.8494 71.0627 94.3426C71.5803 94.1886 72.1746 94.3176 72.7104 94.2807C74.1218 94.1841 75.6559 93.9676 76.9718 94.6045C77.407 94.8153 77.8945 95.2562 77.9553 95.7631C77.9894 96.0443 77.8792 96.3386 77.8405 96.6153C77.7815 97.0318 77.7394 97.3829 77.4155 97.6903C76.7758 98.2971 75.7144 98.4943 74.8695 98.5523C73.565 98.642 72.253 98.6148 70.9491 98.7176C71.0434 99.4642 71.0303 100.239 71.0627 100.99C72.2082 100.845 73.3775 100.951 74.5286 100.872C75.0627 100.835 75.8263 100.673 76.3417 100.86C77.1047 101.137 77.5218 102.565 77.1934 103.253C77.0184 103.622 76.7758 103.991 76.4928 104.285C76.3735 104.409 76.2218 104.493 76.1195 104.627C75.565 104.59 75.0065 104.881 74.4718 104.989C73.9269 105.098 73.2672 105.067 72.7104 105.081C71.8178 105.102 70.9303 105.045 70.04 105.025C69.7536 105.019 69.4724 105.092 69.1877 105.076C68.9201 105.061 68.6604 104.981 68.3922 104.97C68.1246 104.958 67.861 105.027 67.5968 105.012C67.1985 104.991 66.8042 104.893 66.4036 104.879C65.6479 104.852 64.8871 104.885 64.1309 104.852C63.336 104.817 62.54 104.72 61.7445 104.686C61.1144 104.658 60.4974 104.693 59.8695 104.618C58.9536 104.508 58.0047 104.606 57.0854 104.567C56.7949 104.555 56.5228 104.429 56.2332 104.405C55.9854 104.385 55.7399 104.448 55.4945 104.426C55.1049 104.392 54.7406 104.244 54.3582 104.189C53.5699 104.078 52.7822 103.981 52.0286 103.707C51.6584 103.572 51.3383 103.333 51.0008 103.136C50.643 102.927 50.2422 102.792 49.8936 102.571C49.2702 102.175 48.7108 101.677 48.0513 101.339C47.6551 101.136 47.2222 101.24 46.8013 101.269C46.3865 101.298 45.9669 101.265 45.5513 101.275C45.3226 101.281 45.0989 101.338 44.8695 101.326C43.7472 101.266 42.6385 101.306 41.5172 101.328C41.178 101.335 40.8359 101.274 40.4945 101.274C39.6433 101.276 38.7901 101.321 37.9377 101.331C37.3745 101.337 36.7916 101.403 36.2332 101.386C35.6297 101.367 35.0071 101.251 34.415 101.444C33.3806 101.782 33.544 103.166 34.4172 103.577C34.7212 103.719 35.0592 103.606 35.3809 103.604C35.7243 103.602 36.0617 103.666 36.4036 103.66C36.7659 103.653 37.1177 103.591 37.4832 103.606C39.6403 103.698 41.8013 103.601 43.9604 103.548C44.3597 103.538 44.7562 103.598 45.1536 103.594C45.6461 103.589 46.1344 103.52 46.6309 103.552C46.849 103.566 47.1046 103.568 47.3076 103.655C47.7062 103.824 48.0203 104.195 48.3973 104.411C49.1469 104.839 49.9078 105.276 50.6812 105.645C51.1575 105.872 51.6751 106.132 52.1991 106.226C53.6302 106.482 55.068 106.731 56.5172 106.837C56.9156 106.866 57.3162 106.787 57.7104 106.811C58.0701 106.833 58.428 106.927 58.79 106.951C59.5638 107.003 60.3451 106.964 61.1195 106.982C61.5758 106.993 62.028 107.091 62.4832 107.115C63.2741 107.157 64.0792 107.098 64.8695 107.129C65.1741 107.141 65.4746 107.216 65.7786 107.235C66.5008 107.281 67.2371 107.26 67.9616 107.29C68.4275 107.31 68.8917 107.386 69.3582 107.405C69.5496 107.412 69.7354 107.357 69.9263 107.361C71.0815 107.386 72.2366 107.35 73.3922 107.299C73.8263 107.28 74.2661 107.329 74.6991 107.287C75.8445 107.178 77.1155 106.822 78.0343 106.112C78.2462 105.948 78.3479 105.728 78.5133 105.526C79.265 104.61 79.7246 103.632 79.578 102.416C79.5116 101.864 79.4013 101.239 79.1496 100.732C78.9559 100.344 78.6224 100.02 78.4491 99.6267C78.9275 99.413 79.1661 99.0136 79.436 98.5943C80.2388 97.3471 80.5445 95.75 79.9644 94.3449C79.7474 93.8199 79.282 93.4858 78.9604 93.0358C79.5491 92.8403 80.0633 92.2858 80.4241 91.8C81.1104 90.875 81.561 89.7829 81.3917 88.604C81.3144 88.0676 81.069 87.5523 80.8354 87.0699C81.2059 87.0113 81.4241 86.788 81.6922 86.5437C82.1405 86.1352 82.5769 85.6562 82.7957 85.0812C82.8519 84.9329 82.8462 84.7773 82.8917 84.6267C83.2763 83.3483 83.0957 82.0562 82.5207 80.8602C82.3252 80.4545 82.1241 80.0693 81.7962 79.75C81.4593 79.4221 81.0303 79.2233 80.6082 79.0278C80.3508 78.9085 80.0939 78.7466 79.8127 78.6909C79.0939 78.5494 78.3172 78.6631 77.5968 78.7125C76.8326 78.7648 76.0354 78.7176 75.2672 78.7176C74.9025 78.7176 74.5502 78.7312 74.1877 78.7648C74.04 78.7784 73.8326 78.8 73.7184 78.6835C73.6002 78.5619 73.6252 78.3608 73.6099 78.2062C73.5638 77.7494 73.5769 77.3011 73.5599 76.8426C73.5485 76.5545 73.4701 76.2773 73.4536 75.9903C73.3724 74.5784 73.3354 73.1432 73.3354 71.729C73.4195 71.7852 73.4036 71.7858 73.5059 71.7858C73.7434 71.5358 74.1121 71.5153 74.3013 71.2176C74.5803 71.2131 74.8667 71.0005 75.1065 70.8602C75.4633 70.6517 75.8246 70.4613 76.1775 70.246C77.4019 69.4983 78.5246 68.6557 79.586 67.6949C80.1508 67.1841 80.7422 66.6716 81.2144 66.071C81.5621 65.629 81.9292 65.204 82.2905 64.7733C82.4627 64.5682 82.6814 64.3329 82.6536 64.0585C83.0417 63.8113 83.2388 63.2613 83.4797 62.8818C83.8712 62.2653 84.2377 61.5596 84.4991 60.8767C84.5701 60.6903 84.5883 60.4932 84.6678 60.3085C84.9439 59.6665 85.3326 58.8659 85.2672 58.1494C85.5178 57.9725 85.5587 57.3146 85.6189 57.0131C85.8462 55.8741 85.8695 54.6979 85.8678 53.5471C85.8672 53.1324 85.9536 52.709 85.9417 52.2971C85.9366 52.1227 85.8724 51.9586 85.8576 51.7858C85.7888 50.9873 85.7638 50.1904 85.64 49.3994C85.3451 47.5094 84.794 45.668 84.2184 43.8475C84.1485 43.6267 84.015 43.4232 83.932 43.2062C83.6593 42.4974 83.3854 41.7926 83.0883 41.104C82.9053 40.6808 82.6599 40.3213 82.5968 39.854C82.1286 39.5717 82.1689 38.8076 81.7445 38.4903C81.8133 38.2834 81.5502 38.0036 81.4036 37.8085C81.2814 37.6454 81.282 37.3985 81.1763 37.2403L81.0627 37.1835C80.9849 36.9108 80.6854 36.5912 80.7218 36.4449C80.4871 36.2448 80.1854 35.8517 80.1536 35.5358C79.6099 34.9716 79.2741 34.1575 78.8093 33.5231C78.6292 33.2771 78.5053 33.004 78.2218 32.8653C78.1934 32.5522 77.8582 32.0789 77.5968 31.8994C77.5434 31.5423 77.2224 31.3423 77.003 31.0782C76.7576 30.7827 76.532 30.4371 76.3093 30.1218C75.9116 29.5575 75.4366 29.0527 74.9951 28.5228C74.5689 28.012 74.1792 27.4415 73.7235 26.9591C73.065 26.262 72.3451 25.5954 71.8013 24.7971C71.1559 24.6234 70.932 23.6779 70.2672 23.4903C70.2241 23.2108 70.061 23.0768 69.8366 22.9165C69.6894 22.8109 69.5269 22.7247 69.3582 22.6579C68.4593 22.3023 67.7769 23.1545 67.2042 23.7079C66.8508 24.0491 66.5729 24.4221 66.2394 24.7744C64.79 26.3077 63.4678 27.9211 62.1019 29.5293C61.5854 30.137 61.2371 30.9367 60.6082 31.4449Z" fill="#6F9F77"/>
<path d="M68.9036 25.3083C68.6223 25.6267 68.1763 25.8832 68.1081 26.3311C67.8371 26.4192 67.6252 26.7024 67.4337 26.9089C67.0553 27.3165 66.7036 27.7248 66.3462 28.149C65.4587 29.2009 64.5416 30.2187 63.6968 31.3061C63.2166 31.9248 62.8331 32.6657 62.2559 33.2061C62.211 33.4656 62.0076 33.6677 61.8513 33.8739C61.6138 34.1869 61.3877 34.5186 61.1797 34.8516C60.3939 36.1095 59.5843 37.3436 58.8911 38.6606C58.6394 39.1391 58.0962 39.7559 58.1081 40.3083C57.9457 40.4298 57.8837 40.6351 57.7915 40.8147C57.5984 41.1906 57.3952 41.5612 57.2442 41.9561C57.0595 42.4393 56.8074 42.8961 56.6238 43.3787C56.3405 44.1235 56.1084 44.8915 55.8808 45.6493C55.5976 46.5921 55.2836 47.526 55.0691 48.4902C54.774 49.8169 54.6494 51.2273 54.6164 52.5811C54.6053 53.0314 54.5179 53.4964 54.5319 53.9447C54.538 54.1403 54.6183 54.3193 54.6363 54.5129C54.7327 55.5497 54.8122 56.5626 55.0592 57.5811C55.8232 60.7299 57.5045 63.3941 59.7422 65.7015C59.9899 65.9566 60.2689 66.1169 60.5348 66.3413C60.949 66.6907 61.3365 67.0754 61.7774 67.393C62.7843 68.118 63.8899 68.7493 64.9831 69.3328C65.4547 69.5851 65.9723 69.7726 66.4604 69.9953C66.824 70.1612 67.153 70.3504 67.2559 70.7629L67.3695 70.7061C67.3695 72.5618 67.2661 74.4174 67.2661 76.2743C67.2661 77.1601 67.3127 78.0549 67.3127 78.9447C67.8371 78.8476 68.3729 78.8998 68.9036 78.8873C69.7172 78.8669 70.5291 78.8311 71.3468 78.8311C71.3468 77.9362 71.2644 77.0441 71.182 76.1606C71.1439 75.747 71.1922 75.3254 71.174 74.9106C71.1485 74.3231 71.086 73.7373 71.0604 73.1493C71.0371 72.6208 71.0303 72.0873 71.0036 71.5583C70.9905 71.3015 70.9138 71.0754 70.9939 70.8197C71.2184 70.1015 72.0757 69.6612 72.7672 69.5129C72.7672 69.3385 73.0184 69.3169 73.1649 69.2385C73.5019 69.0578 74.086 68.9174 74.2445 68.547C74.6218 68.5544 74.953 68.2481 75.2672 68.0612C76.1263 67.5487 77.0507 66.8913 77.7559 66.1851C78.311 65.6299 78.9394 65.1555 79.4502 64.5532C79.5877 64.3919 79.6706 64.201 79.799 64.0362C80.1502 63.5851 80.5735 63.1868 80.8848 62.6947C81.0201 62.4811 81.1007 62.2385 81.2337 62.0226C81.478 61.6265 81.7666 61.2254 81.9621 60.8027C82.2916 60.0879 82.5235 59.3453 82.7644 58.6038C82.9808 57.9379 83.1002 57.2935 83.2604 56.6152C83.3547 56.2147 83.5098 55.7743 83.3922 55.3652C83.5462 55.2305 83.5104 54.9932 83.5388 54.797C83.6246 54.199 83.6053 53.6362 83.5678 53.0356C83.5536 52.806 83.6104 52.5812 83.5979 52.3538C83.586 52.1247 83.5184 51.9019 83.5081 51.672C83.4911 51.2841 83.5382 50.8601 83.4695 50.4788C83.428 50.2496 83.3149 50.0409 83.2814 49.8066C83.2257 49.4152 83.2252 48.9993 83.1502 48.6135C83.0354 48.023 82.6695 47.4026 82.7104 46.7856C82.4326 46.4329 82.4183 45.8942 82.2683 45.4789C81.9308 44.5437 81.5882 43.6175 81.2166 42.6947C81.1093 42.4269 81.0195 42.1301 80.8865 41.8752C80.7666 41.646 80.6076 41.4849 80.6081 41.2174C80.3041 40.878 80.2019 40.4121 79.9763 40.0243C79.4399 39.1019 78.9661 38.154 78.4138 37.2402C77.8172 36.2524 77.1786 35.2857 76.5081 34.3475C76.2894 34.0414 76.0996 33.717 75.8831 33.4115C75.7121 33.1695 75.4899 32.9729 75.3808 32.6947C75.078 32.6571 74.8524 32.0286 74.674 31.7982C73.9979 30.9277 73.2394 30.1368 72.5587 29.273C72.3655 29.0277 72.0746 28.4318 71.7445 28.4333C71.6098 28.0865 71.3104 27.8893 71.0843 27.605C70.4428 26.7992 69.6701 25.995 68.9036 25.3083Z" fill="#F5F4F0"/>
<path d="M67.71 57.8653C67.5203 57.8145 67.3498 57.7636 67.1987 57.638C66.7981 57.6183 66.4436 57.3257 66.143 57.0793C65.3953 56.4653 64.6975 55.6247 64.4146 54.6835C64.3629 54.511 64.4129 54.347 64.4072 54.1721C64.3913 53.7075 64.2242 53.0435 63.6759 52.962C63.1504 52.884 62.5538 53.0686 62.3623 53.6039C62.297 53.7865 62.3186 53.9822 62.31 54.1721C62.2697 55.0868 62.4203 55.8236 62.8288 56.6558C63.4765 57.9736 64.5066 58.8965 65.7589 59.621C66.1146 59.8266 66.5191 60.0136 66.9146 60.1249C67.1026 60.1783 67.4242 60.1937 67.5282 60.3891C67.6663 60.6465 67.5475 61.1613 67.5401 61.4448C67.5288 61.9176 67.5521 62.3971 67.5276 62.8653C67.5004 63.396 67.3884 63.9227 67.4146 64.4562C67.4362 64.8835 67.4453 65.2948 67.7447 65.6374C68.3333 66.3107 69.6197 65.934 69.6418 65.0244L69.7555 65.0812C69.7555 63.5249 69.8913 61.9761 69.9259 60.4221L70.6078 60.3653C70.7634 60.2471 70.935 60.2499 71.1191 60.1897C71.4668 60.0755 71.8947 59.9158 72.189 59.6982C72.6634 59.3477 73.1129 58.8675 73.4384 58.3764C73.6413 58.0702 73.7771 57.6818 74.0168 57.4107C74.0095 57.0114 74.2112 56.6606 74.2748 56.2744C74.3862 55.6016 74.4083 54.8522 74.3526 54.1721C74.2259 52.6322 73.0771 51.2336 72.0612 50.18C71.6845 49.7898 71.314 49.3926 70.9061 49.0344C70.718 48.8693 70.5856 48.6911 70.3237 48.7176C70.6072 47.5303 70.4754 46.2303 70.5089 45.0244C70.522 44.5519 70.6453 44.077 70.6453 43.6039C70.6453 42.9858 70.6072 42.4022 70.7214 41.7857H70.6078C70.7259 41.2904 70.7436 40.7588 70.7782 40.2516C71.8583 40.3869 72.7879 41.4423 72.9793 42.4676C73.0799 43.0079 72.9754 43.6727 73.239 44.172C73.5765 44.8111 74.5901 44.8412 75.0748 44.3633C75.5095 43.9351 75.3237 43.4034 75.3237 42.8653C75.3231 41.1039 74.4237 39.4829 72.8805 38.5789C72.4418 38.3222 71.9987 38.1722 71.5168 38.0215C71.335 37.9646 71.0026 37.9053 70.8981 37.7278C70.7549 37.4858 70.9265 36.9969 70.9339 36.7289C70.9407 36.4649 70.8862 36.2004 70.8924 35.9335C70.9095 35.2549 71.122 34.2024 70.2504 33.917C70.0543 33.8528 69.789 33.8781 69.585 33.8905C69.1936 33.9144 68.7816 34.247 68.6674 34.6267C68.6066 34.8304 68.6805 35.0439 68.6657 35.2516C68.6231 35.8398 68.6009 36.4253 68.5663 37.0132C68.5526 37.2397 68.5754 37.7107 68.4146 37.8824C68.2475 38.0606 67.9328 38.0847 67.71 38.1436C67.4589 38.2101 67.1998 38.3281 66.9737 38.4566C65.8748 39.0815 64.8731 40.029 64.4112 41.2274C64.089 42.0626 64.1066 43.0256 64.2441 43.888C64.289 44.169 64.272 44.4643 64.3441 44.7403C64.6771 46.0044 65.4475 47.1061 66.2782 48.0903C66.6526 48.5334 67.1288 48.8495 67.5396 49.2519C67.6862 49.3956 67.9032 49.5467 67.9828 49.7411C68.0509 49.9062 67.9953 50.1336 67.9941 50.3085C67.9918 50.8225 67.9316 51.3291 67.9373 51.8426C67.9453 52.4941 67.8583 53.1252 67.8384 53.7744C67.7958 55.1371 67.7271 56.5019 67.71 57.8653Z" fill="#6F9F77"/>
<path d="M68.3351 40.4221C67.8385 40.7322 67.3226 40.9778 66.9527 41.4546C66.151 42.4877 66.4277 44.0742 67.0226 45.1309C67.3232 45.6652 67.7357 46.1314 68.1078 46.6153C68.3556 46.0254 68.2141 45.1981 68.2215 44.5698C68.2328 43.6104 68.4357 42.6252 68.3448 41.6721C68.3067 41.2719 68.4914 40.7947 68.3351 40.4221Z" fill="#F5F4F0"/>
<path d="M70.2672 51.729C70.2042 52.5596 70.2445 53.3944 70.2081 54.229C70.1519 55.5167 70.0434 56.8029 70.0399 58.0926C71.4212 57.6425 72.028 56.4124 72.0286 55.0245C72.0286 54.7671 72.0621 54.4802 71.9968 54.229C71.7593 53.3159 71.0053 52.3024 70.2672 51.729Z" fill="#F5F4F0"/>
</svg>
