<svg width="200" height="151" viewBox="0 0 200 151" fill="none" xmlns="http://www.w3.org/2000/svg">
<g id="environment/rafiki">
<g id="background-simple">
<path id="Vector" d="M84.9801 11.0651C97.0601 3.72844 112.872 9.30112 119.328 21.4888C125.052 32.3135 118.324 42.9376 114.82 53.4094C110.896 65.1401 113.832 79.8295 128.692 80.892C136.656 81.4572 144.452 76.8267 152.336 78.0856C168.976 80.7035 170.86 104.995 154.984 110.351C147.676 112.821 139.716 111.357 132.044 110.563C112.58 108.559 92.8441 111.073 73.8921 115.924C64.1121 118.429 53.6521 121.536 44.1921 118.008C36.3721 115.098 30.7241 108.038 27.2521 100.436C21.8281 88.5534 21.4401 73.1744 30.3241 63.6126C35.6201 57.9037 43.4561 55.0853 51.2041 54.4197C59.2681 53.7222 69.0481 54.3716 73.5441 47.6283C77.3041 41.9875 74.9161 34.4583 75.4721 27.699C76.1401 19.6005 79.8801 14.1602 84.9801 11.0651Z" fill="#6F9F77"/>
<path id="Vector_2" opacity="0.9" d="M84.9801 11.0651C97.0601 3.72844 112.872 9.30112 119.328 21.4888C125.052 32.3135 118.324 42.9376 114.82 53.4094C110.896 65.1401 113.832 79.8295 128.692 80.892C136.656 81.4572 144.452 76.8267 152.336 78.0856C168.976 80.7035 170.86 104.995 154.984 110.351C147.676 112.821 139.716 111.357 132.044 110.563C112.58 108.559 92.8441 111.073 73.8921 115.924C64.1121 118.429 53.6521 121.536 44.1921 118.008C36.3721 115.098 30.7241 108.038 27.2521 100.436C21.8281 88.5534 21.4401 73.1744 30.3241 63.6126C35.6201 57.9037 43.4561 55.0853 51.2041 54.4197C59.2681 53.7222 69.0481 54.3716 73.5441 47.6283C77.3041 41.9875 74.9161 34.4583 75.4721 27.699C76.1401 19.6005 79.8801 14.1602 84.9801 11.0651Z" fill="white"/>
</g>
<g id="Shadow">
<path id="path" d="M100 150.254C142.833 150.254 177.556 148.222 177.556 145.715C177.556 143.209 142.833 141.177 100 141.177C57.1671 141.177 22.4441 143.209 22.4441 145.715C22.4441 148.222 57.1671 150.254 100 150.254Z" fill="#F5F5F5"/>
</g>
<g id="plant-2">
<path id="Vector_3" d="M165.228 138.539C165.35 124.115 164.529 109.698 162.768 95.3809C160.976 81.3851 162.696 74.8542 162.696 74.8542L163.66 75.0387C163.66 75.0387 162.096 80.2866 165.228 101.852C166.897 113.858 167.848 125.954 168.076 138.074L165.228 138.539Z" fill="#6F9F77"/>
<path id="Vector_4" d="M163.7 100.048C166.318 97.5382 168.146 94.3162 168.96 90.7784H169.6C169.6 90.7784 168.184 97.7182 164.292 101.246L163.7 100.048Z" fill="#6F9F77"/>
<path id="Vector_5" d="M157.351 98.929C157.351 98.929 162.127 108.9 165.779 110.467V111.967C165.779 111.967 160.159 107.557 157.071 99.2257L157.351 98.929Z" fill="#6F9F77"/>
<path id="Vector_6" d="M162.928 89.9285C162.928 89.9285 160.732 85.0534 154.696 82.1268L154.372 82.7121C154.372 82.7121 158.976 84.2315 162.968 93.0316L162.928 89.9285Z" fill="#6F9F77"/>
<path id="Vector_7" d="M162.92 84.2155C162.92 84.2155 164.628 80.7276 170.348 77.3359L170.632 77.6125C170.632 77.6125 164.268 82.3352 162.964 87.2063L162.92 84.2155Z" fill="#6F9F77"/>
<g id="Group" opacity="0.4">
<path id="Vector_8" d="M165.228 138.539C165.351 124.115 164.529 109.698 162.768 95.3809C160.976 81.3851 162.696 74.8542 162.696 74.8542L163.66 75.0387C163.66 75.0387 162.096 80.2866 165.228 101.852C166.898 113.858 167.849 125.954 168.076 138.074L165.228 138.539Z" fill="white"/>
<path id="Vector_9" d="M163.7 100.048C166.318 97.5382 168.146 94.3162 168.96 90.7784H169.6C169.6 90.7784 168.184 97.7182 164.292 101.246L163.7 100.048Z" fill="white"/>
<path id="Vector_10" d="M157.352 98.929C157.352 98.929 162.128 108.9 165.78 110.467V111.967C165.78 111.967 160.16 107.557 157.072 99.2257L157.352 98.929Z" fill="white"/>
<path id="Vector_11" d="M162.928 89.9285C162.928 89.9285 160.732 85.0534 154.696 82.1268L154.372 82.7121C154.372 82.7121 158.976 84.2315 162.968 93.0316L162.928 89.9285Z" fill="white"/>
<path id="Vector_12" d="M162.92 84.2155C162.92 84.2155 164.628 80.7276 170.348 77.3359L170.632 77.6125C170.632 77.6125 164.268 82.3352 162.964 87.2063L162.92 84.2155Z" fill="white"/>
</g>
<path id="Vector_13" d="M164.648 70.3279C164.648 70.3279 166.648 75.0106 163.012 76.4619C163.012 76.4619 160.216 73.3428 164.648 70.3279Z" fill="#6F9F77"/>
<path id="Vector_14" opacity="0.1" d="M164.648 70.3279C164.648 70.3279 166.648 75.0106 163.012 76.4619C163.012 76.4619 160.216 73.3428 164.648 70.3279Z" fill="white"/>
<path id="Vector_15" d="M173.876 75.8325C173.876 75.8325 172.224 80.0701 169.004 78.703C169.004 78.703 169.176 74.9625 173.876 75.8325Z" fill="#6F9F77"/>
<path id="Vector_16" opacity="0.1" d="M173.876 75.8325C173.876 75.8325 172.224 80.0701 169.004 78.703C169.004 78.703 169.176 74.9625 173.876 75.8325Z" fill="white"/>
<path id="Vector_17" d="M151.676 79.3164C151.676 79.3164 155.816 79.8095 155.356 82.9927C155.356 82.9927 152 83.7064 151.676 79.3164Z" fill="#6F9F77"/>
<path id="Vector_18" opacity="0.1" d="M151.676 79.3164C151.676 79.3164 155.816 79.8095 155.356 82.9927C155.356 82.9927 152 83.7064 151.676 79.3164Z" fill="white"/>
<path id="Vector_19" d="M157.6 96.752C157.6 96.752 160.368 99.0733 158.528 101.162C158.52 101.162 155.748 100.084 157.6 96.752Z" fill="#6F9F77"/>
<path id="Vector_20" opacity="0.1" d="M157.6 96.752C157.6 96.752 160.368 99.0733 158.528 101.162C158.52 101.162 155.748 100.084 157.6 96.752Z" fill="white"/>
<path id="Vector_21" d="M173.336 88.9022C173.336 88.9022 171.784 92.8832 168.756 91.6003C168.756 91.6003 168.92 88.0883 173.336 88.9022Z" fill="#6F9F77"/>
<path id="Vector_22" opacity="0.1" d="M173.336 88.9022C173.336 88.9022 171.784 92.8832 168.756 91.6003C168.756 91.6003 168.92 88.0883 173.336 88.9022Z" fill="white"/>
<path id="Vector_23" d="M168.591 74.6217C168.591 74.6217 166.487 79.2602 162.967 77.5403C162.967 77.5403 163.387 73.3668 168.591 74.6217Z" fill="#6F9F77"/>
<path id="Vector_24" opacity="0.2" d="M168.591 74.6217C168.591 74.6217 166.487 79.2602 162.967 77.5403C162.967 77.5403 163.387 73.3668 168.591 74.6217Z" fill="white"/>
<path id="Vector_25" d="M158.247 73.3949C158.247 73.3949 163.315 73.7958 162.895 77.7047C162.895 77.7047 158.839 78.731 158.247 73.3949Z" fill="#6F9F77"/>
<path id="Vector_26" opacity="0.2" d="M158.247 73.3949C158.247 73.3949 163.315 73.7958 162.895 77.7047C162.895 77.7047 158.839 78.731 158.247 73.3949Z" fill="white"/>
<path id="Vector_27" d="M154.268 78.6108C154.268 78.6108 157.828 80.7837 156.088 83.4899C156.088 83.4778 152.74 82.7402 154.268 78.6108Z" fill="#6F9F77"/>
<path id="Vector_28" opacity="0.2" d="M154.268 78.6108C154.268 78.6108 157.828 80.7837 156.088 83.4899C156.088 83.4778 152.74 82.7402 154.268 78.6108Z" fill="white"/>
<path id="Vector_29" d="M161.399 71.7672C161.399 71.7672 165.379 74.9344 162.863 77.9452C162.863 77.9452 158.927 76.53 161.399 71.7672Z" fill="#6F9F77"/>
<path id="Vector_30" opacity="0.3" d="M161.399 71.7672C161.399 71.7672 165.379 74.9344 162.863 77.9452C162.863 77.9452 158.927 76.53 161.399 71.7672Z" fill="white"/>
<path id="Vector_31" d="M160.848 97.5338C160.848 97.5338 160.972 101.142 158.192 101.17C158.192 101.17 157.144 98.3837 160.848 97.5338Z" fill="#6F9F77"/>
<path id="Vector_32" opacity="0.2" d="M160.848 97.5338C160.848 97.5338 160.972 101.142 158.192 101.17C158.192 101.17 157.144 98.3837 160.848 97.5338Z" fill="white"/>
<path id="Vector_33" d="M153.884 100.032C153.884 100.032 157.232 98.6845 158.2 101.302C158.2 101.302 155.94 103.239 153.884 100.032Z" fill="#6F9F77"/>
<path id="Vector_34" opacity="0.2" d="M153.884 100.032C153.884 100.032 157.232 98.6845 158.2 101.302C158.2 101.302 155.94 103.239 153.884 100.032Z" fill="white"/>
<path id="Vector_35" d="M155.372 97.9988C155.372 97.9988 158.904 98.7525 158.252 101.463C158.252 101.463 155.304 101.812 155.372 97.9988Z" fill="#6F9F77"/>
<path id="Vector_36" opacity="0.3" d="M155.372 97.9988C155.372 97.9988 158.904 98.7525 158.252 101.463C158.252 101.463 155.304 101.812 155.372 97.9988Z" fill="white"/>
<path id="Vector_37" d="M151.276 83.2293C151.276 83.2293 154.716 80.8719 156.476 83.5741C156.46 83.5741 154.4 86.3243 151.276 83.2293Z" fill="#6F9F77"/>
<path id="Vector_38" opacity="0.3" d="M151.276 83.2293C151.276 83.2293 154.716 80.8719 156.476 83.5741C156.46 83.5741 154.4 86.3243 151.276 83.2293Z" fill="white"/>
<path id="Vector_39" d="M170.355 86.7814C170.355 86.7814 172.099 90.6822 169.063 91.9451C169.063 91.9451 166.679 89.3673 170.355 86.7814Z" fill="#6F9F77"/>
<path id="Vector_40" opacity="0.2" d="M170.355 86.7814C170.355 86.7814 172.099 90.6822 169.063 91.9451C169.063 91.9451 166.679 89.3673 170.355 86.7814Z" fill="white"/>
<path id="Vector_41" d="M166.596 87.3667C166.596 87.3667 170.568 88.9182 169.292 91.9531C169.292 91.9531 165.788 91.7928 166.596 87.3667Z" fill="#6F9F77"/>
<path id="Vector_42" opacity="0.3" d="M166.596 87.3667C166.596 87.3667 170.568 88.9182 169.292 91.9531C169.292 91.9531 165.788 91.7928 166.596 87.3667Z" fill="white"/>
<path id="Vector_43" d="M173.876 79.4928C173.876 79.4928 170.412 82.4355 168.224 79.7013C168.224 79.7013 170.152 76.49 173.876 79.4928Z" fill="#6F9F77"/>
<path id="Vector_44" opacity="0.2" d="M173.876 79.4928C173.876 79.4928 170.412 82.4355 168.224 79.7013C168.224 79.7013 170.152 76.49 173.876 79.4928Z" fill="white"/>
<path id="Vector_45" d="M169.852 74.6337C169.852 74.6337 171.452 78.8834 168.168 80.042C168.168 80.042 165.788 77.1595 169.852 74.6337Z" fill="#6F9F77"/>
<path id="Vector_46" opacity="0.3" d="M169.852 74.6337C169.852 74.6337 171.452 78.8834 168.168 80.042C168.168 80.042 165.788 77.1595 169.852 74.6337Z" fill="white"/>
<path id="Vector_47" d="M152.9 139.958C152.9 139.958 158.98 139.128 162.472 137.693C165.964 136.258 173.348 137.89 175.672 138.639C177.543 139.192 179.445 139.633 181.368 139.958H152.9Z" fill="#6F9F77"/>
<path id="Vector_48" opacity="0.3" d="M152.9 139.958C152.9 139.958 158.98 139.128 162.472 137.693C165.964 136.258 173.348 137.89 175.672 138.639C177.543 139.192 179.445 139.633 181.368 139.958H152.9Z" fill="white"/>
</g>
<g id="plant-1">
<path id="Vector_49" d="M33.3878 138.583C35.4646 124.314 36.6044 109.924 36.7998 95.5052C36.9158 81.3971 39.4998 75.1629 39.4998 75.1629L40.4358 75.4756C40.4358 75.4756 38.1758 80.463 38.3598 102.249C38.3921 114.372 37.6988 126.487 36.2838 138.527L33.3878 138.583Z" fill="#6F9F77"/>
<path id="Vector_50" d="M37.8318 84.5964C41.2991 83.5451 44.3834 81.4991 46.7038 78.711L47.2558 78.9917C47.2558 78.9917 42.8558 84.5403 37.8038 85.9274L37.8318 84.5964Z" fill="#6F9F77"/>
<path id="Vector_51" d="M28.4475 91.2194C28.4475 91.2194 36.4475 98.8368 36.8035 102.814L38.2235 103.275C38.2235 103.275 35.7715 96.5596 28.8195 91.0471L28.4475 91.2194Z" fill="#6F9F77"/>
<path id="Vector_52" d="M37.688 90.1129C37.688 90.1129 36.172 84.9813 30.588 81.2608L30.188 81.798C30.188 81.798 34.54 83.9309 37.308 93.1919L37.688 90.1129Z" fill="#6F9F77"/>
<path id="Vector_53" d="M37.8877 95.2486C37.8877 95.2486 40.0517 92.0413 46.1797 89.4474L46.4197 89.7561C46.4197 89.7561 39.4757 93.5688 37.5277 98.2194L37.8877 95.2486Z" fill="#6F9F77"/>
<path id="Vector_54" d="M38.0003 84.0752C38.0003 84.0752 33.8443 78.3101 33.0963 72.4487L33.4163 72.3164C33.4163 72.3164 35.0163 79.18 38.5323 81.9624L38.0003 84.0752Z" fill="#6F9F77"/>
<g id="Group_2" opacity="0.4">
<path id="Vector_55" d="M33.3886 138.583C35.4653 124.314 36.6051 109.924 36.8006 95.5052C36.9166 81.3971 39.5006 75.1629 39.5006 75.1629L40.4366 75.4756C40.4366 75.4756 38.1766 80.463 38.3606 102.249C38.3928 114.372 37.6995 126.487 36.2846 138.527L33.3886 138.583Z" fill="white"/>
<path id="Vector_56" d="M37.8326 84.5964C41.2999 83.545 44.3841 81.499 46.7046 78.711L47.2566 78.9916C47.2566 78.9916 42.8566 84.5403 37.8046 85.9274L37.8326 84.5964Z" fill="white"/>
<path id="Vector_57" d="M28.4485 91.2194C28.4485 91.2194 36.4485 98.8368 36.8045 102.814L38.2245 103.275C38.2245 103.275 35.7725 96.5596 28.8205 91.0471L28.4485 91.2194Z" fill="white"/>
<path id="Vector_58" d="M37.6878 90.1129C37.6878 90.1129 36.1718 84.9812 30.5878 81.2608L30.1878 81.798C30.1878 81.798 34.5398 83.9308 37.3078 93.1919L37.6878 90.1129Z" fill="white"/>
<path id="Vector_59" d="M37.8885 95.2486C37.8885 95.2486 40.0525 92.0413 46.1805 89.4474L46.4205 89.7561C46.4205 89.7561 39.4765 93.5688 37.5285 98.2194L37.8885 95.2486Z" fill="white"/>
<path id="Vector_60" d="M38.0001 84.0752C38.0001 84.0752 33.8441 78.3101 33.0961 72.4487L33.4161 72.3164C33.4161 72.3164 35.0161 79.18 38.5321 81.9624L38.0001 84.0752Z" fill="white"/>
</g>
<path id="Vector_61" d="M44.0313 69.4058C44.0313 69.4058 44.8633 74.4333 40.9873 74.9705C40.9873 74.9705 39.0113 71.2741 44.0313 69.4058Z" fill="#6F9F77"/>
<path id="Vector_62" opacity="0.1" d="M44.0313 69.4058C44.0313 69.4058 44.8633 74.4333 40.9873 74.9705C40.9873 74.9705 39.0113 71.2741 44.0313 69.4058Z" fill="white"/>
<path id="Vector_63" d="M49.8799 88.4331C49.8799 88.4331 47.6679 92.4062 44.6799 90.6181C44.6599 90.6181 45.3359 86.9337 49.8799 88.4331Z" fill="#6F9F77"/>
<path id="Vector_64" opacity="0.1" d="M49.8799 88.4331C49.8799 88.4331 47.6679 92.4062 44.6799 90.6181C44.6599 90.6181 45.3359 86.9337 49.8799 88.4331Z" fill="white"/>
<path id="Vector_65" d="M27.9715 78.0696C27.9715 78.0696 32.0115 79.116 31.1195 82.211C31.1195 82.211 27.6995 82.4636 27.9715 78.0696Z" fill="#6F9F77"/>
<path id="Vector_66" opacity="0.1" d="M27.9715 78.0696C27.9715 78.0696 32.0115 79.116 31.1195 82.211C31.1195 82.211 27.6995 82.4636 27.9715 78.0696Z" fill="white"/>
<path id="Vector_67" d="M26.3078 90.7785C26.3078 90.7785 27.6558 94.1341 30.2078 93.0236C30.2078 93.0236 30.0398 90.0488 26.3078 90.7785Z" fill="#6F9F77"/>
<path id="Vector_68" opacity="0.1" d="M26.3078 90.7785C26.3078 90.7785 27.6558 94.1341 30.2078 93.0236C30.2078 93.0236 30.0398 90.0488 26.3078 90.7785Z" fill="white"/>
<path id="Vector_69" d="M51.4516 79.0197C51.4516 79.0197 48.2756 81.8662 46.1516 79.3525C46.1516 79.3525 47.8796 76.2935 51.4516 79.0197Z" fill="#6F9F77"/>
<path id="Vector_70" opacity="0.1" d="M51.4516 79.0197C51.4516 79.0197 48.2756 81.8662 46.1516 79.3525C46.1516 79.3525 47.8796 76.2935 51.4516 79.0197Z" fill="white"/>
<path id="Vector_71" d="M44.9365 74.293C44.9365 74.293 42.9365 78.9676 39.3645 77.3118C39.3645 77.3118 39.7085 73.1343 44.9365 74.293Z" fill="#6F9F77"/>
<path id="Vector_72" opacity="0.2" d="M44.9365 74.293C44.9365 74.293 42.9365 78.9676 39.3645 77.3118C39.3645 77.3118 39.7085 73.1343 44.9365 74.293Z" fill="white"/>
<path id="Vector_73" d="M37.488 71.1418C37.488 71.1418 41.66 74.0564 39.336 77.2116C39.336 77.2116 35.316 76.0449 37.488 71.1418Z" fill="#6F9F77"/>
<path id="Vector_74" opacity="0.2" d="M37.488 71.1418C37.488 71.1418 41.66 74.0564 39.336 77.2116C39.336 77.2116 35.316 76.0449 37.488 71.1418Z" fill="white"/>
<path id="Vector_75" d="M30.636 77.7208C30.636 77.7208 33.872 80.3588 31.78 82.8003C31.78 82.8003 28.564 81.6016 30.636 77.7208Z" fill="#6F9F77"/>
<path id="Vector_76" opacity="0.2" d="M30.636 77.7208C30.636 77.7208 33.872 80.3588 31.78 82.8003C31.78 82.8003 28.564 81.6016 30.636 77.7208Z" fill="white"/>
<path id="Vector_77" d="M40.1201 69.8028C40.1201 69.8028 42.9561 74.0324 39.6481 76.1332C39.6481 76.1332 36.3241 73.5834 40.1201 69.8028Z" fill="#6F9F77"/>
<path id="Vector_78" opacity="0.3" d="M40.1201 69.8028C40.1201 69.8028 42.9561 74.0324 39.6481 76.1332C39.6481 76.1332 36.3241 73.5834 40.1201 69.8028Z" fill="white"/>
<path id="Vector_79" d="M26.0481 94.126C26.0481 94.126 29.4401 95.3568 30.3161 92.7148C30.3161 92.6988 28.0001 90.8546 26.0481 94.126Z" fill="#6F9F77"/>
<path id="Vector_80" opacity="0.2" d="M26.0481 94.126C26.0481 94.126 29.4401 95.3568 30.3161 92.7148C30.3161 92.6988 28.0001 90.8546 26.0481 94.126Z" fill="white"/>
<path id="Vector_81" d="M30.5643 88.2527C30.5643 88.2527 28.2563 91.035 30.4403 92.7589C30.4403 92.7589 32.9723 91.2034 30.5643 88.2527Z" fill="#6F9F77"/>
<path id="Vector_82" opacity="0.2" d="M30.5643 88.2527C30.5643 88.2527 28.2563 91.035 30.4403 92.7589C30.4403 92.7589 32.9723 91.2034 30.5643 88.2527Z" fill="white"/>
<path id="Vector_83" d="M28.1758 89.0465C28.1758 89.0465 27.7998 92.6547 30.5758 92.8632C30.5718 92.8632 31.8118 90.157 28.1758 89.0465Z" fill="#6F9F77"/>
<path id="Vector_84" opacity="0.3" d="M28.1758 89.0465C28.1758 89.0465 27.7998 92.6547 30.5758 92.8632C30.5718 92.8632 31.8118 90.157 28.1758 89.0465Z" fill="white"/>
<path id="Vector_85" d="M27.048 81.8742C27.048 81.8742 30.776 80.002 32.136 82.9206C32.136 82.9366 29.724 85.3822 27.048 81.8742Z" fill="#6F9F77"/>
<path id="Vector_86" opacity="0.3" d="M27.048 81.8742C27.048 81.8742 30.776 80.002 32.136 82.9206C32.136 82.9366 29.724 85.3822 27.048 81.8742Z" fill="white"/>
<path id="Vector_87" d="M49.7518 75.7803C49.7518 75.7803 49.5478 80.046 46.2718 79.7895C46.2718 79.8015 45.3078 76.4178 49.7518 75.7803Z" fill="#6F9F77"/>
<path id="Vector_88" opacity="0.2" d="M49.7518 75.7803C49.7518 75.7803 49.5478 80.046 46.2718 79.7895C46.2718 79.8015 45.3078 76.4178 49.7518 75.7803Z" fill="white"/>
<path id="Vector_89" d="M46.1361 74.5977C46.1361 74.5977 48.9801 77.7809 46.4721 79.9097C46.4721 79.9097 43.4201 78.1778 46.1361 74.5977Z" fill="#6F9F77"/>
<path id="Vector_90" opacity="0.3" d="M46.1361 74.5977C46.1361 74.5977 48.9801 77.7809 46.4721 79.9097C46.4721 79.9097 43.4201 78.1778 46.1361 74.5977Z" fill="white"/>
<path id="Vector_91" d="M49.3838 92.0614C49.3838 92.0614 45.5518 94.5029 43.7558 91.4961C43.7558 91.4961 46.0958 88.5815 49.3838 92.0614Z" fill="#6F9F77"/>
<path id="Vector_92" opacity="0.2" d="M49.3838 92.0614C49.3838 92.0614 45.5518 94.5029 43.7558 91.4961C43.7558 91.4961 46.0958 88.5815 49.3838 92.0614Z" fill="white"/>
<path id="Vector_93" d="M46.0518 86.6851C46.0518 86.6851 47.0798 91.1192 43.6518 91.8168C43.6518 91.8288 41.6838 88.6496 46.0518 86.6851Z" fill="#6F9F77"/>
<path id="Vector_94" opacity="0.3" d="M46.0518 86.6851C46.0518 86.6851 47.0798 91.1192 43.6518 91.8168C43.6518 91.8288 41.6838 88.6496 46.0518 86.6851Z" fill="white"/>
<path id="Vector_95" d="M33.1198 69.0209C33.1198 69.0209 35.9998 71.8514 33.7438 74.0203C33.7438 74.0203 30.7598 72.565 33.1198 69.0209Z" fill="#6F9F77"/>
<path id="Vector_96" opacity="0.1" d="M33.1198 69.0209C33.1198 69.0209 35.9998 71.8514 33.7438 74.0203C33.7438 74.0203 30.7598 72.565 33.1198 69.0209Z" fill="white"/>
<path id="Vector_97" d="M36.1042 70.3119C36.1042 70.3119 37.2802 74.1807 34.2842 75.0066C34.2842 75.0066 32.3482 72.3004 36.1042 70.3119Z" fill="#6F9F77"/>
<path id="Vector_98" opacity="0.2" d="M36.1042 70.3119C36.1042 70.3119 37.2802 74.1807 34.2842 75.0066C34.2842 75.0066 32.3482 72.3004 36.1042 70.3119Z" fill="white"/>
<path id="Vector_99" d="M30.7279 71.8915C30.7279 71.8915 34.7599 72.0639 34.5439 75.1709C34.5439 75.1709 31.3559 76.1051 30.7279 71.8915Z" fill="#6F9F77"/>
<path id="Vector_100" opacity="0.3" d="M30.7279 71.8915C30.7279 71.8915 34.7599 72.0639 34.5439 75.1709C34.5439 75.1709 31.3559 76.1051 30.7279 71.8915Z" fill="white"/>
<path id="Vector_101" d="M20.8998 139.958C20.8998 139.958 26.9798 139.128 30.4718 137.693C33.9638 136.258 41.3478 137.89 43.6718 138.639C45.5425 139.192 47.4446 139.633 49.3678 139.958H20.8998Z" fill="#6F9F77"/>
<path id="Vector_102" opacity="0.3" d="M20.8998 139.958C20.8998 139.958 26.9798 139.128 30.4718 137.693C33.9638 136.258 41.3478 137.89 43.6718 138.639C45.5425 139.192 47.4446 139.633 49.3678 139.958H20.8998Z" fill="white"/>
</g>
<g id="character-2">
<g id="group">
<path id="Vector_103" d="M110.677 103.243C110.677 103.243 109.385 110.355 108.821 112.933C108.257 115.511 97.4965 130.785 97.4965 130.785C97.4965 130.785 95.0685 134.762 95.0685 136.033C95.0685 137.304 99.1845 139.982 99.7085 139.702C100.233 139.421 101.397 133.391 101.397 133.391L100.873 131.816C100.873 131.816 111.853 117.531 112.745 115.418C113.637 113.306 115.673 104.614 115.673 104.614L110.677 103.243Z" fill="#E4897B"/>
<path id="Vector_104" d="M109.201 108.411C109.201 108.411 110.401 95.3849 111.497 93.0556C112.593 90.7263 116.797 94.1862 117.497 98.6684C118.197 103.151 114.965 111.329 114.965 111.329L109.201 108.411Z" fill="#6F9F77"/>
<path id="Vector_105" opacity="0.4" d="M117.353 103.046C116.953 105.251 116.384 107.421 115.649 109.537C115.273 110.644 114.993 111.345 114.993 111.345L109.201 108.411C109.201 108.411 110.401 95.3849 111.497 93.0556C112.593 90.7263 116.797 94.1862 117.497 98.6684C117.674 100.126 117.626 101.603 117.353 103.046Z" fill="white"/>
<path id="Vector_106" d="M108.821 107.336V109.136L115.229 112.368L116.177 110.371L108.821 107.336Z" fill="#6F9F77"/>
<path id="Vector_107" opacity="0.6" d="M108.821 107.336V109.136L115.229 112.368L116.177 110.371L108.821 107.336Z" fill="white"/>
<path id="Vector_108" opacity="0.2" d="M117.352 103.046C116.953 105.251 116.383 107.421 115.648 109.537C114.1 105.528 114.48 97.0006 114.48 97.0006L117.352 103.046Z" fill="black"/>
<path id="Vector_109" d="M142.021 141.029L136.857 141.606L132.093 142.135L132.573 138.098V138.086H132.577L132.921 138.082L136.657 138.046L140.489 138.01L142.021 141.029Z" fill="#E4897B"/>
<path id="Vector_110" opacity="0.2" d="M136.857 141.606L132.093 142.135L132.573 138.098L132.577 138.086L132.921 138.082L136.661 138.042L136.657 138.046L136.857 141.606Z" fill="black"/>
<path id="Vector_111" d="M134.701 136.53L134.337 143.378L136.089 143.154L136.129 136.334L134.701 136.53Z" fill="#6F9F77"/>
<path id="Vector_112" d="M141.505 141.141L138.909 137.894C138.867 137.841 138.844 137.775 138.844 137.707C138.844 137.64 138.867 137.574 138.909 137.521L140.861 135.087C140.945 134.984 141.067 134.918 141.2 134.904C141.333 134.891 141.465 134.931 141.569 135.015C141.597 135.039 141.623 135.066 141.645 135.095C142.469 136.158 143.017 136.975 144.073 138.303C144.721 139.104 146.765 141.51 147.673 142.616C148.581 143.723 147.581 144.773 147.113 144.396C145.021 142.697 143.161 141.646 142.041 141.462C141.828 141.427 141.636 141.312 141.505 141.141Z" fill="#263238"/>
<path id="Vector_113" opacity="0.2" d="M141.505 141.141L138.909 137.894C138.867 137.841 138.844 137.775 138.844 137.707C138.844 137.64 138.867 137.574 138.909 137.521L140.861 135.087C140.945 134.984 141.067 134.918 141.2 134.904C141.333 134.891 141.465 134.931 141.569 135.015C141.597 135.039 141.623 135.066 141.645 135.095C142.469 136.158 143.017 136.975 144.073 138.303C144.721 139.104 146.765 141.51 147.673 142.616C148.581 143.723 147.581 144.773 147.113 144.396C145.021 142.697 143.161 141.646 142.041 141.462C141.828 141.427 141.636 141.312 141.505 141.141Z" fill="black"/>
<path id="Vector_114" d="M115.876 87.0861C117.212 84.8209 120.24 82.9446 122.476 83.2173C124.712 83.4899 135.652 98.929 135.652 98.929L142.672 113.546L119.332 121.396C119.332 121.396 119.772 108.423 116.268 98.059C116.268 98.063 114.076 90.145 115.876 87.0861Z" fill="#6F9F77"/>
<path id="Vector_115" opacity="0.2" d="M115.876 87.0861C117.212 84.8209 120.24 82.9446 122.476 83.2173C124.712 83.4899 135.652 98.929 135.652 98.929L142.672 113.546L119.332 121.396C119.332 121.396 119.772 108.423 116.268 98.059C116.268 98.063 114.076 90.145 115.876 87.0861Z" fill="white"/>
<path id="Vector_116" d="M136.024 111.381L135.104 123.862C135.104 123.862 134.176 124.764 132.88 126.103C129.544 129.531 123.768 135.833 124.86 137.244C126.38 139.209 131.448 138.74 131.448 138.74L133.18 143.951L133.58 145.13L133.2 145.218C130.514 145.872 127.773 146.275 125.012 146.421C120.048 146.642 114.568 145.756 113.508 141.037C111.484 132.048 120.836 121.536 124.308 116.982C125.164 115.86 124.888 111.369 124.888 111.369L136.024 111.381Z" fill="#263238"/>
<path id="Vector_117" opacity="0.2" d="M133.2 145.218C130.514 145.872 127.773 146.274 125.012 146.421C122.639 145.336 120.636 143.577 119.252 141.361C115.06 134.382 127.876 121.448 127.876 121.448V118.421L132.8 121.472L132.88 126.103C129.544 129.531 123.768 135.833 124.86 137.244C126.38 139.209 131.448 138.74 131.448 138.74L133.18 143.951L133.2 145.218Z" fill="black"/>
<path id="Vector_118" d="M142.681 141.646C142.84 141.816 142.937 142.035 142.957 142.268C142.955 142.349 142.932 142.429 142.891 142.499C142.849 142.569 142.791 142.627 142.72 142.668C142.685 142.699 142.642 142.719 142.596 142.725C142.55 142.732 142.503 142.725 142.46 142.705C142.06 142.528 141.909 141.241 141.893 141.101C141.89 141.085 141.892 141.07 141.899 141.055C141.905 141.041 141.915 141.029 141.928 141.021C141.942 141.012 141.958 141.007 141.974 141.007C141.991 141.007 142.007 141.012 142.02 141.021C142.262 141.205 142.484 141.414 142.681 141.646ZM142.444 142.488C142.463 142.52 142.493 142.544 142.528 142.556C142.528 142.556 142.58 142.576 142.636 142.536C142.682 142.508 142.72 142.47 142.748 142.424C142.775 142.377 142.79 142.325 142.793 142.272C142.69 141.862 142.436 141.508 142.081 141.281C142.125 141.703 142.249 142.112 142.444 142.488Z" fill="#6F9F77"/>
<path id="Vector_119" d="M142.041 141.041L142.065 141.073C142.133 141.474 141.973 142.472 141.665 142.644C141.61 142.672 141.547 142.68 141.488 142.667C141.428 142.654 141.374 142.621 141.337 142.572C141.292 142.53 141.256 142.478 141.234 142.421C141.211 142.363 141.201 142.301 141.205 142.239C141.205 141.726 141.921 141.037 141.957 141.013C141.969 141.007 141.983 141.004 141.997 141.004C142.01 141.004 142.024 141.007 142.037 141.013C142.039 141.022 142.041 141.031 142.041 141.041ZM141.389 142.448L141.413 142.476C141.477 142.56 141.529 142.528 141.549 142.516C141.749 142.412 141.921 141.714 141.909 141.273C141.619 141.535 141.417 141.879 141.329 142.26C141.324 142.328 141.346 142.395 141.389 142.448Z" fill="#6F9F77"/>
<path id="Vector_120" d="M158.064 143.43L152.9 144.008L148.132 144.537L148.612 140.5L148.616 140.488H148.62H148.96L152.7 140.447L156.532 140.411L158.064 143.43Z" fill="#E4897B"/>
<path id="Vector_121" d="M157.548 143.542L154.952 140.299C154.91 140.246 154.886 140.179 154.886 140.111C154.886 140.042 154.91 139.976 154.952 139.922L156.904 137.489C156.947 137.437 156.998 137.394 157.057 137.363C157.116 137.332 157.18 137.312 157.246 137.306C157.312 137.3 157.379 137.307 157.443 137.326C157.506 137.346 157.565 137.378 157.616 137.421C157.645 137.443 157.67 137.468 157.692 137.497C158.516 138.563 159.064 139.377 160.116 140.704C160.768 141.506 162.812 143.911 163.716 145.022C164.62 146.132 163.624 147.175 163.156 146.798C161.06 145.098 159.2 144.048 158.084 143.863C157.871 143.831 157.678 143.716 157.548 143.542Z" fill="#263238"/>
<path id="Vector_122" d="M158.724 144.052C158.883 144.222 158.979 144.441 158.996 144.673C158.995 144.754 158.973 144.834 158.933 144.904C158.892 144.974 158.834 145.033 158.764 145.074C158.728 145.104 158.684 145.123 158.637 145.129C158.59 145.135 158.543 145.127 158.5 145.106C158.1 144.934 157.952 143.647 157.936 143.502C157.933 143.487 157.934 143.471 157.941 143.456C157.947 143.442 157.958 143.43 157.972 143.422C157.986 143.413 158.002 143.408 158.018 143.408C158.035 143.408 158.051 143.413 158.064 143.422C158.307 143.606 158.529 143.817 158.724 144.052ZM158.488 144.894C158.509 144.922 158.537 144.946 158.568 144.962C158.568 144.962 158.624 144.962 158.676 144.942C158.723 144.914 158.762 144.875 158.79 144.828C158.818 144.781 158.834 144.728 158.836 144.673C158.732 144.265 158.478 143.911 158.124 143.683C158.164 144.107 158.288 144.518 158.488 144.894Z" fill="#6F9F77"/>
<path id="Vector_123" d="M158.08 143.442L158.104 143.474C158.176 143.875 158.016 144.873 157.704 145.046C157.649 145.075 157.587 145.083 157.527 145.07C157.467 145.057 157.413 145.023 157.376 144.974C157.331 144.931 157.295 144.88 157.272 144.822C157.248 144.765 157.237 144.703 157.24 144.641C157.24 144.132 157.96 143.438 157.992 143.418C158.005 143.412 158.019 143.408 158.034 143.408C158.048 143.408 158.063 143.412 158.076 143.418C158.078 143.426 158.08 143.434 158.08 143.442ZM157.428 144.849L157.452 144.882C157.52 144.962 157.572 144.93 157.592 144.922C157.792 144.813 157.964 144.12 157.952 143.679C157.661 143.94 157.458 144.284 157.368 144.665C157.366 144.732 157.387 144.797 157.428 144.849Z" fill="#6F9F77"/>
<path id="Vector_124" opacity="0.2" d="M152.9 144.008L148.132 144.537L148.612 140.5L148.62 140.487H148.96L152.7 140.443V140.447L152.9 144.008Z" fill="black"/>
<path id="Vector_125" d="M132.52 110.471C131.448 115.402 120.648 138.683 127.472 144.873C132.48 149.424 151.172 145.134 151.172 145.134L151.464 139.457C151.464 139.457 136.752 139.942 135.208 138.23C133.664 136.518 142.74 123.645 144.008 120.133C146.244 113.899 143.82 110.219 143.82 110.219L132.52 110.471Z" fill="#263238"/>
<path id="Vector_126" d="M150.74 138.932L150.38 145.78L152.132 145.555L152.172 138.74L150.74 138.932Z" fill="#6F9F77"/>
<path id="Vector_127" d="M146.232 113.899L124.66 114.32C124.66 114.32 119.38 97.4456 111.736 92.6908C112.523 91.4273 113.478 90.278 114.576 89.275C116.946 87.0337 119.81 85.3853 122.936 84.4641C125.314 83.7742 127.786 83.4617 130.26 83.538C130.26 83.538 141.44 89.6599 146.232 113.899Z" fill="#6F9F77"/>
<path id="Vector_128" d="M122.477 84.7568C120.301 92.7269 116.269 88.2928 116.269 88.2928C116.405 88.04 116.469 87.754 116.453 87.4669C116.427 87.1531 116.331 86.8491 116.172 86.5772C116.014 86.3053 115.797 86.0723 115.537 85.8953C115.283 85.699 115.016 85.5208 114.737 85.3621L115.225 79.0959C115.96 80.2234 116.777 81.2954 117.669 82.3032C119.097 83.8788 120.825 85.1697 122.477 84.7568Z" fill="#E4897B"/>
<path id="Vector_129" opacity="0.2" d="M116.453 87.4869C116.427 87.1731 116.331 86.8691 116.172 86.5972C116.014 86.3253 115.797 86.0923 115.537 85.9154C115.283 85.719 115.016 85.5408 114.737 85.3822L115.225 79.1159C115.96 80.2434 116.777 81.3154 117.669 82.3232C117.793 84.436 117.569 86.5328 116.453 87.4869Z" fill="black"/>
<path id="Vector_130" d="M105.116 78.7551C105.116 78.7551 106.156 82.5397 109.172 83.1651C112.188 83.7906 108.64 75.7803 108.64 75.7803L105.116 78.7551Z" fill="#263238"/>
<path id="Vector_131" d="M117.4 83.1251C117.383 83.3081 117.356 83.49 117.32 83.6703C117.156 84.5928 116.694 85.4357 116.005 86.0694C115.317 86.7032 114.439 87.0928 113.508 87.1783C112.305 87.3116 111.097 86.9804 110.128 86.2522C109.989 86.1536 109.855 86.0465 109.728 85.9314C109.466 85.6849 109.217 85.4253 108.98 85.1537C106.98 82.8404 105.264 79.0157 107.06 76.3777C107.504 75.7218 108.107 75.1903 108.812 74.8335C109.518 74.4767 110.303 74.3065 111.093 74.3391C111.882 74.3716 112.651 74.6058 113.325 75.0194C113.999 75.433 114.556 76.0123 114.944 76.7025C116.524 79.4046 117.6 81.0123 117.4 83.1251Z" fill="#E4897B"/>
<path id="Vector_132" d="M111.2 80.3427C111.241 80.3803 111.274 80.4261 111.297 80.4772C111.319 80.5283 111.331 80.5835 111.331 80.6394C111.331 80.6953 111.319 80.7505 111.297 80.8016C111.274 80.8527 111.241 80.8985 111.2 80.9361C111.048 81.0403 110.8 80.9361 110.652 80.7035C110.504 80.471 110.496 80.2024 110.652 80.1062C110.808 80.01 111.04 80.1102 111.2 80.3427Z" fill="#263238"/>
<path id="Vector_133" d="M108.6 82.0666C108.678 82.1467 108.721 82.2538 108.721 82.3653C108.721 82.4768 108.678 82.584 108.6 82.664C108.452 82.7642 108.2 82.664 108.052 82.4275C107.904 82.1909 107.9 81.9303 108.052 81.8301C108.204 81.7299 108.456 81.8501 108.6 82.0666Z" fill="#263238"/>
<path id="Vector_134" d="M109.501 81.6337C109.694 82.5191 109.764 83.4271 109.709 84.3318C109.941 84.3393 110.173 84.2958 110.387 84.2044C110.601 84.113 110.793 83.9759 110.949 83.8026L109.501 81.6337Z" fill="#DE5753"/>
<path id="Vector_135" d="M111.444 78.9636C111.422 78.9828 111.394 78.9962 111.365 79.0025C111.336 79.0088 111.305 79.0078 111.276 78.9997C111.087 78.9275 110.884 78.9008 110.682 78.9216C110.481 78.9425 110.287 79.0104 110.116 79.1199C110.082 79.1452 110.039 79.1563 109.997 79.1511C109.955 79.1459 109.916 79.1247 109.888 79.0919C109.863 79.0572 109.852 79.0138 109.858 78.971C109.864 78.9283 109.886 78.8896 109.92 78.8634C110.132 78.7197 110.376 78.6291 110.63 78.5991C110.884 78.5692 111.141 78.6006 111.38 78.691C111.422 78.7039 111.456 78.7326 111.476 78.7709C111.497 78.8092 111.501 78.854 111.488 78.8954C111.478 78.9207 111.463 78.9439 111.444 78.9636Z" fill="#263238"/>
<path id="Vector_136" d="M106.892 81.9143C106.875 81.9418 106.848 81.9617 106.816 81.9704C106.795 81.9739 106.774 81.9732 106.754 81.9684C106.733 81.9636 106.714 81.9548 106.697 81.9425C106.68 81.9302 106.665 81.9147 106.654 81.8968C106.643 81.8789 106.636 81.8589 106.632 81.8381C106.591 81.5831 106.613 81.322 106.694 81.077C106.776 80.832 106.915 80.6104 107.1 80.4309C107.133 80.4038 107.176 80.3907 107.218 80.3945C107.261 80.3982 107.3 80.4185 107.328 80.451C107.357 80.4814 107.372 80.5215 107.372 80.5632C107.372 80.6049 107.357 80.645 107.328 80.6755C107.187 80.8215 107.081 80.9986 107.019 81.1927C106.957 81.3868 106.941 81.5927 106.972 81.794C106.97 81.8191 106.961 81.8433 106.947 81.8643C106.933 81.8853 106.914 81.9025 106.892 81.9143Z" fill="#263238"/>
<path id="Vector_137" d="M115.624 79.0679C115.936 78.9837 117.264 81.329 117.264 81.329C117.264 81.329 118.016 80.0621 117.428 77.801C116.268 73.3428 115.14 72.8738 113.828 72.8738C111.428 72.8738 110.312 76.2976 110.312 76.2976C111.012 75.6601 112.18 75.8967 112.344 76.8669C112.576 78.1939 114.184 79.5008 115.408 79.6732C115.416 79.6572 115.164 79.1761 115.624 79.0679Z" fill="#263238"/>
<path id="Vector_138" d="M117.717 78.2018C117.773 78.6212 117.745 79.0475 117.636 79.4562C117.527 79.8649 117.338 80.248 117.081 80.5832C116.389 81.4773 115.373 81.0162 115.001 80.0099C114.681 79.1119 114.629 77.5443 115.605 77.0191C116.581 76.4939 117.569 77.1635 117.717 78.2018Z" fill="#E4897B"/>
<path id="Vector_139" d="M111.497 75.5398C111.497 75.5398 110.297 77.6526 109.857 77.8651C109.417 78.0776 109.501 77.0873 109.501 77.0873C109.501 77.0873 107.949 79.0277 107.365 78.9476C106.781 78.8674 106.989 77.7047 106.989 77.7047C106.989 77.7047 105.361 80.4831 104.725 80.5111C104.089 80.5392 103.925 78.3301 105.125 76.4779C105.125 76.4779 104.325 77.9573 103.785 77.6406C103.245 77.3239 104.513 74.2569 106.985 73.2546C106.985 73.2546 106.653 73.2546 106.609 72.6212C106.565 71.9877 109.581 70.6647 111.977 71.5628C111.977 71.5628 111.157 70.7168 112.317 70.5044C113.477 70.2919 114.477 71.9316 114.477 71.9316C114.477 71.9316 114.425 71.1298 115.165 71.2982C115.905 71.4665 117.565 73.7036 117.025 76.3857L111.497 75.5398Z" fill="#263238"/>
<path id="Vector_140" opacity="0.3" d="M117.401 83.125C117.383 83.308 117.357 83.49 117.321 83.6703C117.157 84.5928 116.695 85.4356 116.006 86.0694C115.317 86.7032 114.44 87.0927 113.509 87.1783C112.306 87.3116 111.097 86.9804 110.129 86.2522C109.989 86.1536 109.856 86.0465 109.729 85.9314C109.467 85.6849 109.217 85.4253 108.981 85.1537C110.222 84.9869 111.384 84.4474 112.313 83.6061C113.421 82.6359 115.081 80.7677 113.981 78.9475C113.401 77.9934 114.857 79.5088 114.857 79.5088C114.857 79.5088 116.637 81.2728 117.401 83.125Z" fill="black"/>
<path id="Vector_141" d="M112.108 84.7447C112.47 84.5767 112.786 84.3234 113.029 84.0065C113.273 83.6895 113.436 83.3183 113.504 82.9246C113.506 82.9135 113.505 82.9023 113.503 82.8915C113.5 82.8806 113.495 82.8705 113.488 82.8615C113.482 82.8526 113.473 82.8451 113.464 82.8394C113.454 82.8337 113.443 82.83 113.432 82.8284C113.421 82.8268 113.41 82.8274 113.399 82.8302C113.389 82.8329 113.378 82.8378 113.37 82.8445C113.361 82.8512 113.353 82.8596 113.347 82.8692C113.342 82.8788 113.338 82.8895 113.336 82.9005C113.265 83.2637 113.11 83.6051 112.884 83.8974C112.657 84.1898 112.366 84.425 112.032 84.5844C112.012 84.594 111.996 84.6109 111.988 84.6318C111.98 84.6526 111.98 84.6758 111.988 84.6966C111.993 84.7065 111.999 84.7154 112.007 84.7228C112.015 84.7302 112.024 84.7359 112.034 84.7397C112.044 84.7434 112.055 84.7451 112.066 84.7446C112.076 84.7441 112.087 84.7414 112.096 84.7367L112.108 84.7447Z" fill="#263238"/>
<path id="Vector_142" d="M124.308 88.7699C124.308 88.7699 138.308 104.698 140.308 116.497L147.736 114.749C147.736 114.749 141.032 88.5293 130.26 83.558H124.308V88.7699Z" fill="#6F9F77"/>
<path id="Vector_143" opacity="0.6" d="M147.736 114.749L140.3 116.505C139.808 113.566 138.572 110.375 136.988 107.24C135.73 104.77 134.331 102.374 132.8 100.064C130.209 96.123 127.371 92.3509 124.304 88.7699V83.558H130.256C141.032 88.5213 147.736 114.749 147.736 114.749Z" fill="white"/>
<path id="Vector_144" d="M122.476 83.2213C122.476 83.2213 124.076 84.7568 124.308 88.7699H127.244C127.244 88.7699 126.82 84.3078 125.268 83.2814C124.684 82.8966 122.476 83.2213 122.476 83.2213Z" fill="#6F9F77"/>
<path id="Vector_145" opacity="0.4" d="M122.476 83.2213C122.476 83.2213 124.076 84.7568 124.308 88.7699H127.244C127.244 88.7699 126.82 84.3078 125.268 83.2814C124.684 82.8966 122.476 83.2213 122.476 83.2213Z" fill="white"/>
<path id="Vector_146" d="M116.216 92.9072C116.216 92.9072 120.756 111.173 119.332 121.4C119.332 121.4 118.268 107.841 116.268 102.926C116.268 102.926 112.364 97.4456 111.736 92.6908L114.8 88.5173C114.8 88.5173 115.152 91.2154 116.216 92.9072Z" fill="#6F9F77"/>
<path id="Vector_147" opacity="0.6" d="M116.216 92.9072C116.216 92.9072 120.756 111.173 119.332 121.4C119.332 121.4 118.268 107.841 116.268 102.926C116.268 102.926 112.364 97.4456 111.736 92.6908L114.8 88.5173C114.8 88.5173 115.152 91.2154 116.216 92.9072Z" fill="white"/>
<path id="Vector_148" d="M115.877 87.0861C115.877 87.0861 114.953 90.2052 116.217 92.9033L115.245 94.066C114.705 92.8893 114.444 91.6038 114.481 90.3094C114.481 87.8879 115.877 87.0861 115.877 87.0861Z" fill="#6F9F77"/>
<path id="Vector_149" opacity="0.4" d="M115.877 87.0861C115.877 87.0861 114.953 90.2052 116.217 92.9033L115.245 94.066C114.705 92.8893 114.444 91.6038 114.481 90.3094C114.481 87.8879 115.877 87.0861 115.877 87.0861Z" fill="white"/>
<path id="Vector_150" d="M111.677 129.082C111.451 129.408 111.259 129.758 111.105 130.124L112.501 131.8C109.639 133.771 106.424 135.168 103.033 135.913C103.589 132.662 108.821 127.895 108.821 127.895L109.837 128.945C109.837 128.945 110.029 128.612 110.381 128.067C111.541 126.284 112.882 124.625 114.381 123.116C114.475 123.023 114.589 122.951 114.715 122.907C114.84 122.863 114.973 122.847 115.105 122.861C115.238 122.874 115.365 122.916 115.479 122.985C115.593 123.053 115.69 123.146 115.765 123.256C115.88 123.431 115.933 123.64 115.913 123.849C115.894 124.058 115.803 124.253 115.657 124.403C114.178 125.826 112.845 127.393 111.677 129.082Z" fill="#263238"/>
<path id="Vector_151" opacity="0.4" d="M112.501 131.8C109.639 133.771 106.424 135.168 103.033 135.913C103.589 132.662 108.821 127.895 108.821 127.895L109.837 128.945C109.837 128.945 110.029 128.612 110.381 128.067C110.49 128.336 110.666 128.573 110.893 128.753C111.12 128.934 111.39 129.052 111.677 129.098C111.451 129.425 111.259 129.774 111.105 130.14L112.501 131.8Z" fill="white"/>
<path id="Vector_152" opacity="0.2" d="M112.501 131.8C109.639 133.771 106.424 135.168 103.033 135.913C103.589 132.662 108.821 127.895 108.821 127.895L109.837 128.945C109.837 128.945 108.837 130.148 108.637 131.17C109.542 131.062 110.4 130.706 111.117 130.14L112.501 131.8Z" fill="white"/>
<path id="Vector_153" d="M84.3688 145.715H109.201C109.201 145.715 106.109 144.809 105.353 143.931C104.597 143.053 101.909 143.386 101.121 143.378C100.333 143.37 98.7448 144.16 97.7968 143.683C96.8488 143.206 93.6008 139.702 91.4808 138.599C89.3608 137.497 88.2368 141.193 87.1288 141.923C86.0208 142.652 84.3688 145.715 84.3688 145.715Z" fill="#6F9F77"/>
<path id="Vector_154" d="M78.7643 146.922C78.7643 146.922 84.9043 143.763 86.7643 143.683C88.6243 143.603 91.1643 144.998 91.7923 145.134C92.4203 145.27 97.0163 144.837 97.9643 144.537C98.9123 144.236 102.076 145.074 103.028 144.938C103.98 144.801 106.8 142.881 107.76 142.572C108.72 142.264 116.084 146.257 116.96 146.481C117.836 146.706 119.964 146.97 119.964 146.97C119.964 146.97 112.764 147.415 111.736 147.415C110.708 147.415 109.528 148.526 105.368 148.289C101.208 148.053 99.3923 148.514 97.4163 148.321C95.4403 148.129 94.9643 147.576 92.7483 147.576C90.5323 147.576 87.6043 148.289 86.1003 147.656C84.5963 147.022 78.7643 146.922 78.7643 146.922Z" fill="#6F9F77"/>
<path id="Vector_155" opacity="0.2" d="M78.7643 146.922C78.7643 146.922 84.9043 143.763 86.7643 143.683C88.6243 143.603 91.1643 144.998 91.7923 145.134C92.4203 145.27 97.0163 144.837 97.9643 144.537C98.9123 144.236 102.076 145.074 103.028 144.938C103.98 144.801 106.8 142.881 107.76 142.572C108.72 142.264 116.084 146.257 116.96 146.481C117.836 146.706 119.964 146.97 119.964 146.97C119.964 146.97 112.764 147.415 111.736 147.415C110.708 147.415 109.528 148.526 105.368 148.289C101.208 148.053 99.3923 148.514 97.4163 148.321C95.4403 148.129 94.9643 147.576 92.7483 147.576C90.5323 147.576 87.6043 148.289 86.1003 147.656C84.5963 147.022 78.7643 146.922 78.7643 146.922Z" fill="white"/>
<path id="Vector_156" d="M96.8005 134.851C96.9165 134.899 97.0005 135.031 97.1285 135.055C97.1765 135.055 97.2325 135.055 97.2845 135.055C97.3291 135.066 97.3703 135.088 97.4045 135.119C97.4387 135.15 97.4648 135.188 97.4805 135.232C97.5046 135.322 97.5046 135.418 97.4805 135.508C97.6405 135.472 97.7645 135.508 97.8525 135.368C97.9405 135.228 97.9565 135.107 98.1365 135.083C98.1962 135.075 98.2567 135.075 98.3165 135.083C98.5097 135.094 98.6914 135.179 98.8245 135.32C98.868 135.404 98.9203 135.483 98.9805 135.556C99.1245 135.677 99.3445 135.584 99.5325 135.608C99.6157 135.625 99.6945 135.66 99.7634 135.71C99.8324 135.759 99.89 135.823 99.9325 135.897C100.021 136.027 100.081 136.175 100.108 136.33V136.663C100.117 136.799 100.098 136.935 100.052 137.064C100.004 137.176 99.9285 137.413 100.132 137.433C100.2 137.433 100.276 137.413 100.32 137.461C100.364 137.509 100.344 137.545 100.36 137.585C100.376 137.625 100.444 137.673 100.484 137.717C100.519 137.753 100.546 137.795 100.564 137.842C100.68 138.134 100.694 138.458 100.604 138.76C100.523 138.953 100.462 139.155 100.42 139.361V140.255C100.39 140.699 100.39 141.146 100.42 141.59C100.44 141.695 100.44 141.802 100.42 141.907C100.411 141.943 100.395 141.977 100.372 142.006C100.349 142.036 100.321 142.061 100.288 142.079C100.236 142.115 100.164 142.079 100.156 142.183C100.157 142.242 100.165 142.3 100.18 142.356C100.2 142.48 100.148 142.664 100.052 142.5C100.02 142.396 100.009 142.287 100.02 142.179C100.02 141.947 100.02 141.714 100.02 141.482C100.02 141.249 99.9765 141.053 99.9485 140.844C99.9441 140.773 99.9191 140.705 99.8765 140.648C99.6965 140.459 99.4525 140.884 99.4565 141.049C99.4725 141.214 99.4725 141.381 99.4565 141.546C99.3333 142.16 99.3157 142.79 99.4045 143.41C99.4045 143.494 99.4325 143.595 99.3645 143.647C99.3306 143.667 99.2917 143.676 99.2525 143.675C99.2161 143.684 99.1781 143.685 99.1414 143.677C99.1047 143.669 99.0702 143.654 99.0405 143.631C99.0062 143.583 98.9892 143.525 98.9925 143.466C99.0172 143.2 99.0172 142.931 98.9925 142.664C98.9879 142.631 98.9771 142.598 98.9605 142.568C98.9405 142.544 98.9085 142.528 98.8845 142.504C98.8543 142.463 98.8333 142.416 98.823 142.366C98.8126 142.317 98.8131 142.265 98.8245 142.215C98.8325 141.828 98.8084 141.44 98.7525 141.057C98.7492 140.971 98.7288 140.886 98.6925 140.808C98.6758 140.769 98.6486 140.735 98.6141 140.711C98.5795 140.686 98.5388 140.671 98.4965 140.668C98.3005 140.668 98.3525 140.888 98.3605 141.009C98.3705 141.074 98.3705 141.14 98.3605 141.205C98.352 141.236 98.3353 141.265 98.3121 141.287C98.2888 141.31 98.26 141.326 98.2285 141.333C98.2078 141.341 98.1851 141.341 98.1645 141.333C98.1489 141.318 98.1371 141.299 98.1302 141.278C98.1232 141.257 98.1213 141.235 98.1245 141.213V141.069C98.1286 141.05 98.1286 141.031 98.1245 141.013C98.0925 140.957 98.0045 140.977 97.9445 140.953C97.8845 140.929 97.8325 140.584 97.8085 140.488C97.7605 140.295 97.7285 140.087 97.6965 139.902C97.6675 139.563 97.6018 139.229 97.5005 138.904C97.4005 138.663 97.3485 138.407 97.2285 138.178C97.1945 138.12 97.1676 138.058 97.1485 137.994C97.1526 137.914 97.1526 137.833 97.1485 137.753C97.1245 137.661 97.0565 137.589 97.0445 137.501C97.0493 137.389 97.0869 137.282 97.1525 137.192C97.2085 137.068 97.2259 136.93 97.2023 136.797C97.1787 136.663 97.1154 136.539 97.0205 136.442C96.9285 136.35 96.8085 136.318 96.7165 136.226C96.6303 136.113 96.5309 136.01 96.4205 135.921C96.2605 135.813 96.0205 135.813 95.9365 135.632C95.9685 135.689 96.0485 135.632 96.0645 135.568C96.0805 135.504 96.1045 135.428 96.1645 135.432L96.2165 135.452C96.2912 135.489 96.3768 135.496 96.4565 135.472C96.4198 135.437 96.3927 135.393 96.378 135.345C96.3633 135.296 96.3614 135.245 96.3725 135.195C96.3951 135.096 96.4466 135.005 96.5205 134.935C96.5523 134.896 96.5927 134.865 96.6385 134.844C96.6843 134.823 96.7342 134.813 96.7845 134.815L96.8005 134.851Z" fill="#6F9F77"/>
<path id="Vector_157" opacity="0.2" d="M96.8005 134.851C96.9165 134.899 97.0005 135.031 97.1285 135.055C97.1765 135.055 97.2325 135.055 97.2845 135.055C97.3291 135.066 97.3703 135.088 97.4045 135.119C97.4387 135.15 97.4648 135.188 97.4805 135.232C97.5046 135.322 97.5046 135.418 97.4805 135.508C97.6405 135.472 97.7645 135.508 97.8525 135.368C97.9405 135.228 97.9565 135.107 98.1365 135.083C98.1962 135.075 98.2567 135.075 98.3165 135.083C98.5097 135.094 98.6914 135.179 98.8245 135.32C98.868 135.404 98.9203 135.483 98.9805 135.556C99.1245 135.677 99.3445 135.584 99.5325 135.608C99.6157 135.625 99.6945 135.66 99.7634 135.71C99.8324 135.759 99.89 135.823 99.9325 135.897C100.021 136.027 100.081 136.175 100.108 136.33V136.663C100.117 136.799 100.098 136.935 100.052 137.064C100.004 137.176 99.9285 137.413 100.132 137.433C100.2 137.433 100.276 137.413 100.32 137.461C100.364 137.509 100.344 137.545 100.36 137.585C100.376 137.625 100.444 137.673 100.484 137.717C100.519 137.753 100.546 137.795 100.564 137.842C100.68 138.134 100.694 138.458 100.604 138.76C100.523 138.953 100.462 139.155 100.42 139.361V140.255C100.39 140.699 100.39 141.146 100.42 141.59C100.44 141.695 100.44 141.802 100.42 141.907C100.411 141.943 100.395 141.977 100.372 142.006C100.349 142.036 100.321 142.061 100.288 142.079C100.236 142.115 100.164 142.079 100.156 142.183C100.157 142.242 100.165 142.3 100.18 142.356C100.2 142.48 100.148 142.664 100.052 142.5C100.02 142.396 100.009 142.287 100.02 142.179C100.02 141.947 100.02 141.714 100.02 141.482C100.02 141.249 99.9765 141.053 99.9485 140.844C99.9441 140.773 99.9191 140.705 99.8765 140.648C99.6965 140.459 99.4525 140.884 99.4565 141.049C99.4725 141.214 99.4725 141.381 99.4565 141.546C99.3333 142.16 99.3157 142.79 99.4045 143.41C99.4045 143.494 99.4325 143.595 99.3645 143.647C99.3306 143.667 99.2917 143.676 99.2525 143.675C99.2161 143.684 99.1781 143.685 99.1414 143.677C99.1047 143.669 99.0702 143.654 99.0405 143.631C99.0062 143.583 98.9892 143.525 98.9925 143.466C99.0172 143.2 99.0172 142.931 98.9925 142.664C98.9879 142.631 98.9771 142.598 98.9605 142.568C98.9405 142.544 98.9085 142.528 98.8845 142.504C98.8543 142.463 98.8333 142.416 98.823 142.366C98.8126 142.317 98.8131 142.265 98.8245 142.215C98.8325 141.828 98.8084 141.44 98.7525 141.057C98.7492 140.971 98.7288 140.886 98.6925 140.808C98.6758 140.769 98.6486 140.735 98.6141 140.711C98.5795 140.686 98.5388 140.671 98.4965 140.668C98.3005 140.668 98.3525 140.888 98.3605 141.009C98.3705 141.074 98.3705 141.14 98.3605 141.205C98.352 141.236 98.3353 141.265 98.3121 141.287C98.2888 141.31 98.26 141.326 98.2285 141.333C98.2078 141.341 98.1851 141.341 98.1645 141.333C98.1489 141.318 98.1371 141.299 98.1302 141.278C98.1232 141.257 98.1213 141.235 98.1245 141.213V141.069C98.1286 141.05 98.1286 141.031 98.1245 141.013C98.0925 140.957 98.0045 140.977 97.9445 140.953C97.8845 140.929 97.8325 140.584 97.8085 140.488C97.7605 140.295 97.7285 140.087 97.6965 139.902C97.6675 139.563 97.6018 139.229 97.5005 138.904C97.4005 138.663 97.3485 138.407 97.2285 138.178C97.1945 138.12 97.1676 138.058 97.1485 137.994C97.1526 137.914 97.1526 137.833 97.1485 137.753C97.1245 137.661 97.0565 137.589 97.0445 137.501C97.0493 137.389 97.0869 137.282 97.1525 137.192C97.2085 137.068 97.2259 136.93 97.2023 136.797C97.1787 136.663 97.1154 136.539 97.0205 136.442C96.9285 136.35 96.8085 136.318 96.7165 136.226C96.6303 136.113 96.5309 136.01 96.4205 135.921C96.2605 135.813 96.0205 135.813 95.9365 135.632C95.9685 135.689 96.0485 135.632 96.0645 135.568C96.0805 135.504 96.1045 135.428 96.1645 135.432L96.2165 135.452C96.2912 135.489 96.3768 135.496 96.4565 135.472C96.4198 135.437 96.3927 135.393 96.378 135.345C96.3633 135.296 96.3614 135.245 96.3725 135.195C96.3951 135.096 96.4466 135.005 96.5205 134.935C96.5523 134.896 96.5927 134.865 96.6385 134.844C96.6843 134.823 96.7342 134.813 96.7845 134.815L96.8005 134.851Z" fill="white"/>
<path id="Vector_158" opacity="0.2" d="M136.988 107.232C135.729 104.765 134.331 102.371 132.8 100.064L136.02 91.6645C136.02 91.6645 137.92 99.6466 136.988 107.232Z" fill="black"/>
<path id="Vector_159" d="M135.232 98.3437C135.232 98.3437 135.42 106.839 134.336 109.112C133.252 111.385 118.604 123.461 118.604 123.461C118.604 123.461 118.232 126.175 117.624 126.628C117.016 127.081 113.428 127.879 113.056 127.879C112.684 127.879 112.4 122.803 112.744 122.366C113.088 121.929 116.272 120.887 116.8 120.887C116.8 120.887 129.88 107.725 129.88 106.643C129.88 105.56 130.196 96.9846 130.196 96.9846L135.232 98.3437Z" fill="#E4897B"/>
<path id="Vector_160" d="M129.488 100.076C129.488 100.076 128.496 87.0379 129.204 84.5523C129.912 82.0666 134.62 84.7848 136.064 89.0986C137.508 93.4124 135.664 102.008 135.664 102.008L129.488 100.076Z" fill="#6F9F77"/>
<path id="Vector_161" opacity="0.4" d="M129.488 100.076C129.488 100.076 128.496 87.0379 129.204 84.5523C129.912 82.0666 134.62 84.7848 136.064 89.0986C137.508 93.4124 135.664 102.008 135.664 102.008L129.488 100.076Z" fill="white"/>
<path id="Vector_162" d="M128.921 99.0854L129.221 100.861L136.077 102.978L136.681 100.849L128.921 99.0854Z" fill="#6F9F77"/>
<path id="Vector_163" opacity="0.6" d="M128.921 99.0854L129.221 100.861L136.077 102.978L136.681 100.849L128.921 99.0854Z" fill="white"/>
</g>
</g>
<g id="character-1">
<path id="Vector_164" d="M84.5641 124.227C83.6161 124.307 81.9641 123.397 81.6521 123.18C81.3401 122.964 80.9401 121.544 80.9401 121.544C80.9401 121.544 72.5401 115.531 71.3401 113.787L71.2001 113.578C69.5081 110.92 67.6001 103.784 67.2281 102.353C67.1881 102.192 67.1641 102.104 67.1641 102.104C67.1641 102.104 67.3041 97.0728 69.5161 97.2251C71.6121 97.3695 72.6321 108.19 74.8041 111.506C75.5001 112.568 83.1001 120.057 83.5561 120.554C84.0121 121.051 87.2441 121.448 87.5561 121.921C87.8681 122.394 85.5081 124.15 84.5641 124.227Z" fill="#B97964"/>
<path id="Vector_165" opacity="0.2" d="M71.1995 113.578C69.5075 110.92 67.5995 103.784 67.2275 102.353L69.8515 97.8265C69.8515 97.8265 72.2275 107.308 71.1995 113.578Z" fill="black"/>
<path id="Vector_166" d="M55.1995 94.7034C54.8715 94.7034 54.5555 94.6633 54.2355 94.6232C50.9395 94.2022 54.5755 87.1502 62.1675 82.1308C68.5275 77.9292 74.2195 77.4722 76.4675 79.4767C76.9015 79.8538 77.2157 80.35 77.3715 80.904C78.3155 84.2797 65.5115 95.2526 55.1995 94.7034Z" fill="#6F9F77"/>
<path id="Vector_167" opacity="0.2" d="M63.3115 84.873C65.3315 83.4297 68.6835 80.9882 72.6275 81.4773C76.5715 81.9664 71.0275 87.8678 65.1875 90.8546C59.3475 93.8414 57.7115 93.5006 57.4355 92.6587C56.9715 91.2235 60.3995 86.9698 63.3115 84.873Z" fill="black"/>
<path id="Vector_168" d="M59.9197 89.0906C59.9197 89.0906 59.0517 90.7424 59.9197 93.232C59.9197 93.232 56.9277 93.9056 56.4157 96.8402C55.9037 99.7749 60.3517 99.6827 61.9237 99.1695C63.4957 98.6564 61.5237 93.6049 61.5237 93.6049C61.5237 93.6049 64.2197 91.8689 64.7517 90.2533C65.2837 88.6376 59.9197 89.0906 59.9197 89.0906Z" fill="#263238"/>
<path id="Vector_169" d="M65.1162 123.673C63.2242 127.658 48.9722 128.701 47.8722 125.87C46.7722 123.04 54.3282 112.861 54.6442 108.206C54.9602 103.552 68.0562 100.08 68.0562 100.08C68.0562 100.08 70.4002 112.548 65.1162 123.673Z" fill="#6F9F77"/>
<path id="Vector_170" opacity="0.4" d="M65.1162 123.673C63.2242 127.658 48.9722 128.701 47.8722 125.87C46.7722 123.04 54.3282 112.861 54.6442 108.206C54.9602 103.552 68.0562 100.08 68.0562 100.08C68.0562 100.08 70.4002 112.548 65.1162 123.673Z" fill="white"/>
<path id="Vector_171" d="M49.0673 140.03L55.3193 139.954L55.0193 143.334L47.1313 142.223L49.0673 140.03Z" fill="#B97964"/>
<path id="Vector_172" opacity="0.2" d="M49.0673 140.03L55.3193 139.954L55.0193 143.334L47.1313 142.223L49.0673 140.03Z" fill="black"/>
<path id="Vector_173" d="M50.5998 139.798C50.8118 139.994 48.2998 142.536 48.2998 142.536C48.2998 142.536 45.1798 142.725 43.4038 144.003C41.6278 145.282 41.4438 143.542 43.0038 141.742L46.8718 137.296C47.9998 136.017 48.3998 137.765 50.5998 139.798Z" fill="#263238"/>
<path id="Vector_174" opacity="0.2" d="M50.5998 139.798C50.8118 139.994 48.2998 142.536 48.2998 142.536C48.2998 142.536 45.1798 142.725 43.4038 144.003C41.6278 145.282 41.4438 143.542 43.0038 141.742L46.8718 137.296C47.9998 136.017 48.3998 137.765 50.5998 139.798Z" fill="black"/>
<path id="Vector_175" d="M61.4957 118.425L62.0557 122.034C62.0557 122.034 77.6557 134.185 78.6557 140.973C79.6557 147.76 73.3837 147.624 53.3837 146.02L52.7517 139.549L60.2557 138.511C60.2557 138.511 47.8557 133.616 49.6837 125.101C51.3677 117.251 61.4957 118.425 61.4957 118.425Z" fill="#6F9F77"/>
<path id="Vector_176" opacity="0.2" d="M61.4957 118.425L62.0557 122.034C62.0557 122.034 77.6557 134.185 78.6557 140.973C79.6557 147.76 73.3837 147.624 53.3837 146.02L52.7517 139.549L60.2557 138.511C60.2557 138.511 47.8557 133.616 49.6837 125.101C51.3677 117.251 61.4957 118.425 61.4957 118.425Z" fill="black"/>
<path id="Vector_177" d="M43.8797 142.316L50.1317 142.24L49.8317 145.619L41.9437 144.513L43.8797 142.316Z" fill="#B97964"/>
<path id="Vector_178" d="M45.4118 142.087C45.6238 142.284 43.1118 144.825 43.1118 144.825C43.1118 144.825 39.9918 145.014 38.2158 146.293C36.4398 147.572 36.2558 145.832 37.8158 144.032L41.6878 139.606C42.7998 138.307 43.1998 140.055 45.4118 142.087Z" fill="#263238"/>
<path id="Vector_179" d="M61.4955 118.425L49.3195 116.421C49.6915 116.481 52.0595 111.229 52.5955 109.361C53.3435 106.779 53.9235 101.84 53.3955 98.6443V98.6203C53.3449 98.2979 53.3611 97.9685 53.4433 97.6527C53.5254 97.3369 53.6717 97.0414 53.8729 96.7848C54.0741 96.5282 54.3259 96.3159 54.6127 96.1613C54.8995 96.0067 55.215 95.913 55.5395 95.8861C56.5115 95.8099 57.4835 95.7738 58.4635 95.7698C60.3971 95.7471 62.3299 95.8609 64.2475 96.1106C66.7115 96.5115 69.4995 97.2492 69.4995 97.2492C69.4995 97.2492 69.8995 97.4135 69.7075 100.056C69.5475 102.561 68.6115 110.7 61.4955 118.425Z" fill="#263238"/>
<path id="Vector_180" d="M66.0518 93.649C66.0518 93.649 64.4838 94.6633 64.2158 95.3368C64.1989 95.3784 64.1855 95.4213 64.1758 95.4651C64.0982 95.8475 64.0448 96.2345 64.0158 96.6237C64.4718 97.9668 62.7558 98.7365 62.7558 98.7365C59.6998 97.8184 58.9838 96.3311 58.9838 96.3311C61.4998 95.3448 61.9798 90.5098 61.9798 90.5098L63.1998 91.452L66.0518 93.649Z" fill="#B97964"/>
<path id="Vector_181" opacity="0.2" d="M66.0515 93.649C66.0515 93.649 64.4835 94.6633 64.2155 95.3368C64.1987 95.3784 64.1853 95.4213 64.1755 95.4651C63.5118 94.9564 62.9825 94.2925 62.6338 93.5314C62.2852 92.7703 62.1279 91.9353 62.1755 91.0992L63.1955 91.444L66.0515 93.649Z" fill="black"/>
<path id="Vector_182" d="M67.7957 82.3152C67.7957 82.3152 70.9637 81.4252 72.4997 83.991C74.0357 86.5569 72.8077 88.5013 71.7437 89.4274" stroke="#263238" stroke-width="0.488465" stroke-linecap="round" stroke-linejoin="round"/>
<path id="Vector_183" d="M69.0599 82.1749C69.0599 82.1749 71.6439 82.2551 72.3559 84.4441C73.0679 86.6331 72.5399 89.0906 68.7039 91.7367C66.8279 93.0316 62.1679 90.5018 62.1679 90.5018L61.7959 91.6324C61.1732 91.1803 60.6077 90.6539 60.1119 90.0649C58.6039 88.2928 58.9919 82.4235 63.1759 81.2729C67.5479 80.0741 69.0599 82.1749 69.0599 82.1749Z" fill="#263238"/>
<path id="Vector_184" d="M66.5917 82.9085C69.8797 83.3576 70.6957 85.2619 70.4757 88.6897C70.1997 92.9674 68.8517 95.854 64.8757 94.3866C59.4597 92.3941 61.1397 82.1628 66.5917 82.9085Z" fill="#B97964"/>
<path id="Vector_185" d="M68.3759 88.2126C68.5728 88.7401 68.832 89.2422 69.1479 89.708C69.0338 89.8315 68.8878 89.9208 68.7261 89.9661C68.5644 90.0114 68.3934 90.0109 68.2319 89.9646L68.3759 88.2126Z" fill="#A24E3F"/>
<path id="Vector_186" d="M66.4004 87.6714C66.3684 87.94 66.1964 88.1445 66.0004 88.1244C65.8044 88.1044 65.7004 87.8678 65.7284 87.5952C65.7564 87.3226 65.9324 87.1221 66.1284 87.1422C66.3244 87.1622 66.4324 87.3988 66.4004 87.6714Z" fill="#263238"/>
<path id="Vector_187" d="M66.0557 87.1462L66.6677 86.9818C66.6677 86.9818 66.3197 87.4469 66.0557 87.1462Z" fill="#263238"/>
<path id="Vector_188" d="M69.7759 87.9921C69.7439 88.2647 69.5719 88.4692 69.3759 88.4491C69.1799 88.4291 69.0759 88.1925 69.1039 87.9199C69.1319 87.6473 69.3079 87.4428 69.5039 87.4669C69.6999 87.4909 69.8039 87.7235 69.7759 87.9921Z" fill="#263238"/>
<path id="Vector_189" d="M69.4285 87.487L70.0405 87.3226C70.0405 87.3226 69.6925 87.7676 69.4285 87.487Z" fill="#263238"/>
<path id="Vector_190" d="M66.6802 85.3942C66.4251 85.3262 66.1579 85.318 65.8992 85.3702C65.6405 85.4223 65.3972 85.5334 65.1882 85.6949" stroke="#263238" stroke-width="0.707962" stroke-linecap="round" stroke-linejoin="round"/>
<path id="Vector_191" d="M69.0839 85.5786C69.316 85.5521 69.5511 85.5788 69.7714 85.6566C69.9917 85.7344 70.1916 85.8612 70.3559 86.0276" stroke="#263238" stroke-width="0.707962" stroke-linecap="round" stroke-linejoin="round"/>
<path id="Vector_192" d="M62.2474 87.964C62.2474 87.964 64.1514 85.4704 64.2034 83.3495C64.2034 83.3495 71.0754 81.5735 70.4954 88.2407C70.4954 88.2407 71.9314 82.4475 66.3034 81.5454C60.6754 80.6434 59.3754 88.4131 61.9594 91.2796C61.9594 91.2796 61.0674 89.5276 62.2474 87.964Z" fill="#263238"/>
<path id="Vector_193" d="M62.6915 88.7338C62.7112 88.3486 62.5779 87.9713 62.3208 87.6843C62.0637 87.3974 61.7037 87.2241 61.3195 87.2023C60.2875 87.1743 59.5155 89.2069 61.9795 90.0528C62.3355 90.1731 62.5875 89.8443 62.6915 88.7338Z" fill="#B97964"/>
<path id="Vector_194" d="M68.0557 90.9469C67.9152 91.3389 67.8042 91.7409 67.7237 92.1496H67.5037C66.5117 92.1015 66.0677 91.7487 65.8757 91.3798C65.7859 91.1952 65.7407 90.9919 65.7437 90.7865C65.7429 90.6701 65.7577 90.5541 65.7877 90.4417C66.3882 90.7413 67.0454 90.9094 67.7157 90.9348C67.9237 90.9469 68.0557 90.9469 68.0557 90.9469Z" fill="#263238"/>
<path id="Vector_195" d="M67.716 90.9268L67.608 91.2796C66.676 91.2315 66.008 91.0751 65.744 90.7784C65.7432 90.662 65.758 90.5461 65.788 90.4337C66.3885 90.7332 67.0457 90.9013 67.716 90.9268Z" fill="white"/>
<path id="Vector_196" d="M67.5043 92.1416C66.5123 92.0935 66.0683 91.7407 65.8763 91.3718C66.2533 91.3961 66.623 91.487 66.9683 91.6404C67.1958 91.7457 67.3837 91.9214 67.5043 92.1416Z" fill="#DE5753"/>
<path id="Vector_197" d="M49.3197 116.413C43.7197 124.383 44.8797 132.674 60.1637 139.425L48.1077 141.386L48.4237 145.768C48.4237 145.768 60.3397 146.97 70.0237 146.97C74.2317 146.97 76.2917 139.782 70.7717 133.584C65.2517 127.386 58.2277 123.168 58.2277 123.168C60.1837 121.769 61.4957 118.413 61.4957 118.413L49.3197 116.413Z" fill="#6F9F77"/>
<path id="Vector_198" d="M58.4797 95.5493C59.3826 102.076 58.7693 108.723 56.6877 114.974C53.2237 125.04 45.4237 134.698 45.4237 134.698C45.4237 134.698 43.1477 123.473 48.9717 116.2C48.9717 116.2 53.2157 108.23 52.9117 99.2337C52.7517 94.5791 58.4797 95.5493 58.4797 95.5493Z" fill="#6F9F77"/>
<path id="Vector_199" opacity="0.6" d="M56.6921 114.974C53.2241 125.04 45.4241 134.702 45.4241 134.702C45.4241 134.702 43.1441 123.477 48.9721 116.2C50.7722 112.548 51.9948 108.638 52.5961 104.61C52.8592 102.831 52.9649 101.032 52.9121 99.2337C52.8897 98.7644 52.9437 98.2945 53.0721 97.8426C53.9961 94.7876 58.4801 95.5493 58.4801 95.5493C59.3831 102.076 58.7712 108.723 56.6921 114.974Z" fill="white"/>
<path id="Vector_200" d="M65.4282 96.2349C65.4282 96.2349 68.1602 101.812 67.5042 110.732C66.8482 119.652 65.1042 123.673 65.1042 123.673C65.1042 123.673 72.3482 113.891 69.7562 97.3133L65.4282 96.2349Z" fill="#6F9F77"/>
<path id="Vector_201" opacity="0.6" d="M65.4282 96.2349C65.4282 96.2349 68.1602 101.812 67.5042 110.732C66.8482 119.652 65.1042 123.673 65.1042 123.673C65.1042 123.673 72.3482 113.891 69.7562 97.3133L65.4282 96.2349Z" fill="white"/>
<path id="Vector_202" d="M67.1638 80.904C67.1638 80.904 62.5438 78.298 60.3398 78.719C58.1358 79.1399 58.9838 80.6113 58.9838 80.6113C58.8175 80.6012 58.651 80.6259 58.4947 80.6839C58.3385 80.7418 58.1961 80.8317 58.0764 80.9479C57.9568 81.064 57.8626 81.2039 57.7998 81.3585C57.737 81.5132 57.707 81.6792 57.7118 81.8461C57.6598 83.137 58.8838 86.5247 58.8838 86.5247L67.1638 80.904Z" fill="#6F9F77"/>
<path id="Vector_203" opacity="0.2" d="M67.1638 80.904C67.1638 80.904 62.5438 78.298 60.3398 78.719C58.1358 79.1399 58.9838 80.6113 58.9838 80.6113C58.8175 80.6012 58.651 80.6259 58.4947 80.6839C58.3385 80.7418 58.1961 80.8317 58.0764 80.9479C57.9568 81.064 57.8626 81.2039 57.7998 81.3585C57.737 81.5132 57.707 81.6792 57.7118 81.8461C57.6598 83.137 58.8838 86.5247 58.8838 86.5247L67.1638 80.904Z" fill="white"/>
<path id="Vector_204" d="M76.4675 79.4687L75.7715 80.896C75.7715 80.896 69.5755 80.5512 64.0635 84.3278C60.732 86.63 57.9975 89.6965 56.0875 93.2721L55.1995 94.7034C54.8715 94.7034 54.5555 94.6633 54.2355 94.6232C50.9395 94.2022 54.5755 87.1502 62.1675 82.1308C68.5275 77.9292 74.2195 77.4642 76.4675 79.4687Z" fill="#6F9F77"/>
<path id="Vector_205" d="M80.5002 108.362C80.62 108.063 80.6619 107.737 80.622 107.417C80.5821 107.096 80.4618 106.791 80.2722 106.53C79.6242 105.524 77.8722 105.107 77.8722 105.107C77.8722 105.107 77.7122 107.356 78.4002 108.186C79.0882 109.016 80.5002 108.362 80.5002 108.362Z" fill="#6F9F77"/>
<path id="Vector_206" d="M83.504 108.699C83.504 108.699 83.144 106.47 86.768 106.606C86.768 106.606 86.268 109.629 83.504 108.699Z" fill="#6F9F77"/>
<path id="Vector_207" opacity="0.1" d="M80.5002 108.362C80.62 108.063 80.6619 107.737 80.622 107.417C80.5821 107.096 80.4618 106.791 80.2722 106.53C79.6242 105.524 77.8722 105.107 77.8722 105.107C77.8722 105.107 77.7122 107.356 78.4002 108.186C79.0882 109.016 80.5002 108.362 80.5002 108.362Z" fill="white"/>
<path id="Vector_208" opacity="0.1" d="M83.504 108.699C83.504 108.699 83.144 106.47 86.768 106.606C86.768 106.606 86.268 109.629 83.504 108.699Z" fill="white"/>
<path id="Vector_209" d="M84.3238 107.933C84.2902 107.893 84.242 107.867 84.1896 107.862C84.1372 107.856 84.0848 107.872 84.0438 107.905C83.7496 108.144 83.4814 108.412 83.2438 108.707C82.998 108.995 82.7859 109.309 82.6118 109.645C82.4465 109.966 82.3125 110.301 82.2118 110.648C82.1078 110.415 81.9958 110.187 81.8758 109.962C81.4075 109.043 80.7633 108.226 79.9798 107.557C79.94 107.526 79.8902 107.511 79.84 107.514C79.7898 107.518 79.7427 107.54 79.7078 107.577C79.6887 107.595 79.6734 107.616 79.663 107.641C79.6526 107.665 79.6472 107.691 79.6472 107.717C79.6472 107.743 79.6526 107.769 79.663 107.793C79.6734 107.818 79.6887 107.839 79.7078 107.857C80.4001 108.527 80.9557 109.325 81.3438 110.207C81.7479 111.08 82.0292 112.006 82.1798 112.957C82.325 113.901 82.3345 114.861 82.2078 115.807C82.1421 116.274 82.0418 116.735 81.9078 117.187C81.7844 117.622 81.6168 118.044 81.4078 118.445V118.477C81.4058 118.487 81.4058 118.496 81.4078 118.506C81.3447 118.64 81.3373 118.793 81.3872 118.933C81.437 119.072 81.5402 119.186 81.6738 119.249C81.8075 119.312 81.9608 119.32 82.0999 119.27C82.2391 119.22 82.3527 119.117 82.4158 118.983C82.6418 118.492 82.8148 117.979 82.9318 117.451C83.0498 116.942 83.1287 116.425 83.1678 115.904C83.2446 114.871 83.1719 113.832 82.9518 112.821C82.8699 112.448 82.767 112.08 82.6438 111.718C82.6532 111.42 82.692 111.123 82.7598 110.832C82.8361 110.497 82.9474 110.17 83.0918 109.858C83.2334 109.543 83.4106 109.246 83.6198 108.972C83.8279 108.696 84.0638 108.442 84.3238 108.214C84.3605 108.177 84.381 108.126 84.381 108.074C84.381 108.021 84.3605 107.971 84.3238 107.933Z" fill="#6F9F77"/>
<path id="Vector_210" opacity="0.3" d="M84.3238 107.933C84.2902 107.893 84.242 107.867 84.1896 107.862C84.1372 107.856 84.0848 107.872 84.0438 107.905C83.7496 108.144 83.4814 108.412 83.2438 108.707C82.998 108.995 82.7859 109.309 82.6118 109.645C82.4465 109.966 82.3125 110.301 82.2118 110.648C82.1078 110.415 81.9958 110.187 81.8758 109.962C81.4075 109.043 80.7633 108.226 79.9798 107.557C79.94 107.526 79.8902 107.511 79.84 107.514C79.7898 107.518 79.7427 107.54 79.7078 107.577C79.6887 107.595 79.6734 107.616 79.663 107.641C79.6526 107.665 79.6472 107.691 79.6472 107.717C79.6472 107.743 79.6526 107.769 79.663 107.793C79.6734 107.818 79.6887 107.839 79.7078 107.857C80.4001 108.527 80.9557 109.325 81.3438 110.207C81.7479 111.08 82.0292 112.006 82.1798 112.957C82.325 113.901 82.3345 114.861 82.2078 115.807C82.1421 116.274 82.0418 116.735 81.9078 117.187C81.7844 117.622 81.6168 118.044 81.4078 118.445V118.477C81.4058 118.487 81.4058 118.496 81.4078 118.506C81.3447 118.64 81.3373 118.793 81.3872 118.933C81.437 119.072 81.5402 119.186 81.6738 119.249C81.8075 119.312 81.9608 119.32 82.0999 119.27C82.2391 119.22 82.3527 119.117 82.4158 118.983C82.6418 118.492 82.8148 117.979 82.9318 117.451C83.0498 116.942 83.1287 116.425 83.1678 115.904C83.2446 114.871 83.1719 113.832 82.9518 112.821C82.8699 112.448 82.767 112.08 82.6438 111.718C82.6532 111.42 82.692 111.123 82.7598 110.832C82.8361 110.497 82.9474 110.17 83.0918 109.858C83.2334 109.543 83.4106 109.246 83.6198 108.972C83.8279 108.696 84.0638 108.442 84.3238 108.214C84.3605 108.177 84.381 108.126 84.381 108.074C84.381 108.021 84.3605 107.971 84.3238 107.933Z" fill="white"/>
<path id="Vector_211" d="M76.2439 121.965C76.5141 121.545 76.8121 121.143 77.1358 120.763C77.7586 120.029 78.4979 119.403 79.3238 118.91L80.0478 118.461L80.2999 118.305C80.6834 118.084 81.0462 117.83 81.3839 117.543C81.7039 117.263 82.0279 116.906 82.4519 116.906C83.1879 116.906 83.5398 117.495 83.9798 118.008C84.3851 118.557 84.8737 119.039 85.4279 119.436C86.2279 119.897 87.5919 121.609 87.5559 121.921C87.5199 122.234 83.9998 124.772 81.0718 124.231C79.2948 123.904 77.6319 123.124 76.2439 121.965Z" fill="#6F9F77"/>
<path id="Vector_212" opacity="0.2" d="M56 105.929C54.7572 105.882 53.5652 105.423 52.612 104.622C52.8751 102.843 52.9808 101.044 52.928 99.2457C52.9056 98.7764 52.9596 98.3065 53.088 97.8546C54.516 99.823 58.8 106.009 56 105.929Z" fill="black"/>
<path id="Vector_213" d="M54.8318 96.2389C56.8918 96.0585 61.0878 109.497 62.6638 110.968C64.2398 112.44 77.5718 121.392 77.5718 121.392C78.1998 121.335 78.8317 121.335 79.4598 121.392C80.1958 121.5 83.5558 122.45 83.5558 122.45C83.5558 122.45 82.2958 124.684 81.0358 125.145C79.7758 125.606 76.3998 124.227 75.9998 123.068C75.9998 123.068 62.7718 116.353 59.8838 114.448C56.9958 112.544 53.9238 103.503 53.1518 100.869C52.3798 98.2354 53.5998 96.3431 54.8318 96.2389Z" fill="#B97964"/>
</g>
</g>
</svg>
