<svg width="200" height="151" viewBox="0 0 200 151" fill="none" xmlns="http://www.w3.org/2000/svg">
<g id="auction/rafiki">
<g id="background-simple">
<path id="Vector" d="M117.496 60.5501C93.5998 54.2732 85.5558 2.93519 49.9318 31.3038C24.6558 51.4348 39.6038 99.8498 71.1318 93.9152C90.2238 90.3278 87.2878 90.0017 103.36 99.0969C119.644 108.309 137.624 112.85 155.256 96.1054C164.384 87.441 168.116 66.4847 159.416 55.7347C148.548 42.2872 132.1 64.387 117.496 60.5501Z" fill="#6F9F77"/>
<path id="Vector_2" opacity="0.9" d="M117.496 60.5501C93.5998 54.2732 85.5558 2.93519 49.9318 31.3038C24.6558 51.4348 39.6038 99.8498 71.1318 93.9152C90.2238 90.3278 87.2878 90.0017 103.36 99.0969C119.644 108.309 137.624 112.85 155.256 96.1054C164.384 87.441 168.116 66.4847 159.416 55.7347C148.548 42.2872 132.1 64.387 117.496 60.5501Z" fill="white"/>
</g>
<g id="Shadow">
<path id="path" d="M100 150.254C142.833 150.254 177.556 148.213 177.556 145.696C177.556 143.179 142.833 141.138 100 141.138C57.167 141.138 22.444 143.179 22.444 145.696C22.444 148.213 57.167 150.254 100 150.254Z" fill="#F5F5F5"/>
</g>
<g id="Vase">
<path id="Vector_3" d="M128.128 86.3499H111.608V145.579H128.128V86.3499Z" fill="#263238"/>
<path id="Vector_4" opacity="0.6" d="M128.128 86.3499H111.608V145.583H128.128V86.3499Z" fill="#FAFAFA"/>
<path id="Vector_5" opacity="0.1" d="M128.128 86.3499H122.32V145.583H128.128V86.3499Z" fill="black"/>
<path id="Vector_6" d="M122.512 65.1439V57.5747L125.316 53.6008H120.024H119.708H114.42L117.224 57.5747V65.1439L111.06 73.2688V79.3846L115.544 86.7727H119.708H120.024H124.192L128.676 79.3846V73.2688L122.512 65.1439Z" fill="#6F9F77"/>
<path id="Vector_7" opacity="0.6" d="M122.512 65.1439V57.5747L125.316 53.6008H120.024H119.708H114.42L117.224 57.5747V65.1439L111.06 73.2688V79.3846L115.544 86.7727H119.708H120.024H124.192L128.676 79.3846V73.2688L122.512 65.1439Z" fill="#FAFAFA"/>
<path id="Vector_8" opacity="0.4" d="M114.42 53.6008H119.708L117.224 57.5747L114.42 53.6008Z" fill="#FAFAFA"/>
<path id="Vector_9" opacity="0.4" d="M125.312 53.6008L122.512 57.5747L119.708 53.6008H125.312Z" fill="#FAFAFA"/>
<path id="Vector_10" opacity="0.4" d="M122.512 65.144L119.868 67.9905L117.22 65.144H122.512Z" fill="#FAFAFA"/>
<path id="Vector_11" opacity="0.4" d="M115.54 86.7687L119.868 83.5155L124.188 86.7687H115.54Z" fill="#FAFAFA"/>
<path id="Vector_12" opacity="0.4" d="M124.772 79.3846L124.736 79.8597V79.8637L119.868 83.5155L114.996 79.8597L114.96 79.3846H124.772Z" fill="#FAFAFA"/>
<path id="Vector_13" opacity="0.4" d="M124.772 73.2608V73.2688H114.96L119.868 67.9905L124.772 73.2608Z" fill="#FAFAFA"/>
<path id="Vector_14" opacity="0.4" d="M124.776 73.2688L124.772 73.2648V73.2607L124.776 73.2688Z" fill="#FAFAFA"/>
<path id="Vector_15" opacity="0.4" d="M111.06 73.2688H114.96V79.3846H111.06V73.7077" fill="#FAFAFA"/>
<path id="Vector_16" opacity="0.4" d="M128.676 73.2688H124.776V79.3846H128.676V73.7077" fill="#FAFAFA"/>
<path id="Vector_17" opacity="0.4" d="M117.224 65.144L122.512 57.5747H117.224L122.516 65.144H117.224Z" fill="#FAFAFA"/>
<path id="Vector_18" opacity="0.7" d="M119.868 67.9905L114.96 73.2689L117.224 65.144L119.868 67.9905Z" fill="#FAFAFA"/>
<path id="Vector_19" opacity="0.7" d="M124.776 73.2689L119.868 67.9905L122.516 65.144L124.776 73.2689Z" fill="#FAFAFA"/>
<path id="Vector_20" opacity="0.7" d="M119.868 83.5195L115.544 86.7686L114.96 79.8315L119.868 83.5195Z" fill="#FAFAFA"/>
<path id="Vector_21" opacity="0.7" d="M124.776 79.8315L124.188 86.7686L119.868 83.5195L124.776 79.8315Z" fill="#FAFAFA"/>
<path id="Vector_22" opacity="0.7" d="M124.772 73.2688H114.96V79.3846H124.772V73.2688Z" fill="#FAFAFA"/>
<path id="Vector_23" opacity="0.7" d="M117.224 57.5747H122.512L119.708 53.6008L117.224 57.5747Z" fill="#FAFAFA"/>
<path id="Vector_24" d="M128.748 86.3499H110.992V87.896H128.748V86.3499Z" fill="#263238"/>
<path id="Vector_25" opacity="0.4" d="M128.748 86.3499H110.992V87.896H128.748V86.3499Z" fill="#FAFAFA"/>
<path id="Vector_26" opacity="0.1" d="M128.748 86.3499H122.516V87.896H128.748V86.3499Z" fill="black"/>
</g>
<g id="character-3">
<path id="Vector_27" d="M155.872 58.0538C159.648 58.8349 161.544 62.2491 160.7 64.9506C159.9 67.5073 158.44 66.4887 158.084 70.1646L152.544 69.7821C152.776 68.1958 150.916 66.5611 150.344 64.2823C149.944 62.7161 150.344 60.2964 151.772 59.7166L155.872 58.0538Z" fill="#263238"/>
<path id="Vector_28" d="M148.3 89.595C148.3 89.595 147.672 104.359 148.624 113.623C148.716 122.376 149.72 140.679 148.904 142.737C148.976 143.18 150.528 143.139 150.904 142.841C150.904 142.841 156.104 127.204 154.02 113.156C158.704 97.9172 157.572 88.7979 157.572 88.7979L148.3 89.595Z" fill="#EEC1BB"/>
<path id="Vector_29" d="M150.909 89.2729C150.909 89.2729 155.169 105.817 156.853 113.941C158.625 122.473 160.961 136.814 160.453 142.483C160.929 142.765 161.809 142.797 162.765 142.483C162.765 142.483 166.565 123.435 162.741 114.3C164.421 94.0923 159.109 89.2568 159.109 89.2568L150.909 89.2729Z" fill="#EEC1BB"/>
<path id="Vector_30" d="M163.148 145.467H162.668L162.536 144.867L160.936 145.587H156.904C156.904 145.587 156.264 144.935 158.188 144.428C158.282 144.4 158.373 144.365 158.46 144.323C159.484 143.844 160.948 142.213 160.948 142.213H163.16C163.229 142.316 163.289 142.424 163.34 142.536C163.6 143.015 164 144.045 163.148 145.467Z" fill="#263238"/>
<path id="Vector_31" d="M163.343 142.523C163.055 142.193 161.719 143.631 160.743 144.134C159.871 144.565 158.895 144.754 158.463 144.311C159.487 143.832 161.107 141.726 161.107 141.726H162.887C162.887 141.726 163.243 142.314 163.343 142.523Z" fill="#EEC1BB"/>
<path id="Vector_32" d="M151.54 145.467H151.056L150.928 144.867L149.328 145.587H145.296C145.296 145.587 144.656 144.935 146.58 144.428C146.674 144.4 146.765 144.365 146.852 144.323C147.876 143.844 149.34 142.213 149.34 142.213H151.552C151.621 142.316 151.681 142.424 151.732 142.536C151.969 142.995 152.075 143.511 152.042 144.028C152.008 144.545 151.834 145.042 151.54 145.467Z" fill="#263238"/>
<path id="Vector_33" d="M151.736 142.523C151.448 142.193 150.112 143.631 149.136 144.134C148.264 144.565 147.288 144.754 146.856 144.311C147.88 143.832 149.5 141.726 149.5 141.726H151.28C151.28 141.726 151.636 142.314 151.736 142.523Z" fill="#EEC1BB"/>
<path id="Vector_34" d="M163.484 106.815C163.19 107.074 162.856 107.283 162.496 107.435C162.515 106.661 162.313 105.898 161.912 105.237C162 106.096 161.901 106.965 161.62 107.781C158.78 108.752 153.3 109.392 146.456 108.039C146.456 102.644 147.556 94.1809 147.984 90.8753C148.072 90.207 148.136 89.748 148.152 89.5709C148.152 89.5709 156.276 89.74 159.572 89.74C159.739 89.9011 159.896 90.0733 160.04 90.2553C163.268 94.205 164.124 104.48 163.484 106.815Z" fill="#263238"/>
<path id="Vector_35" opacity="0.3" d="M160.04 90.2553C157.64 91.8658 152.596 93.6695 152.596 93.6695L150.908 91.0404L149.512 93.2991L147.984 90.8834C148.072 90.2151 148.136 89.7561 148.152 89.5789C148.152 89.5789 156.276 89.748 159.572 89.748C159.739 89.9066 159.895 90.0761 160.04 90.2553Z" fill="black"/>
<path id="Vector_36" d="M132.357 77.0816L129.201 75.9986L130.569 73.4097C130.569 73.4097 132.877 73.8566 133.229 75.7771L132.357 77.0816Z" fill="#FFC3BD"/>
<path id="Vector_37" d="M127.524 73.8848L129.06 72.5763L130.572 73.4097L129.204 75.9986L127.524 73.8848Z" fill="#FFC3BD"/>
<path id="Vector_38" d="M149.564 77.2789C149.164 77.5245 148.872 77.6815 148.52 77.8869C148.168 78.0922 147.84 78.2371 147.5 78.4103C146.812 78.7404 146.124 79.0464 145.42 79.3282C144.716 79.6101 144.012 79.8597 143.3 80.1053C142.948 80.2221 142.592 80.3428 142.228 80.4475L141.692 80.6086L141.556 80.6488L141.348 80.7012C141.203 80.7395 141.056 80.7678 140.908 80.7857C140.409 80.8431 139.905 80.8255 139.412 80.7334C138.988 80.661 138.569 80.5574 138.16 80.4234C137.411 80.1704 136.682 79.8595 135.98 79.4933C134.658 78.8645 133.399 78.1095 132.22 77.2387L133.172 75.3705H133.2C134.48 75.9422 135.644 76.7112 136.94 77.1622C137.571 77.3813 138.215 77.5601 138.868 77.6976C139.378 77.8274 139.908 77.8548 140.428 77.7782C140.461 77.7715 140.493 77.7621 140.524 77.75L140.576 77.7298L140.696 77.6775L141.192 77.4802L142.168 77.0776C142.819 76.8092 143.463 76.526 144.1 76.2281C144.74 75.9301 145.372 75.6362 145.992 75.3222C146.3 75.1692 146.612 75.0122 146.916 74.8511L147.772 74.3841L147.848 74.3398C148.231 74.1306 148.68 74.0794 149.1 74.197C149.519 74.3146 149.877 74.5918 150.098 74.97C150.319 75.3483 150.385 75.798 150.282 76.2243C150.179 76.6506 149.916 77.0201 149.548 77.2548L149.564 77.2789Z" fill="#6F9F77"/>
<path id="Vector_39" opacity="0.7" d="M149.564 77.2789C149.164 77.5245 148.872 77.6815 148.52 77.8869C148.168 78.0922 147.84 78.2371 147.5 78.4103C146.812 78.7404 146.124 79.0464 145.42 79.3282C144.716 79.6101 144.012 79.8597 143.3 80.1053C142.948 80.2221 142.592 80.3428 142.228 80.4475L141.692 80.6086L141.556 80.6488L141.348 80.7012C141.203 80.7395 141.056 80.7678 140.908 80.7857C140.409 80.8431 139.905 80.8255 139.412 80.7334C138.988 80.661 138.569 80.5574 138.16 80.4234C137.411 80.1704 136.682 79.8595 135.98 79.4933C134.658 78.8645 133.399 78.1095 132.22 77.2387L133.172 75.3705H133.2C134.48 75.9422 135.644 76.7112 136.94 77.1622C137.571 77.3813 138.215 77.5601 138.868 77.6976C139.378 77.8274 139.908 77.8548 140.428 77.7782C140.461 77.7715 140.493 77.7621 140.524 77.75L140.576 77.7298L140.696 77.6775L141.192 77.4802L142.168 77.0776C142.819 76.8092 143.463 76.526 144.1 76.2281C144.74 75.9301 145.372 75.6362 145.992 75.3222C146.3 75.1692 146.612 75.0122 146.916 74.8511L147.772 74.3841L147.848 74.3398C148.231 74.1306 148.68 74.0794 149.1 74.197C149.519 74.3146 149.877 74.5918 150.098 74.97C150.319 75.3483 150.385 75.798 150.282 76.2243C150.179 76.6506 149.916 77.0201 149.548 77.2548L149.564 77.2789Z" fill="white"/>
<path id="Vector_40" d="M149.756 77.5889C149.512 77.7419 149.296 77.8748 149.056 77.9916C148.94 78.06 148.82 78.1244 148.688 78.1929C148.344 78.3781 148.004 78.5472 147.664 78.7203C147.112 78.982 146.592 79.2155 146.092 79.4289L145.552 79.6504C144.852 79.9362 144.144 80.1818 143.416 80.4355L143.228 80.4959C142.932 80.5965 142.636 80.6931 142.332 80.7817L141.66 80.983L141.44 81.0394C141.277 81.0822 141.111 81.1132 140.944 81.132C140.749 81.1563 140.552 81.1684 140.356 81.1682C140.019 81.1647 139.684 81.1351 139.352 81.0797C138.911 81.0022 138.477 80.8946 138.052 80.7576C137.284 80.4964 136.536 80.1774 135.816 79.8034C134.766 79.2645 133.758 78.6482 132.8 77.9594C132.856 77.8225 132.9 77.6896 132.956 77.5567C133.236 76.8803 133.536 76.22 133.788 75.5436C134.988 76.067 136.088 76.5059 137.084 76.8522C137.698 77.0686 138.326 77.2435 138.964 77.3756C139.297 77.4507 139.638 77.4912 139.98 77.4963C140.114 77.5027 140.249 77.4905 140.38 77.4601H140.416L140.492 77.4319L140.6 77.3876L141.096 77.1863L142.072 76.7837C142.828 76.4656 143.44 76.1959 143.992 75.9422C144.696 75.6121 145.288 75.3383 145.872 75.0444C146.18 74.8914 146.488 74.7344 146.784 74.5774L147.716 74.066C148.181 73.8189 148.724 73.762 149.23 73.9073C149.736 74.0526 150.167 74.3889 150.433 74.846C150.699 75.3032 150.779 75.846 150.658 76.3615C150.536 76.8769 150.222 77.3253 149.78 77.6131L149.756 77.5889Z" fill="#263238"/>
<path id="Vector_41" opacity="0.3" d="M149.056 78.0076C148.94 78.0761 148.82 78.1405 148.688 78.2089C148.344 78.3941 148.004 78.5632 147.664 78.7363C147.112 78.9981 146.592 79.2316 146.092 79.445C146.477 77.837 147.155 76.3149 148.092 74.9557C148.462 75.3642 148.74 75.8486 148.906 76.3754C149.073 76.9022 149.124 77.459 149.056 78.0076Z" fill="black"/>
<path id="Vector_42" d="M161.916 74.0982C161.277 76.0073 160.785 77.9631 160.444 79.9483C160.316 80.6408 160.192 81.3856 160.084 82.1748C160.04 82.4848 159.996 82.8028 159.96 83.129C159.772 84.6468 159.636 86.3177 159.592 88.1013C159.592 88.6408 159.568 89.1844 159.572 89.74L153.236 91.7169L150.856 90.0862L149.512 91.2941L148.152 89.5669C148.152 89.5669 146.572 81.4903 147.648 74.0942C149.842 72.9107 152.293 72.2917 154.783 72.2924C157.272 72.2931 159.723 72.9135 161.916 74.0982Z" fill="#263238"/>
<path id="Vector_43" d="M149.273 74.7101C149.818 73.7413 150.602 72.9303 151.549 72.3555C152.496 71.7807 153.575 71.4615 154.681 71.4288C158.549 71.2838 158.441 75.2013 158.441 75.2013H156.253L156.865 76.5179C156.865 76.5179 153.633 78.7202 152.065 81.6795L152.553 79.2074L149.809 76.5501L150.917 75.2013L149.273 74.7101Z" fill="#263238"/>
<path id="Vector_44" opacity="0.2" d="M149.273 74.7101C149.818 73.7413 150.602 72.9303 151.549 72.3555C152.496 71.7807 153.575 71.4615 154.681 71.4288C158.549 71.2838 158.441 75.2013 158.441 75.2013H156.253L156.865 76.5179C156.865 76.5179 153.633 78.7202 152.065 81.6795L152.553 79.2074L149.809 76.5501L150.917 75.2013L149.273 74.7101Z" fill="white"/>
<path id="Vector_45" d="M151.804 72.6649C151.597 74.7304 151.871 76.816 152.604 78.7565C152.604 78.7565 154.792 74.5169 156.848 72.6649C156.864 72.6649 154.772 70.382 151.804 72.6649Z" fill="#6F9F77"/>
<path id="Vector_46" opacity="0.5" d="M151.804 72.6649C151.597 74.7304 151.871 76.816 152.604 78.7565C152.604 78.7565 154.792 74.5169 156.848 72.6649C156.864 72.6649 154.772 70.382 151.804 72.6649Z" fill="white"/>
<path id="Vector_47" d="M150.276 73.2446C150.276 73.2446 152.676 71.457 153.232 71.2315C153.788 71.0061 154.596 71.7549 154.596 71.7549C154.596 71.7549 156.812 71.1913 157.376 71.2315C157.94 71.2718 159.084 73.2446 159.084 73.2446L156.36 72.8823C154.882 73.7265 153.68 74.9856 152.9 76.5059C152.9 76.5059 151.816 73.9412 151.808 72.8823L150.276 73.2446Z" fill="#6F9F77"/>
<path id="Vector_48" opacity="0.7" d="M150.276 73.2446C150.276 73.2446 152.676 71.457 153.232 71.2315C153.788 71.0061 154.596 71.7549 154.596 71.7549C154.596 71.7549 156.812 71.1913 157.376 71.2315C157.94 71.2718 159.084 73.2446 159.084 73.2446L156.36 72.8823C154.882 73.7265 153.68 74.9856 152.9 76.5059C152.9 76.5059 151.816 73.9412 151.808 72.8823L150.276 73.2446Z" fill="white"/>
<path id="Vector_49" d="M157.3 66.2189C156.86 67.8536 156.32 70.8491 157.376 71.9361C156.37 72.2999 155.451 72.8735 154.679 73.6193C153.908 74.3652 153.302 75.2665 152.9 76.2643C152.577 74.8438 152.386 73.3962 152.328 71.9402C154.172 71.5013 154.224 70.1485 154.004 68.8802L157.3 66.2189Z" fill="#EEC1BB"/>
<path id="Vector_50" opacity="0.2" d="M155.956 67.3019L154 68.8802C154.055 69.1777 154.085 69.4795 154.088 69.7821C154.788 69.6814 155.796 68.9164 155.924 68.1716C155.985 67.8858 155.996 67.5915 155.956 67.3019Z" fill="black"/>
<path id="Vector_51" d="M158.684 62.9376C158.192 65.5748 158.04 66.7021 156.544 67.9663C154.292 69.8707 151.2 68.8642 150.904 66.1706C150.636 63.7549 151.488 59.8415 154.192 58.9678C154.766 58.7616 155.384 58.7136 155.983 58.8288C156.582 58.9441 157.139 59.2183 157.597 59.6232C158.056 60.028 158.398 60.5488 158.589 61.1315C158.78 61.7143 158.813 62.3378 158.684 62.9376Z" fill="#EEC1BB"/>
<path id="Vector_52" d="M156.432 61.0493C157.876 62.9295 154.904 65.0755 157.876 64.9668C160.848 64.8581 159.644 60.6144 157.876 59.6562C156.108 58.698 156.432 61.0493 156.432 61.0493Z" fill="#263238"/>
<path id="Vector_53" d="M154.532 63.3764C154.5 63.5979 154.36 63.779 154.216 63.779C154.072 63.779 153.984 63.5777 154.016 63.3523C154.048 63.1268 154.188 62.9496 154.332 62.9496C154.476 62.9496 154.564 63.151 154.532 63.3764Z" fill="#263238"/>
<path id="Vector_54" d="M151.852 63.2154C151.82 63.4409 151.68 63.618 151.536 63.618C151.392 63.618 151.308 63.4167 151.336 63.1953C151.364 62.9738 151.512 62.7927 151.652 62.7927C151.792 62.7927 151.884 62.994 151.852 63.2154Z" fill="#263238"/>
<path id="Vector_55" d="M151.712 62.8087L151.212 62.6155C151.212 62.6155 151.42 63.0624 151.712 62.8087Z" fill="#263238"/>
<path id="Vector_56" d="M152.544 63.6381C152.278 64.1345 151.95 64.5945 151.568 65.007C151.669 65.0971 151.79 65.1624 151.92 65.198C152.051 65.2336 152.187 65.2386 152.32 65.2124L152.544 63.6381Z" fill="#D4827D"/>
<path id="Vector_57" d="M153.452 66.1304C153.33 66.1406 153.207 66.1406 153.084 66.1304C153.076 66.1294 153.067 66.1267 153.06 66.1225C153.053 66.1183 153.046 66.1127 153.041 66.106C153.036 66.0992 153.032 66.0915 153.03 66.0832C153.027 66.075 153.027 66.0664 153.028 66.0579C153.031 66.0401 153.04 66.0241 153.054 66.0129C153.069 66.0018 153.086 65.9963 153.104 65.9975C153.382 66.0201 153.661 65.9789 153.921 65.8771C154.181 65.7752 154.414 65.6154 154.604 65.4097C154.617 65.3981 154.633 65.3917 154.65 65.3917C154.667 65.3917 154.684 65.3981 154.696 65.4097C154.702 65.4157 154.707 65.4229 154.71 65.4309C154.714 65.4388 154.716 65.4474 154.716 65.456C154.716 65.4646 154.714 65.4732 154.71 65.4811C154.707 65.4891 154.702 65.4963 154.696 65.5023C154.373 65.859 153.93 66.0827 153.452 66.1304Z" fill="#263238"/>
<path id="Vector_58" d="M158.941 65.4781C158.833 65.7111 158.678 65.9189 158.486 66.088C158.294 66.2572 158.068 66.3841 157.825 66.4605C157.217 66.6256 156.949 65.921 157.153 65.2164C157.337 64.5843 157.873 63.7348 158.473 63.8878C159.073 64.0408 159.249 64.8621 158.941 65.4781Z" fill="#EEC1BB"/>
<path id="Vector_59" d="M155.28 62.1766C155.263 62.1773 155.246 62.174 155.23 62.167C155.214 62.1601 155.2 62.1496 155.188 62.1364C155.085 62.0157 154.953 61.9224 154.805 61.8648C154.657 61.8073 154.498 61.7872 154.34 61.8062C154.324 61.8104 154.307 61.811 154.291 61.808C154.275 61.805 154.259 61.7985 154.246 61.789C154.232 61.7794 154.22 61.7671 154.212 61.7527C154.203 61.7383 154.198 61.7222 154.196 61.7056C154.193 61.6701 154.202 61.6345 154.223 61.6055C154.243 61.5766 154.274 61.5563 154.308 61.5486C154.507 61.5198 154.709 61.5416 154.897 61.612C155.085 61.6823 155.253 61.7989 155.384 61.9512C155.4 61.9716 155.409 61.9957 155.412 62.0211C155.414 62.0465 155.41 62.0721 155.399 62.0953C155.389 62.1184 155.372 62.1382 155.351 62.1526C155.33 62.1669 155.306 62.1752 155.28 62.1766Z" fill="#263238"/>
<path id="Vector_60" d="M151.252 61.9351C151.219 61.9369 151.186 61.9269 151.16 61.9069C151.136 61.8821 151.123 61.8488 151.123 61.8143C151.123 61.7797 151.136 61.7465 151.16 61.7217C151.294 61.5582 151.464 61.4282 151.656 61.3416C151.848 61.255 152.058 61.2142 152.268 61.2224C152.285 61.2237 152.301 61.2286 152.316 61.2369C152.331 61.2452 152.344 61.2567 152.354 61.2705C152.364 61.2843 152.37 61.3001 152.374 61.3169C152.377 61.3336 152.376 61.3508 152.372 61.3674C152.366 61.4018 152.348 61.4329 152.32 61.4545C152.293 61.4761 152.259 61.4866 152.224 61.4841C152.057 61.4784 151.891 61.5119 151.739 61.5817C151.587 61.6516 151.453 61.756 151.348 61.8867C151.323 61.9144 151.289 61.9316 151.252 61.9351Z" fill="#263238"/>
<path id="Vector_61" d="M154.4 62.9698L153.9 62.7766C153.9 62.7766 154.1 63.2154 154.4 62.9698Z" fill="#263238"/>
<path id="Vector_62" d="M156.864 61.4761C156.864 61.4761 155.2 60.9406 155.368 59.4066C155.368 59.4066 154.72 59.5314 155.2 60.9406C155.2 60.9406 153.272 60.1354 151.464 60.4413C151.464 60.4413 150.792 58.6416 153.864 58.0619C156.936 57.4821 158.484 59.459 158.448 60.3729C158.412 61.2868 156.864 61.4761 156.864 61.4761Z" fill="#263238"/>
<path id="Vector_63" opacity="0.3" d="M159.96 83.1289C159.772 84.6468 159.636 86.3177 159.592 88.1013C157.892 87.445 154.28 85.7138 154.792 83.0847C154.8 83.0847 156 83.3423 159.96 83.1289Z" fill="black"/>
<path id="Vector_64" opacity="0.3" d="M160.444 79.9483C160.316 80.6408 160.192 81.3856 160.084 82.1748C159.402 80.9617 159.122 79.5612 159.284 78.1768L160.444 79.9483Z" fill="black"/>
<path id="Vector_65" d="M154.088 84.8039C153.995 84.8973 153.868 84.9497 153.736 84.9497C153.605 84.9497 153.478 84.8973 153.384 84.8039L147.344 78.5834C147.252 78.4892 147.2 78.3618 147.2 78.2291C147.2 78.0964 147.252 77.969 147.344 77.8748C147.438 77.7814 147.565 77.7289 147.696 77.7289C147.828 77.7289 147.955 77.7814 148.048 77.8748L154.088 84.0993C154.135 84.1454 154.172 84.2002 154.197 84.2607C154.222 84.3212 154.235 84.386 154.235 84.4516C154.235 84.5171 154.222 84.582 154.197 84.6425C154.172 84.703 154.135 84.7578 154.088 84.8039Z" fill="#6F9F77"/>
<path id="Vector_66" d="M148.889 76.9447L146.399 79.392L147.766 80.8006L150.255 78.3533L148.889 76.9447Z" fill="#6F9F77"/>
<path id="Vector_67" opacity="0.7" d="M148.889 76.9447L146.399 79.392L147.766 80.8006L150.255 78.3533L148.889 76.9447Z" fill="white"/>
<path id="Vector_68" d="M146.448 79.1323L146.165 79.4108L147.741 81.0354L148.024 80.7569L146.448 79.1323Z" fill="#6F9F77"/>
<path id="Vector_69" d="M148.909 76.7101L148.626 76.9886L150.202 78.6129L150.485 78.3344L148.909 76.7101Z" fill="#6F9F77"/>
<path id="Vector_70" opacity="0.5" d="M146.448 79.1323L146.165 79.4108L147.741 81.0354L148.024 80.7569L146.448 79.1323Z" fill="white"/>
<path id="Vector_71" opacity="0.5" d="M148.909 76.7101L148.626 76.9886L150.202 78.6129L150.485 78.3344L148.909 76.7101Z" fill="white"/>
<path id="Vector_72" d="M152.613 82.4888L153.413 82.2392C153.56 82.1939 153.716 82.1846 153.867 82.2119C154.019 82.2392 154.162 82.3024 154.285 82.3962L155.445 83.286C155.673 83.4604 155.857 83.6875 155.98 83.9481C156.103 84.2087 156.162 84.4953 156.153 84.7837V85.1501C154.865 85.6494 153.109 85.2347 153.109 85.2347L152.597 85.1743C152.491 85.1652 152.388 85.135 152.293 85.0853C152.199 85.0357 152.116 84.9677 152.048 84.8852C151.98 84.8027 151.929 84.7075 151.899 84.605C151.868 84.5026 151.858 84.395 151.869 84.2885L151.977 83.2618C151.999 83.0854 152.07 82.919 152.183 82.782C152.295 82.6451 152.445 82.5434 152.613 82.4888Z" fill="#EEC1BB"/>
<path id="Vector_73" d="M160.972 86.4909C160.516 86.4909 160.084 86.4546 159.716 86.4224C159.011 86.3443 158.31 86.2274 157.616 86.0721C156.868 85.895 156.24 85.7339 155.588 85.5125L155.44 85.4642L155.816 83.5115H156.444C156.884 83.5115 157.332 83.5397 157.772 83.5397H158.172C158.804 83.5397 159.312 83.5397 159.772 83.4954C160.291 83.4731 160.806 83.4044 161.312 83.29C161.032 82.2915 160.684 81.2367 160.252 80.0691C160.036 79.4893 159.772 78.8008 159.488 78.0962C159.288 77.5889 159.088 77.0776 158.86 76.5864L158.608 75.9946L161.968 74.3841L162.048 74.5492C162.392 75.2538 162.66 75.91 162.944 76.6106L162.968 76.671C163.264 77.4279 163.516 78.1325 163.74 78.833C164.227 80.3087 164.597 81.8205 164.848 83.3545V83.435C164.863 83.5255 164.87 83.6171 164.868 83.7088C164.852 84.2043 164.695 84.6848 164.416 85.0938C164.178 85.4279 163.868 85.7032 163.508 85.899C163.044 86.1476 162.538 86.3086 162.016 86.3741C161.671 86.4365 161.323 86.4755 160.972 86.4909Z" fill="#6F9F77"/>
<path id="Vector_74" opacity="0.7" d="M160.972 86.4909C160.516 86.4909 160.084 86.4546 159.716 86.4224C159.011 86.3443 158.31 86.2274 157.616 86.0721C156.868 85.895 156.24 85.7339 155.588 85.5125L155.44 85.4642L155.816 83.5115H156.444C156.884 83.5115 157.332 83.5397 157.772 83.5397H158.172C158.804 83.5397 159.312 83.5397 159.772 83.4954C160.291 83.4731 160.806 83.4044 161.312 83.29C161.032 82.2915 160.684 81.2367 160.252 80.0691C160.036 79.4893 159.772 78.8008 159.488 78.0962C159.288 77.5889 159.088 77.0776 158.86 76.5864L158.608 75.9946L161.968 74.3841L162.048 74.5492C162.392 75.2538 162.66 75.91 162.944 76.6106L162.968 76.671C163.264 77.4279 163.516 78.1325 163.74 78.833C164.227 80.3087 164.597 81.8205 164.848 83.3545V83.435C164.863 83.5255 164.87 83.6171 164.868 83.7088C164.852 84.2043 164.695 84.6848 164.416 85.0938C164.178 85.4279 163.868 85.7032 163.508 85.899C163.044 86.1476 162.538 86.3086 162.016 86.3741C161.671 86.4365 161.323 86.4755 160.972 86.4909Z" fill="white"/>
<path id="Vector_75" d="M165.056 83.4309V83.3544C164.802 81.811 164.429 80.2898 163.94 78.8048C163.716 78.1043 163.464 77.3916 163.164 76.6307L163.14 76.5703C162.852 75.8697 162.596 75.2537 162.24 74.4968C162.182 74.3511 162.103 74.2153 162.004 74.0942L158.404 75.914L158.724 76.675C158.936 77.1621 159.152 77.6694 159.348 78.1727C159.628 78.8692 159.892 79.5618 160.112 80.1415C160.512 81.2326 160.844 82.2271 161.112 83.1652C160.675 83.2524 160.233 83.3063 159.788 83.3262C159.332 83.3544 158.828 83.3705 158.188 83.3705H157.788C157.388 83.3705 156.988 83.3705 156.588 83.3424C156.216 83.9543 156.064 84.9045 155.964 85.8144C156.48 85.9715 157 86.1043 157.596 86.2452C158.297 86.4018 159.006 86.5201 159.72 86.5995C160.092 86.6318 160.52 86.668 160.992 86.668C161.36 86.6687 161.727 86.6445 162.092 86.5955C162.635 86.5255 163.161 86.3563 163.644 86.0963C164.028 85.8844 164.359 85.5869 164.612 85.2266C164.91 84.7861 165.078 84.2696 165.096 83.7369C165.091 83.634 165.077 83.5317 165.056 83.4309Z" fill="#263238"/>
<path id="Vector_76" d="M142.924 84.5019H127.676V85.6816L143.428 90.5935H158.676V89.4139L142.924 84.5019Z" fill="#6F9F77"/>
<path id="Vector_77" opacity="0.2" d="M127.676 85.6816H142.924L158.676 90.5935H143.428L127.676 85.6816Z" fill="black"/>
<path id="Vector_78" opacity="0.2" d="M142.924 84.5019H127.676V85.6816H142.924V84.5019Z" fill="#FAFAFA"/>
<path id="Vector_79" d="M150.04 89.0113V145.583H136.308V87.2115H144.276L150.04 89.0113Z" fill="#6F9F77"/>
<path id="Vector_80" opacity="0.2" d="M150.04 89.0113V145.583H144.276V87.2115L150.04 89.0113Z" fill="black"/>
<path id="Vector_81" opacity="0.1" d="M150.04 89.0113V91.4914H136.308V87.2115H144.276L150.04 89.0113Z" fill="black"/>
</g>
<g id="character-1">
<path id="Vector_82" d="M52.2129 74.0016C52.2569 74.2149 52.4009 74.3639 52.5409 74.3357C52.6809 74.3076 52.7529 74.1143 52.7129 73.9009C52.6729 73.6875 52.5209 73.5426 52.3849 73.5708C52.2489 73.5989 52.1689 73.7922 52.2129 74.0016Z" fill="#263238"/>
<path id="Vector_83" d="M52.4004 74.368C52.7832 74.9648 53.2448 75.5066 53.7724 75.9785C53.6511 76.1129 53.5018 76.2188 53.3352 76.2884C53.1685 76.358 52.9886 76.3896 52.8084 76.3811L52.4004 74.368Z" fill="#892B29"/>
<path id="Vector_84" d="M51.2006 72.9829C51.1852 72.9837 51.1697 72.9812 51.1553 72.9757C51.1408 72.9701 51.1276 72.9616 51.1166 72.9507C51.0929 72.9266 51.0796 72.8941 51.0796 72.8601C51.0796 72.8262 51.0929 72.7937 51.1166 72.7695C51.2504 72.6213 51.4176 72.5073 51.6041 72.4373C51.7905 72.3673 51.991 72.3431 52.1886 72.3669C52.2215 72.3723 52.2509 72.3905 52.2704 72.4177C52.2899 72.4449 52.2979 72.4788 52.2926 72.5119C52.2873 72.545 52.2691 72.5746 52.2421 72.5942C52.2151 72.6139 52.1815 72.6219 52.1486 72.6165C51.9906 72.6033 51.8316 72.6273 51.6844 72.6868C51.5372 72.7462 51.4058 72.8393 51.3006 72.9588C51.2868 72.97 51.2706 72.978 51.2533 72.9822C51.236 72.9864 51.218 72.9866 51.2006 72.9829Z" fill="#263238"/>
<path id="Vector_85" d="M46.2162 76.985C46.5962 78.9457 46.9802 82.5371 45.6162 83.8295C45.6162 83.8295 46.1482 85.8185 49.7682 85.8185C53.7682 85.8185 51.6722 83.8295 51.6722 83.8295C49.5002 83.3101 49.5562 81.6876 49.9322 80.1617L46.2162 76.985Z" fill="#9F5B53"/>
<path id="Vector_86" d="M45.1002 74.992C45.7842 77.5607 46.0562 79.0987 47.6322 80.1697C50.0002 81.7802 52.9522 79.9322 53.0442 77.2064C53.1282 74.7545 51.9922 70.9658 49.2522 70.4464C48.6483 70.328 48.0244 70.3673 47.4398 70.5606C46.8553 70.7539 46.3298 71.0947 45.9134 71.5506C45.497 72.0065 45.2036 72.5622 45.0612 73.1646C44.9189 73.7671 44.9323 74.3962 45.1002 74.992Z" fill="#9F5B53"/>
<path id="Vector_87" d="M46.2726 79.1672C47.3566 79.7912 51.3166 77.7016 50.5046 74.533C50.5046 74.533 52.0126 72.7092 51.8406 70.6961C51.6686 68.683 50.2966 67.914 48.8366 68.3448C47.5486 68.7474 47.5846 69.4359 47.5846 69.4359C47.5846 69.4359 41.5006 70.1566 42.7846 72.6568C40.3206 75.3826 44.9166 78.4022 46.2726 79.1672Z" fill="#263238"/>
<path id="Vector_88" d="M51.0761 73.2607C51.5308 74.2934 51.8301 75.3884 51.9641 76.5099C51.9641 76.5099 52.2081 77.0856 53.0681 76.687C53.0681 76.687 54.2681 79.292 52.4601 80.7656C52.1087 81.0817 51.6527 81.2544 51.1815 81.25C50.7102 81.2455 50.2575 81.0642 49.9121 80.7414C51.7721 79.8959 52.2761 77.8385 50.7121 73.5667L51.0761 73.2607Z" fill="#263238"/>
<path id="Vector_89" d="M49.4443 75.0967C49.6163 75.7384 49.9947 76.3048 50.5203 76.7072C51.2123 77.2265 51.7203 76.7072 51.6803 75.9261C51.6363 75.2134 51.2203 74.0861 50.4563 73.8767C49.6923 73.6674 49.2443 74.3357 49.4443 75.0967Z" fill="#9F5B53"/>
<path id="Vector_90" d="M69.3607 143.466L71.9887 142.495L70.9607 135.929L68.3367 136.899L69.3607 143.466Z" fill="#9F5B53"/>
<path id="Vector_91" opacity="0.2" d="M68.3367 136.899L70.9607 135.933L71.5487 139.685L68.8967 140.518L68.3367 136.899Z" fill="black"/>
<path id="Vector_92" d="M72.3006 142.781C72.3006 142.781 72.3006 142.781 72.3006 142.801C72.3042 142.803 72.3084 142.804 72.3126 142.804C72.3168 142.804 72.3209 142.803 72.3246 142.801C72.5656 142.862 72.8123 142.897 73.0606 142.906C73.2473 142.926 73.435 142.878 73.5886 142.769C73.6359 142.722 73.6687 142.663 73.6829 142.598C73.6971 142.533 73.6921 142.465 73.6686 142.403C73.6625 142.361 73.6456 142.321 73.6197 142.288C73.5937 142.255 73.5595 142.229 73.5206 142.213C73.253 142.184 72.9836 142.251 72.7606 142.403C72.9188 142.219 73.0067 141.985 73.0086 141.742C72.9981 141.688 72.97 141.639 72.9287 141.603C72.8875 141.566 72.8354 141.544 72.7806 141.541C72.7321 141.534 72.6827 141.538 72.6362 141.554C72.5897 141.569 72.5474 141.595 72.5126 141.63C72.2326 141.899 72.3126 142.693 72.3166 142.737H72.2726C72.2714 142.742 72.2712 142.747 72.272 142.751C72.2728 142.756 72.2745 142.761 72.2771 142.765C72.2798 142.769 72.2832 142.773 72.2872 142.775C72.2912 142.778 72.2958 142.78 72.3006 142.781ZM72.4606 142.576L72.4046 142.612C72.3725 142.308 72.4384 142.002 72.5926 141.738C72.6104 141.719 72.6321 141.704 72.6562 141.693C72.6803 141.683 72.7063 141.678 72.7326 141.678H72.7646C72.8566 141.678 72.8806 141.734 72.8846 141.775C72.8375 142.078 72.6877 142.355 72.4606 142.56V142.576ZM72.5086 142.713C72.8366 142.507 73.3086 142.274 73.4846 142.346C73.5041 142.353 73.5213 142.365 73.5341 142.382C73.5469 142.398 73.5547 142.418 73.5566 142.439C73.5697 142.479 73.5722 142.521 73.5638 142.562C73.5554 142.603 73.5363 142.641 73.5086 142.672C73.3766 142.781 73.0086 142.781 72.5086 142.697V142.713Z" fill="#6F9F77"/>
<path id="Vector_93" d="M72.0842 142.403H68.9442C68.8918 142.4 68.8406 142.419 68.8017 142.454C68.7628 142.49 68.7393 142.539 68.7362 142.592L68.5722 145.092C68.5711 145.223 68.6214 145.349 68.712 145.442C68.8027 145.536 68.9264 145.589 69.0562 145.591C70.1522 145.591 70.6762 145.519 72.0562 145.515C73.2849 145.57 74.516 145.537 75.7402 145.418C76.9002 145.237 76.6922 144.09 76.1842 144.061C74.8699 143.891 73.6224 143.379 72.5642 142.576C72.4283 142.465 72.2591 142.404 72.0842 142.403Z" fill="#263238"/>
<path id="Vector_94" d="M43.253 88.5925L42.209 90.4405L41.201 92.2966C40.525 93.5487 39.881 94.813 39.293 96.0772C38.997 96.7133 38.721 97.3455 38.465 97.9816L38.401 98.0903V98.1185C38.3863 98.1315 38.3752 98.1481 38.369 98.1668C38.369 98.199 38.337 98.2312 38.317 98.2715C38.2952 98.4072 38.3104 98.5464 38.361 98.6741C38.5616 99.1728 38.8594 99.6259 39.237 100.007C39.6795 100.487 40.1525 100.937 40.653 101.356L39.801 103.179C39.0014 102.954 38.2357 102.621 37.525 102.189C36.7096 101.718 36.0108 101.066 35.481 100.285C35.1516 99.7814 34.9334 99.213 34.841 98.6177C34.7678 98.1256 34.7895 97.6239 34.905 97.1401L34.965 96.9026L35.009 96.7576C35.241 96.0128 35.485 95.276 35.765 94.5633C36.3074 93.1509 36.9202 91.7668 37.601 90.4164C37.937 89.74 38.289 89.0689 38.657 88.4033C39.029 87.743 39.393 87.1028 39.817 86.4385L43.253 88.5925Z" fill="#9F5C53"/>
<path id="Vector_95" d="M39.7284 101.166L41.6324 100.667L41.7444 103.763C41.7444 103.763 40.2524 103.989 39.3444 103.071L39.7284 101.166Z" fill="#9F5B53"/>
<path id="Vector_96" d="M44.3321 100.148L43.9041 102.865L41.7441 103.763L41.6321 100.667L44.3321 100.148Z" fill="#9F5B53"/>
<path id="Vector_97" d="M44.8321 84.212C44.5401 83.6644 44.2201 83.0404 44.8801 82.8471C45.6121 82.6337 50.2961 82.2351 51.6801 82.6377C51.2561 83.3947 51.9721 84.3247 51.9721 84.3247L44.8321 84.212Z" fill="#6F9F77"/>
<path id="Vector_98" d="M40.8484 84.4536C38.3524 85.0294 36.2924 91.4431 36.2924 91.4431L41.3044 95.272C42.6029 93.8815 43.5196 92.1748 43.9644 90.3198C44.8204 86.974 43.4004 83.8658 40.8484 84.4536Z" fill="#6F9F77"/>
<path id="Vector_99" opacity="0.6" d="M40.8484 84.4536C38.3524 85.0294 36.2924 91.4431 36.2924 91.4431L41.3044 95.272C42.6029 93.8815 43.5196 92.1748 43.9644 90.3198C44.8204 86.974 43.4004 83.8658 40.8484 84.4536Z" fill="#FAFAFA"/>
<path id="Vector_100" opacity="0.2" d="M42.9889 89.1683C41.6329 90.5211 41.1889 92.9811 41.0849 95.119L41.3049 95.2881C42.6022 93.8968 43.5188 92.1904 43.9649 90.3359C44.0169 90.1346 44.0609 89.9333 44.0969 89.736L42.9889 89.1683Z" fill="black"/>
<path id="Vector_101" d="M55.7684 84.5905C55.7684 84.5905 58.6044 87.8114 55.9244 107.761H41.6804C41.5804 105.563 42.9564 94.8251 40.8484 84.4536C42.4177 84.1475 44.005 83.9445 45.6004 83.8456C47.6174 83.7288 49.6395 83.7288 51.6564 83.8456C53.0441 83.9874 54.4188 84.2364 55.7684 84.5905Z" fill="#6F9F77"/>
<path id="Vector_102" opacity="0.6" d="M55.7684 84.5905C55.7684 84.5905 58.6044 87.8114 55.9244 107.761H41.6804C41.5804 105.563 42.9564 94.8251 40.8484 84.4536C42.4177 84.1475 44.005 83.9445 45.6004 83.8456C47.6174 83.7288 49.6395 83.7288 51.6564 83.8456C53.0441 83.9874 54.4188 84.2364 55.7684 84.5905Z" fill="#FAFAFA"/>
<path id="Vector_103" opacity="0.2" d="M57.0122 90.6902L56.9602 90.6418L53.7202 91.4229C53.5362 93.6253 55.7882 96.2544 56.9482 97.4622C57.092 95.2077 57.1134 92.947 57.0122 90.6902Z" fill="black"/>
<path id="Vector_104" d="M57.6009 85.4843C58.8009 86.4183 60.0849 87.3887 61.3329 88.2422C61.9291 88.6543 62.5488 89.0307 63.1889 89.3695C63.4469 89.5066 63.7142 89.625 63.9889 89.7239L64.1249 89.7681L64.1969 89.7923C64.2329 89.7923 64.1489 89.7923 64.1089 89.7923C64.0696 89.7989 64.0308 89.8083 63.9929 89.8205C63.944 89.8354 63.8981 89.8585 63.8569 89.8889C63.7929 89.9614 63.9969 89.8245 64.1569 89.6111C64.3533 89.3586 64.5273 89.0891 64.6769 88.8059C65.036 88.1474 65.354 87.467 65.6289 86.7686C66.2049 85.3272 66.7409 83.7892 67.2289 82.2754L69.1969 82.6257C69.0988 84.3276 68.8565 86.018 68.4729 87.6786C68.269 88.5494 68.0016 89.4039 67.6729 90.2352C67.4883 90.7003 67.2648 91.1488 67.0049 91.5759C66.6644 92.171 66.1853 92.6739 65.6089 93.0414C65.389 93.1712 65.1539 93.2726 64.9089 93.3434C64.7775 93.3812 64.6439 93.4108 64.5089 93.432C64.3689 93.432 64.1849 93.4561 64.1089 93.4521C63.9298 93.4504 63.7509 93.4396 63.5729 93.4199C63.4049 93.3998 63.2529 93.3716 63.1089 93.3434C62.5962 93.232 62.0953 93.0716 61.6129 92.8643C60.7806 92.5186 59.9744 92.1122 59.2009 91.6484C57.7326 90.7552 56.3375 89.7454 55.0289 88.6287L57.6009 85.4843Z" fill="#9F5C53"/>
<path id="Vector_105" d="M51.7806 88.9508C51.9726 92.6429 59.1606 94.1849 59.1606 94.1849L61.7966 88.2463C60.0636 86.8079 58.1962 85.5418 56.2206 84.4657C52.6086 82.5774 51.6366 86.1446 51.7806 88.9508Z" fill="#6F9F77"/>
<path id="Vector_106" opacity="0.6" d="M51.7806 88.9508C51.9726 92.6429 59.1606 94.1849 59.1606 94.1849L61.7966 88.2463C60.0636 86.8079 58.1962 85.5418 56.2206 84.4657C52.6086 82.5774 51.6366 86.1446 51.7806 88.9508Z" fill="#FAFAFA"/>
<path id="Vector_107" d="M71.9761 138.566L66.9641 139.621C66.9641 139.621 62.0361 125.931 61.6561 116.889C60.0321 117.166 56.6001 117.77 53.0241 118.032C48.8121 118.342 44.4001 118.161 42.5041 116.397C40.6081 114.634 41.3961 106.143 41.3961 106.143L56.1961 105.7L57.8681 108.486C59.3841 108.583 60.8441 108.526 62.1841 108.534C62.8774 108.533 63.5704 108.568 64.2601 108.639C66.5961 108.921 68.3281 109.891 68.9601 113.164C70.6241 121.845 71.9761 138.566 71.9761 138.566Z" fill="#263238"/>
<path id="Vector_108" opacity="0.2" d="M71.977 138.566L66.965 139.621C66.965 139.621 62.037 125.931 61.657 116.889C60.033 117.166 56.601 117.77 53.025 118.032L62.177 108.558C62.8704 108.557 63.5633 108.592 64.253 108.663C66.589 108.945 68.321 109.915 68.953 113.189C70.625 121.845 71.977 138.566 71.977 138.566Z" fill="black"/>
<path id="Vector_109" d="M75.3124 143.292L78.0604 142.749L78.0644 136.102L75.3204 136.649L75.3124 143.292Z" fill="#9F5B53"/>
<path id="Vector_110" opacity="0.2" d="M75.3203 136.649L78.0643 136.106V139.906L75.3163 140.309L75.3203 136.649Z" fill="black"/>
<path id="Vector_111" d="M79.6323 138.497L74.5163 138.775C74.5163 138.775 71.7723 122.066 72.6683 115.616C72.4323 115.616 72.1203 115.616 71.7403 115.653C71.0563 115.685 70.1403 115.741 69.0843 115.814C61.6883 116.325 46.7963 117.65 46.7963 117.65L50.8603 108.792C50.8603 108.792 77.1643 104.564 80.0003 110.974C81.3483 114.05 79.6323 138.497 79.6323 138.497Z" fill="#263238"/>
<path id="Vector_112" d="M78.4687 142.781C78.4687 142.781 78.4687 142.781 78.4687 142.801C78.4725 142.803 78.4766 142.804 78.4807 142.804C78.4849 142.804 78.489 142.803 78.4927 142.801C78.7337 142.862 78.9804 142.897 79.2287 142.906C79.4154 142.926 79.6031 142.878 79.7567 142.769C79.8032 142.722 79.8354 142.662 79.8496 142.598C79.8637 142.533 79.8593 142.465 79.8367 142.403C79.8306 142.361 79.8138 142.321 79.7878 142.288C79.7618 142.255 79.7277 142.229 79.6887 142.213C79.4211 142.184 79.1518 142.251 78.9287 142.403C79.0854 142.218 79.1732 141.985 79.1767 141.742C79.166 141.687 79.1374 141.638 79.0953 141.601C79.0532 141.565 79.0002 141.544 78.9447 141.541C78.8963 141.534 78.847 141.539 78.8005 141.554C78.754 141.569 78.7117 141.595 78.6767 141.63C78.4007 141.899 78.4807 142.693 78.4807 142.737H78.4367C78.4355 142.747 78.4381 142.757 78.4441 142.765C78.45 142.773 78.4588 142.779 78.4687 142.781ZM78.6287 142.576L78.5727 142.612C78.5407 142.308 78.6066 142.002 78.7607 141.738C78.7778 141.719 78.7988 141.704 78.8222 141.693C78.8457 141.683 78.8711 141.678 78.8967 141.678H78.9287C79.0247 141.678 79.0487 141.734 79.0527 141.775C79.0057 142.078 78.8559 142.355 78.6287 142.56V142.576ZM78.6767 142.713C79.0007 142.507 79.4767 142.274 79.6527 142.346C79.6714 142.355 79.6877 142.367 79.7002 142.383C79.7128 142.4 79.7212 142.419 79.7247 142.439C79.7371 142.479 79.7392 142.521 79.7308 142.562C79.7224 142.603 79.7038 142.641 79.6767 142.672C79.5447 142.781 79.1767 142.781 78.6767 142.697V142.713Z" fill="#6F9F77"/>
<path id="Vector_113" d="M78.2525 142.403H75.1125C75.0865 142.401 75.0603 142.405 75.0357 142.413C75.011 142.422 74.9883 142.436 74.969 142.453C74.9496 142.471 74.9339 142.492 74.9228 142.516C74.9118 142.54 74.9056 142.566 74.9045 142.592L74.7405 145.092C74.7395 145.157 74.7512 145.221 74.775 145.282C74.7988 145.342 74.8342 145.397 74.8792 145.443C74.9242 145.49 74.9779 145.527 75.0372 145.552C75.0964 145.578 75.1601 145.591 75.2245 145.591C76.3205 145.591 76.8445 145.519 78.2245 145.515C79.4533 145.57 80.6843 145.537 81.9085 145.418C83.0685 145.237 82.8565 144.09 82.3525 144.061C81.0453 143.887 79.8051 143.375 78.7525 142.576C78.6102 142.463 78.4339 142.402 78.2525 142.403Z" fill="#263238"/>
<path id="Vector_114" d="M58.7288 94.0641C58.6848 94.0641 61.4368 87.6222 61.4368 87.6222L62.3848 88.2543L59.5528 94.4667L58.7288 94.0641Z" fill="#6F9F77"/>
<path id="Vector_115" d="M69.5726 82.4566C69.4665 82.4566 69.3648 82.4142 69.2898 82.3387C69.2148 82.2632 69.1726 82.1608 69.1726 82.054V71.602C69.1726 71.4952 69.2148 71.3928 69.2898 71.3173C69.3648 71.2418 69.4665 71.1993 69.5726 71.1993C69.6787 71.1993 69.7805 71.2418 69.8555 71.3173C69.9305 71.3928 69.9726 71.4952 69.9726 71.602V82.0459C69.9737 82.0995 69.9641 82.1527 69.9445 82.2025C69.9249 82.2522 69.8956 82.2976 69.8583 82.3358C69.8211 82.3741 69.7766 82.4045 69.7276 82.4252C69.6785 82.4459 69.6258 82.4566 69.5726 82.4566Z" fill="#263238"/>
<path id="Vector_116" d="M69.8728 72.3508C71.3507 72.3508 72.5488 70.7231 72.5488 68.7152C72.5488 66.7073 71.3507 65.0795 69.8728 65.0795C68.3949 65.0795 67.1968 66.7073 67.1968 68.7152C67.1968 70.7231 68.3949 72.3508 69.8728 72.3508Z" fill="#6F9F77"/>
<path id="Vector_117" opacity="0.2" d="M69.8728 72.3508C71.3507 72.3508 72.5488 70.7231 72.5488 68.7152C72.5488 66.7073 71.3507 65.0795 69.8728 65.0795C68.3949 65.0795 67.1968 66.7073 67.1968 68.7152C67.1968 70.7231 68.3949 72.3508 69.8728 72.3508Z" fill="black"/>
<path id="Vector_118" d="M69.5126 72.3508C70.9905 72.3508 72.1886 70.7231 72.1886 68.7152C72.1886 66.7073 70.9905 65.0795 69.5126 65.0795C68.0347 65.0795 66.8366 66.7073 66.8366 68.7152C66.8366 70.7231 68.0347 72.3508 69.5126 72.3508Z" fill="#6F9F77"/>
<path id="Vector_119" d="M70.3436 69.46C70.3436 70.0599 70.0596 70.5551 69.4596 70.5551C69.2989 70.5536 69.1405 70.5168 68.9954 70.4472C68.8503 70.3777 68.722 70.2771 68.6196 70.1525L68.7956 69.6613C68.8732 69.7628 68.9724 69.8455 69.0859 69.9033C69.1994 69.9611 69.3244 69.9926 69.4516 69.9955C69.5185 69.999 69.5854 69.9877 69.6475 69.9623C69.7096 69.9368 69.7653 69.8979 69.8108 69.8483C69.8562 69.7987 69.8903 69.7397 69.9104 69.6753C69.9306 69.611 69.9365 69.543 69.9276 69.4761C69.9276 69.15 69.7876 68.9446 69.3236 68.9446H68.7996L68.9116 67.0845H70.2236V67.616H69.2636L69.2156 68.4212H69.4316C70.0796 68.4132 70.3436 68.8561 70.3436 69.46Z" fill="white"/>
<path id="Vector_120" d="M69.6001 79.0988L68.7041 79.3202C68.537 79.3604 68.382 79.4407 68.2525 79.5543C68.1229 79.6679 68.0226 79.8113 67.9601 79.9725L67.3561 81.4903C67.2365 81.7903 67.1905 82.1148 67.2218 82.4365C67.2531 82.7581 67.3609 83.0675 67.5361 83.3383L67.7521 83.6806C69.2681 83.4148 70.7161 82.0017 70.7161 82.0017L71.1721 81.6474C71.2677 81.5769 71.3485 81.4881 71.4098 81.386C71.471 81.284 71.5116 81.1707 71.5291 81.0527C71.5466 80.9348 71.5406 80.8145 71.5116 80.6989C71.4826 80.5833 71.4311 80.4746 71.3601 80.3791L70.6721 79.4611C70.5475 79.3027 70.3799 79.1841 70.1896 79.1197C69.9993 79.0554 69.7945 79.0481 69.6001 79.0988Z" fill="#9F5B53"/>
<path id="Vector_121" d="M67.7443 118.378V145.599H31.6803V90.4405C31.6797 89.7805 31.8085 89.1269 32.0592 88.517C32.3099 87.9072 32.6776 87.353 33.1412 86.8864C33.6049 86.4197 34.1554 86.0496 34.7613 85.7972C35.3672 85.5449 36.0166 85.4153 36.6723 85.4158H46.8003C47.9521 85.4152 49.0688 85.8158 49.9605 86.5497C50.8522 87.2836 51.4641 88.3056 51.6923 89.442L56.4003 113.056C56.4895 113.496 56.7269 113.892 57.0722 114.176C57.4176 114.461 57.8499 114.617 58.2963 114.618H64.0003C64.4916 114.617 64.9782 114.713 65.4324 114.902C65.8866 115.09 66.2994 115.367 66.6472 115.716C66.995 116.066 67.2709 116.481 67.4591 116.937C67.6474 117.394 67.7443 117.884 67.7443 118.378Z" fill="#6F9F77"/>
<path id="Vector_122" opacity="0.2" d="M52.0923 118.865C50.4003 123.882 45.6003 122.135 45.6003 122.135C48.8003 122.288 50.8683 118.439 51.6283 116.756L46.1883 91.0807C46.0218 90.2983 45.5939 89.597 44.9759 89.0936C44.3579 88.5903 43.5872 88.3154 42.7923 88.3147H33.8363C33.2704 88.3093 32.7256 88.5302 32.3214 88.9287C31.9172 89.3273 31.6866 89.871 31.6803 90.4405V145.599H52.2163V119.429L52.0923 118.865ZM33.6003 100.667C33.6003 100.667 38.1843 108.156 42.5883 108.558C42.5883 108.558 36.2883 109.42 33.6003 100.667Z" fill="black"/>
<path id="Vector_123" opacity="0.2" d="M64.9443 122.139C64.9443 122.139 61.2283 135.28 57.0763 136.601C57.0763 136.601 63.8643 126.564 64.9443 122.139Z" fill="black"/>
</g>
<g id="character-2">
<path id="Vector_124" d="M124.8 135.937L123.36 136.859C111.476 125.71 107.244 115 107.244 115L106.164 142.286H103.9C102.672 135.409 102.032 130.01 101.712 125.988C101.22 119.844 101.464 116.929 101.464 116.929C101.464 116.929 99.2441 117.364 96.3161 117.734C90.9041 118.386 83.0641 118.741 82.2881 115.496C81.0881 110.491 82.8281 105.644 82.8281 105.644L94.0281 105.458L95.7081 107.757C95.7081 107.757 107.508 105.386 109.42 106.34C111.332 107.294 124.8 135.937 124.8 135.937Z" fill="#E9B376"/>
<path id="Vector_125" opacity="0.2" d="M107.244 115C107.088 117.505 104.276 122.187 101.712 126.004C101.22 119.86 101.464 116.945 101.464 116.945C101.464 116.945 99.2437 117.38 96.3157 117.75C99.1797 113.829 102.632 109.815 104.316 110.503C105.212 110.847 105.978 111.466 106.504 112.274C107.03 113.082 107.289 114.036 107.244 115Z" fill="black"/>
<path id="Vector_126" d="M81.012 93.4924C80.868 93.6897 80.68 93.9675 80.516 94.2131C80.352 94.4587 80.18 94.7284 80.016 94.9942C79.7 95.5216 79.38 96.0571 79.088 96.6046C78.5008 97.6874 77.994 98.8124 77.572 99.9705L77.312 100.744C77.2728 100.839 77.2658 100.945 77.292 101.046C77.4137 101.519 77.6212 101.965 77.904 102.362C78.6076 103.372 79.4016 104.316 80.276 105.18L79.336 106.545C78.0629 105.886 76.9051 105.023 75.908 103.989C75.3155 103.389 74.8549 102.67 74.556 101.879C74.3637 101.347 74.306 100.776 74.388 100.216L74.428 99.9826L74.46 99.8538L74.52 99.5921L74.648 99.0687C75.0251 97.696 75.5314 96.3627 76.16 95.0868C76.476 94.4587 76.808 93.8346 77.18 93.2347C77.368 92.9368 77.556 92.6388 77.756 92.3409C77.956 92.043 78.156 91.7732 78.408 91.4431L81.012 93.4924Z" fill="#E9B376"/>
<path id="Vector_127" d="M80.144 89.0636C78.304 89.5427 76.288 93.8951 76.288 93.8951L80.024 96.8302C80.024 96.8302 83.384 93.9796 83.224 91.1935C83.14 89.7883 81.952 88.5926 80.144 89.0636Z" fill="#263238"/>
<path id="Vector_128" d="M79.6718 104.891L82.2878 106.344L80.3238 107.31C80.3238 107.31 78.8718 106.835 79.0278 105.7L79.6718 104.891Z" fill="#EBB376"/>
<path id="Vector_129" d="M82.5323 107.435L81.6723 108.72L80.3243 107.31L82.2883 106.344L82.5323 107.435Z" fill="#EBB376"/>
<path id="Vector_130" d="M92.2876 80.3147C92.2876 80.5361 92.3836 80.7173 92.5276 80.7374C92.6716 80.7575 92.7996 80.5804 92.8116 80.3589C92.8236 80.1375 92.7156 79.9563 92.5716 79.9362C92.4276 79.9161 92.2996 80.0932 92.2876 80.3147Z" fill="#263238"/>
<path id="Vector_131" d="M92.5037 79.9443L93.0437 79.8356C93.0437 79.8356 92.7517 80.2261 92.5037 79.9443Z" fill="#263238"/>
<path id="Vector_132" d="M92.4645 80.5441C92.6349 81.066 92.8758 81.5619 93.1805 82.0177C93.0612 82.0895 92.9279 82.1342 92.7897 82.1488C92.6516 82.1634 92.5119 82.1475 92.3805 82.1023L92.4645 80.5441Z" fill="#A02724"/>
<path id="Vector_133" d="M92.6609 78.8653C92.6413 78.8712 92.6204 78.8712 92.6009 78.8653C92.4487 78.7982 92.2831 78.7677 92.1172 78.776C91.9513 78.7844 91.7896 78.8315 91.6449 78.9136C91.6307 78.9231 91.6148 78.9297 91.598 78.933C91.5813 78.9364 91.5641 78.9363 91.5474 78.933C91.5307 78.9296 91.5148 78.923 91.5006 78.9134C91.4865 78.9039 91.4743 78.8916 91.4649 78.8773C91.4554 78.8631 91.4488 78.8471 91.4455 78.8302C91.4422 78.8134 91.4422 78.7961 91.4456 78.7792C91.4489 78.7624 91.4555 78.7464 91.465 78.7322C91.4745 78.7179 91.4867 78.7057 91.5009 78.6962C91.6813 78.5905 91.8839 78.529 92.0923 78.5164C92.3007 78.5038 92.5091 78.5405 92.7009 78.6237C92.7285 78.6338 92.7518 78.6532 92.7669 78.6787C92.7819 78.7041 92.7879 78.7339 92.7836 78.7632C92.7794 78.7925 92.7653 78.8194 92.7437 78.8395C92.722 78.8595 92.6942 78.8715 92.6649 78.8733L92.6609 78.8653Z" fill="#263238"/>
<path id="Vector_134" d="M85.7761 83.0404C86.1761 84.6509 86.0241 87.437 84.9281 88.5402C84.9281 88.5402 86.1281 90.1265 89.1521 90.0782C92.4921 90.0218 90.6761 88.4033 90.6761 88.4033C88.8361 88.0007 88.8241 86.6559 89.0761 85.3837L85.7761 83.0404Z" fill="#EBB376"/>
<path id="Vector_135" d="M96.3198 90.8674C96.9518 92.2886 97.6038 93.7461 98.2638 95.1593C98.5918 95.8679 98.9478 96.5604 99.2918 97.2408C99.6144 97.8778 99.9765 98.4936 100.376 99.0848C100.439 99.1745 100.507 99.2605 100.58 99.3425C100.58 99.3425 100.6 99.3627 100.508 99.3143C100.429 99.2772 100.343 99.2567 100.256 99.2539C100.14 99.2539 100.176 99.2781 100.256 99.2539C100.368 99.225 100.478 99.1859 100.584 99.1372C101.199 98.8181 101.78 98.4348 102.316 97.9937C103.516 97.0637 104.68 95.9806 105.824 94.9338L107.092 95.9806C106.198 97.3836 105.172 98.6968 104.028 99.9022C103.409 100.57 102.709 101.158 101.944 101.65C101.703 101.8 101.448 101.926 101.184 102.028C100.81 102.175 100.409 102.24 100.008 102.217C99.7207 102.198 99.4397 102.124 99.1798 102C98.9777 101.898 98.7884 101.772 98.6158 101.625C98.3959 101.435 98.1913 101.228 98.0038 101.005C97.4465 100.312 96.9462 99.5741 96.5078 98.799C96.0798 98.0783 95.7078 97.3455 95.3078 96.6128C94.5598 95.1472 93.8878 93.6817 93.2598 92.1558L96.3198 90.8674Z" fill="#E9B376"/>
<path id="Vector_136" d="M82.8281 105.648L94.0281 105.466C95.9561 89.3616 94.6401 89.116 94.6401 89.116C93.7611 88.8549 92.8675 88.6465 91.9641 88.4919L91.8081 88.4678C91.0681 88.3631 90.9121 88.355 89.9361 88.2826C88.2761 88.2383 86.7361 88.2463 84.8601 88.3671C84.7401 88.3671 84.6201 88.3752 84.5001 88.3913C84.1641 88.4194 83.8281 88.4557 83.5041 88.4919C83.2881 88.4919 83.0721 88.5442 82.8641 88.5724L82.1641 88.6811C80.9641 88.8704 80.1401 89.0838 80.1401 89.0838C82.7001 98.3239 82.8001 101.118 82.8281 105.648Z" fill="#263238"/>
<path id="Vector_137" opacity="0.2" d="M93.4037 94.1527C93.4253 95.7924 93.875 97.3975 94.7077 98.807C94.9837 95.6746 95.0677 93.5729 95.0557 92.1235C94.2117 92.1879 93.3877 92.6429 93.4037 94.1527Z" fill="black"/>
<path id="Vector_138" d="M94.5202 89.0838C96.5562 89.889 98.2482 93.1301 98.8642 94.5675L95.4202 97.9897C95.4202 97.9897 92.0882 93.3797 92.5602 91.9182C93.0322 90.4567 93.7482 88.7818 94.5202 89.0838Z" fill="#263238"/>
<path id="Vector_139" d="M84.9122 79.1108C84.9362 81.8366 84.8882 82.9921 86.1922 84.4939C88.1482 86.7526 91.4922 86.2211 92.2802 83.5678C92.9922 81.1763 92.8322 77.1259 90.2242 75.8255C89.6678 75.5292 89.0442 75.3841 88.415 75.4045C87.7859 75.425 87.1729 75.6102 86.6365 75.9419C86.1002 76.2736 85.6591 76.7404 85.3567 77.2961C85.0543 77.8518 84.9011 78.4773 84.9122 79.1108Z" fill="#EBB376"/>
<path id="Vector_140" d="M90.2728 79.9282C90.3417 80.4306 90.564 80.8991 90.9088 81.2689C91.3888 81.7963 91.8608 81.587 91.9248 81.0515C91.9888 80.516 91.8008 79.7108 91.2248 79.3766C90.6488 79.0424 90.2128 79.3645 90.2728 79.9282Z" fill="#EBB376"/>
<path id="Vector_141" d="M82.8 104.238C82.8 104.238 79.816 112.887 81.848 116.949C83.88 121.011 103.74 118 103.74 118C103.74 118 106.8 111.433 105.74 105.861L95.032 106.9L93.996 104.621L82.8 104.238Z" fill="#6F9F77"/>
<path id="Vector_142" opacity="0.6" d="M82.8 104.238C82.8 104.238 79.816 112.887 81.848 116.949C83.88 121.011 103.74 118 103.74 118C103.74 118 106.8 111.433 105.74 105.861L95.032 106.9L93.996 104.621L82.8 104.238Z" fill="#FAFAFA"/>
<path id="Vector_143" d="M107.628 141.622C107.619 141.57 107.592 141.524 107.551 141.49C107.511 141.457 107.46 141.44 107.408 141.44C107.358 141.433 107.307 141.437 107.258 141.453C107.21 141.468 107.165 141.494 107.128 141.529C106.832 141.795 106.828 142.572 106.828 142.604C106.829 142.615 106.832 142.626 106.838 142.636C106.843 142.646 106.851 142.654 106.86 142.66C106.871 142.666 106.882 142.669 106.894 142.669C106.906 142.669 106.918 142.666 106.928 142.66C107.168 142.494 107.369 142.277 107.516 142.024C107.598 141.907 107.638 141.765 107.628 141.622ZM107.228 141.622C107.253 141.6 107.281 141.583 107.312 141.574C107.343 141.564 107.376 141.561 107.408 141.565C107.496 141.565 107.512 141.609 107.52 141.642C107.556 141.827 107.24 142.27 106.98 142.475C106.965 142.176 107.042 141.879 107.2 141.626L107.228 141.622Z" fill="#263238"/>
<path id="Vector_144" d="M106.66 142.29H103.54C103.486 142.288 103.434 142.306 103.393 142.34C103.352 142.374 103.324 142.422 103.316 142.475L102.972 144.891C102.966 144.953 102.973 145.015 102.994 145.074C103.014 145.133 103.046 145.187 103.088 145.232C103.131 145.277 103.182 145.313 103.239 145.337C103.296 145.361 103.358 145.372 103.42 145.37C104.508 145.35 105.02 145.285 106.408 145.277C107.252 145.277 108.484 145.354 109.652 145.35C110.82 145.346 110.876 144.218 110.388 144.118C108.208 143.667 107.864 143.039 107.128 142.439C106.993 142.338 106.828 142.285 106.66 142.29Z" fill="#6F9F77"/>
<path id="Vector_145" d="M108.248 142.274C108.244 142.236 108.231 142.199 108.208 142.168C108.186 142.137 108.155 142.112 108.12 142.097C107.8 141.948 106.956 142.499 106.86 142.548C106.849 142.555 106.841 142.565 106.836 142.577C106.83 142.59 106.829 142.603 106.832 142.616C106.835 142.628 106.841 142.639 106.849 142.649C106.858 142.658 106.868 142.665 106.88 142.668C107.244 142.749 107.892 142.854 108.148 142.612C108.173 142.59 108.193 142.564 108.208 142.536C108.253 142.456 108.267 142.363 108.248 142.274ZM108.068 142.213C108.083 142.221 108.096 142.233 108.105 142.247C108.114 142.261 108.119 142.277 108.12 142.294C108.13 142.334 108.13 142.375 108.12 142.415C108.109 142.454 108.089 142.49 108.06 142.519C107.748 142.664 107.393 142.682 107.068 142.572C107.412 142.379 107.9 142.137 108.068 142.213Z" fill="#6F9F77"/>
<path id="Vector_146" opacity="0.6" d="M106.66 142.29H103.54C103.486 142.288 103.434 142.306 103.393 142.34C103.352 142.374 103.324 142.422 103.316 142.475L102.972 144.891C102.966 144.953 102.973 145.015 102.994 145.074C103.014 145.133 103.046 145.187 103.088 145.232C103.131 145.277 103.182 145.313 103.239 145.337C103.296 145.361 103.358 145.372 103.42 145.37C104.508 145.35 105.02 145.285 106.408 145.277C107.252 145.277 108.484 145.354 109.652 145.35C110.82 145.346 110.876 144.218 110.388 144.118C108.208 143.667 107.864 143.039 107.128 142.439C106.993 142.338 106.828 142.285 106.66 142.29Z" fill="#FAFAFA"/>
<path id="Vector_147" d="M125.969 133.432C125.973 133.373 125.964 133.313 125.941 133.257C125.918 133.202 125.882 133.153 125.837 133.114C125.812 133.089 125.78 133.071 125.746 133.063C125.711 133.054 125.675 133.055 125.641 133.066C125.277 133.159 124.869 134.342 124.841 134.475C124.837 134.488 124.837 134.501 124.84 134.514C124.844 134.527 124.851 134.539 124.861 134.548C124.872 134.555 124.885 134.559 124.899 134.559C124.912 134.559 124.926 134.555 124.937 134.548C125.181 134.392 125.41 134.214 125.621 134.016C125.798 133.865 125.92 133.66 125.969 133.432ZM125.677 133.191C125.69 133.187 125.704 133.187 125.718 133.191C125.731 133.194 125.743 133.201 125.753 133.211C125.782 133.237 125.806 133.269 125.821 133.305C125.836 133.342 125.843 133.381 125.841 133.42C125.821 133.646 125.517 133.984 125.013 134.334C125.201 133.859 125.477 133.243 125.677 133.191Z" fill="#263238"/>
<path id="Vector_148" d="M124.944 134.519C125.08 134.181 125.144 133.287 124.892 133.098C124.832 133.054 124.736 133.026 124.596 133.138C124.581 133.147 124.567 133.158 124.556 133.171C124.116 133.601 124.804 134.499 124.836 134.535C124.842 134.545 124.851 134.553 124.862 134.557C124.873 134.561 124.885 134.562 124.896 134.56C124.908 134.563 124.92 134.563 124.932 134.56C124.938 134.555 124.942 134.549 124.944 134.541C124.946 134.534 124.946 134.526 124.944 134.519ZM124.676 133.239C124.768 133.167 124.804 133.195 124.816 133.203C124.964 133.316 124.968 133.968 124.864 134.354C124.704 134.121 124.364 133.549 124.648 133.263L124.676 133.239Z" fill="#263238"/>
<path id="Vector_149" d="M124.545 134.387L122.337 136.545C122.298 136.582 122.274 136.632 122.269 136.686C122.263 136.739 122.275 136.793 122.305 136.838L123.705 138.884C123.741 138.934 123.787 138.976 123.84 139.006C123.894 139.037 123.953 139.055 124.015 139.06C124.076 139.065 124.137 139.056 124.195 139.035C124.253 139.014 124.305 138.98 124.349 138.936C125.109 138.171 125.437 137.76 126.405 136.814C127.005 136.231 128.297 135.087 129.121 134.282C129.945 133.477 129.221 132.591 128.805 132.849C126.953 134.012 125.917 134.133 124.985 134.193C124.82 134.202 124.663 134.271 124.545 134.387Z" fill="#6F9F77"/>
<path id="Vector_150" opacity="0.6" d="M124.545 134.387L122.337 136.545C122.298 136.582 122.274 136.632 122.269 136.686C122.263 136.739 122.275 136.793 122.305 136.838L123.705 138.884C123.741 138.934 123.787 138.976 123.84 139.006C123.894 139.037 123.953 139.055 124.015 139.06C124.076 139.065 124.137 139.056 124.195 139.035C124.253 139.014 124.305 138.98 124.349 138.936C125.109 138.171 125.437 137.76 126.405 136.814C127.005 136.231 128.297 135.087 129.121 134.282C129.945 133.477 129.221 132.591 128.805 132.849C126.953 134.012 125.917 134.133 124.985 134.193C124.82 134.202 124.663 134.271 124.545 134.387Z" fill="#FAFAFA"/>
<path id="Vector_151" d="M82.0243 89.5951C81.5563 86.5472 82.9203 85.1099 82.7243 83.0404C82.5283 80.971 81.4403 79.4571 82.7243 77.0494C84.0083 74.6418 86.3763 73.6795 89.1003 74.3076C91.8243 74.9357 94.0723 76.0026 91.6843 80.7495C91.6843 80.7495 91.8523 83.3826 91.1003 85.2991C90.3483 87.2156 91.7243 89.1482 90.7003 91.5276C89.6763 93.9071 83.0763 96.4114 82.0243 89.5951Z" fill="#6F9F77"/>
<path id="Vector_152" opacity="0.4" d="M82.0243 89.5951C81.5563 86.5472 82.9203 85.1099 82.7243 83.0404C82.5283 80.971 81.4403 79.4571 82.7243 77.0494C84.0083 74.6418 86.3763 73.6795 89.1003 74.3076C91.8243 74.9357 94.0723 76.0026 91.6843 80.7495C91.6843 80.7495 91.8523 83.3826 91.1003 85.2991C90.3483 87.2156 91.7243 89.1482 90.7003 91.5276C89.6763 93.9071 83.0763 96.4114 82.0243 89.5951Z" fill="black"/>
<path id="Vector_153" d="M107.199 96.3913C107.093 96.3913 106.991 96.3489 106.916 96.2734C106.841 96.1979 106.799 96.0954 106.799 95.9887V85.5367C106.799 85.4299 106.841 85.3275 106.916 85.252C106.991 85.1764 107.093 85.134 107.199 85.134C107.305 85.134 107.407 85.1764 107.482 85.252C107.557 85.3275 107.599 85.4299 107.599 85.5367V95.9806C107.6 96.0342 107.591 96.0874 107.571 96.1372C107.552 96.1869 107.522 96.2323 107.485 96.2705C107.448 96.3088 107.403 96.3391 107.354 96.3599C107.305 96.3806 107.252 96.3913 107.199 96.3913Z" fill="#263238"/>
<path id="Vector_154" d="M107.521 86.2855C108.999 86.2855 110.197 84.6578 110.197 82.6499C110.197 80.642 108.999 79.0142 107.521 79.0142C106.043 79.0142 104.845 80.642 104.845 82.6499C104.845 84.6578 106.043 86.2855 107.521 86.2855Z" fill="#6F9F77"/>
<path id="Vector_155" opacity="0.2" d="M107.521 86.2855C108.999 86.2855 110.197 84.6578 110.197 82.6499C110.197 80.642 108.999 79.0142 107.521 79.0142C106.043 79.0142 104.845 80.642 104.845 82.6499C104.845 84.6578 106.043 86.2855 107.521 86.2855Z" fill="black"/>
<path id="Vector_156" d="M107.156 86.2855C108.634 86.2855 109.832 84.6578 109.832 82.6499C109.832 80.642 108.634 79.0142 107.156 79.0142C105.678 79.0142 104.48 80.642 104.48 82.6499C104.48 84.6578 105.678 86.2855 107.156 86.2855Z" fill="#6F9F77"/>
<path id="Vector_157" d="M107.952 83.4148C107.952 83.9906 107.668 84.4898 107.068 84.4898C106.907 84.488 106.749 84.4511 106.604 84.3815C106.459 84.312 106.33 84.2116 106.228 84.0872L106.4 83.596C106.476 83.6983 106.574 83.7819 106.687 83.8405C106.8 83.8991 106.925 83.9311 107.052 83.9342C107.118 83.937 107.184 83.9253 107.245 83.8999C107.307 83.8744 107.362 83.8358 107.407 83.7867C107.452 83.7377 107.485 83.6793 107.506 83.6158C107.526 83.5523 107.532 83.4851 107.524 83.4188C107.534 83.3516 107.529 83.2829 107.508 83.2181C107.488 83.1532 107.453 83.094 107.406 83.0449C107.359 82.9958 107.302 82.9583 107.239 82.9352C107.175 82.912 107.107 82.9039 107.04 82.9115H106.836V82.4767L107.344 81.5547H106.328V81.0233H107.852V81.446L107.308 82.4324C107.736 82.521 107.952 82.9035 107.952 83.4148Z" fill="white"/>
<path id="Vector_158" d="M107.424 93.1461L106.728 93.3152C106.599 93.3484 106.48 93.4116 106.38 93.4998C106.28 93.5879 106.202 93.6985 106.152 93.8225L105.684 94.9982C105.593 95.2313 105.559 95.4826 105.583 95.7318C105.608 95.9809 105.69 96.2207 105.824 96.4315L105.992 96.6932C107.168 96.4879 108.288 95.3968 108.288 95.3968L108.64 95.119C108.715 95.0648 108.778 94.9962 108.825 94.9172C108.873 94.8382 108.905 94.7505 108.919 94.659C108.933 94.5676 108.928 94.4743 108.906 94.3846C108.883 94.2949 108.843 94.2106 108.788 94.1366L108.252 93.424C108.156 93.3019 108.026 93.2107 107.879 93.1614C107.732 93.1121 107.574 93.1068 107.424 93.1461Z" fill="#E9B376"/>
<path id="Vector_159" d="M100.756 118.378V145.599H64.692V90.4406C64.6914 89.7806 64.8202 89.127 65.0709 88.5171C65.3216 87.9072 65.6893 87.3531 66.1529 86.8864C66.6166 86.4197 67.1671 86.0496 67.773 85.7973C68.3789 85.545 69.0283 85.4154 69.684 85.4159H79.828C80.9796 85.416 82.0959 85.8169 82.9874 86.5507C83.879 87.2845 84.4911 88.306 84.72 89.4421L89.412 113.048C89.5012 113.488 89.7386 113.884 90.0839 114.168C90.4293 114.453 90.8616 114.609 91.308 114.61H97.02C97.5113 114.61 97.9977 114.707 98.4515 114.897C98.9053 115.086 99.3175 115.364 99.6645 115.714C100.012 116.064 100.287 116.48 100.474 116.937C100.661 117.394 100.757 117.884 100.756 118.378Z" fill="#6F9F77"/>
<path id="Vector_160" opacity="0.2" d="M85.104 118.866C83.412 123.882 78.628 122.135 78.628 122.135C81.828 122.288 83.896 118.439 84.656 116.756L79.2 91.0807C79.0333 90.2976 78.6048 89.5958 77.986 89.0924C77.3672 88.589 76.5956 88.3145 75.8 88.3147H66.848C66.2855 88.3093 65.7437 88.5274 65.3401 88.9216C64.9364 89.3159 64.7035 89.8544 64.692 90.4204V145.599H85.224V119.429L85.104 118.866ZM66.62 100.667C66.62 100.667 71.2 108.156 75.6 108.558C75.6 108.558 69.3 109.42 66.62 100.667Z" fill="black"/>
<path id="Vector_161" opacity="0.2" d="M97.956 122.139C97.956 122.139 94.24 135.28 90.088 136.601C90.088 136.601 96.876 126.564 97.956 122.139Z" fill="black"/>
</g>
</g>
</svg>
