<svg width="20" height="20" viewBox="0 0 20 20" fill="none" xmlns="http://www.w3.org/2000/svg">
<path id="favorite" d="M10 19.1752L8.55 17.8752C6.86667 16.3585 5.475 15.0502 4.375 13.9502C3.275 12.8502 2.4 11.8627 1.75 10.9877C1.1 10.1127 0.645833 9.30853 0.3875 8.5752C0.129167 7.84186 0 7.09186 0 6.3252C0 4.75853 0.525 3.4502 1.575 2.4002C2.625 1.3502 3.93333 0.825195 5.5 0.825195C6.36667 0.825195 7.19167 1.00853 7.975 1.3752C8.75833 1.74186 9.43333 2.25853 10 2.9252C10.5667 2.25853 11.2417 1.74186 12.025 1.3752C12.8083 1.00853 13.6333 0.825195 14.5 0.825195C16.0667 0.825195 17.375 1.3502 18.425 2.4002C19.475 3.4502 20 4.75853 20 6.3252C20 7.09186 19.8708 7.84186 19.6125 8.5752C19.3542 9.30853 18.9 10.1127 18.25 10.9877C17.6 11.8627 16.725 12.8502 15.625 13.9502C14.525 15.0502 13.1333 16.3585 11.45 17.8752L10 19.1752ZM10 16.4752C11.6 15.0419 12.9167 13.8127 13.95 12.7877C14.9833 11.7627 15.8 10.871 16.4 10.1127C17 9.35436 17.4167 8.67936 17.65 8.0877C17.8833 7.49603 18 6.90853 18 6.3252C18 5.3252 17.6667 4.49186 17 3.8252C16.3333 3.15853 15.5 2.8252 14.5 2.8252C13.7167 2.8252 12.9917 3.04603 12.325 3.4877C11.6583 3.92936 11.2 4.49186 10.95 5.1752H9.05C8.8 4.49186 8.34167 3.92936 7.675 3.4877C7.00833 3.04603 6.28333 2.8252 5.5 2.8252C4.5 2.8252 3.66667 3.15853 3 3.8252C2.33333 4.49186 2 5.3252 2 6.3252C2 6.90853 2.11667 7.49603 2.35 8.0877C2.58333 8.67936 3 9.35436 3.6 10.1127C4.2 10.871 5.01667 11.7627 6.05 12.7877C7.08333 13.8127 8.4 15.0419 10 16.4752Z" fill="#F5F4F0"/>
</svg>
